<?xml version="1.0" encoding="UTF-8"?>
<svg width="13px" height="18px" viewBox="0 0 13 18" version="1.1" xmlns="http://www.w3.org/2000/svg" xmlns:xlink="http://www.w3.org/1999/xlink" jetway-hooks="{}">
    <!-- Generator: Sketch 62 (91390) - https://sketch.com -->
    <title></title>
    <desc>Created with Sketch.</desc>
    <g jetway-hook-id="DD02DE45-2693-4544-83F0-035D85D9B187" id="Page-1" stroke="none" stroke-width="1" fill="none" fill-rule="evenodd">
        <g jetway-hook-id="07579FC3-4B36-4300-A952-FCFA6D19C824" id="CR-Hello-World-containter-redesign" transform="translate(-385.000000, -469.000000)" fill="#3367D6" fill-rule="nonzero">
            <g jetway-hook-id="E2854C5C-A8C0-42A7-A4FD-751A7E639233" id="Group-5" transform="translate(355.000000, 382.000000)">
                <g jetway-hook-id="A6B9ED2D-0CBB-41C6-9CE8-DB72F5569D41" id="Group-4" transform="translate(0.000000, 72.000000)">
                    <path d="M38.9502465,29.4086538 C39.1940834,29.4086538 39.4020619,29.3221154 39.574182,29.1490385 C39.7463021,28.9759615 39.8323622,28.7668269 39.8323622,28.5216346 L39.8323622,28.5216346 L39.8323622,26.4447115 C40.6642761,25.8533654 41.3168983,25.125 41.7902286,24.2596154 C42.2779023,23.3509615 42.5217391,22.3629808 42.5217391,21.2956731 C42.5217391,20.15625 42.2348723,19.0961538 41.6611385,18.1153846 C41.1017481,17.1778846 40.3558942,16.4278846 39.4235769,15.8653846 C38.4482295,15.2884615 37.3939937,15 36.2608696,15 C35.1277454,15 34.0735096,15.2884615 33.0981623,15.8653846 C32.1658449,16.4278846 31.419991,17.1778846 30.8606006,18.1153846 C30.2868669,19.0961538 30,20.15625 30,21.2956731 C30,22.3629808 30.2438368,23.3509615 30.7315105,24.2596154 C31.2048409,25.125 31.857463,25.8533654 32.689377,26.4447115 L32.689377,26.4447115 L32.689377,28.5216346 C32.689377,28.7668269 32.775437,28.9759615 32.9475571,29.1490385 C33.1196773,29.3221154 33.3276558,29.4086538 33.5714926,29.4086538 L33.5714926,29.4086538 L38.9502465,29.4086538 Z M38.0681309,27.5913462 L34.4536082,27.5913462 L34.4536082,25.5144231 L33.7005827,24.9735577 C33.0838189,24.5552885 32.6069027,24.0216346 32.2698342,23.3725962 C31.9327656,22.7235577 31.7642313,22.03125 31.7642313,21.2956731 C31.7642313,20.4735577 31.9650381,19.7163462 32.3666517,19.0240385 C32.7682654,18.3317308 33.3133124,17.7836538 34.0017929,17.3798077 C34.6902734,16.9759615 35.443299,16.7740385 36.2608696,16.7740385 C37.0784402,16.7740385 37.8314657,16.9759615 38.5199462,17.3798077 C39.2084267,17.7836538 39.7534738,18.3317308 40.1550874,19.0240385 C40.556701,19.7163462 40.7575078,20.4735577 40.7575078,21.2956731 C40.7575078,22.03125 40.5889736,22.7235577 40.251905,23.3725962 C39.9148364,24.0216346 39.4379202,24.5552885 38.8211564,24.9735577 L38.8211564,24.9735577 L38.0681309,25.5144231 L38.0681309,27.5913462 Z M38.0681309,33 C38.3119677,33 38.5199462,32.9134615 38.6920663,32.7403846 C38.8641865,32.5673077 38.9502465,32.3581731 38.9502465,32.1129808 L38.9502465,32.1129808 L38.9502465,31.2259615 L33.5714926,31.2259615 L33.5714926,32.1129808 C33.5714926,32.3581731 33.6575527,32.5673077 33.8296728,32.7403846 C34.0017929,32.9134615 34.2097714,33 34.4536082,33 L34.4536082,33 L38.0681309,33 Z" jetway-hook-id="A2E917F3-9922-407D-8DE6-2E473575BB7A" id=""></path>
                </g>
            </g>
        </g>
    </g>
</svg>