<?xml version="1.0" encoding="utf-8"?>
<svg preserveAspectRatio="xMidYMin" width="427" height="231" viewBox="0 0 427 231" fill="none"
    xmlns="http://www.w3.org/2000/svg">
     <style type="text/css">

		.stargroup {
			animation: scale-up-bottom 5s cubic-bezier(0.390, 0.575, 0.565, 1.000) infinite both;
		}

		.star1 {
			transform-origin: 56px 79px;
			animation: rotate-center1 5s infinite both;
		}

		.star2 {
			transform-origin: 409px 121px;
			animation: rotate-center2 5s infinite both;
		}

		.star3 {
			transform-origin: 29px 181px;
			animation: rotate-center3 5s infinite both;
		}

		.star4 {
			transform-origin: 10px 122px;
			animation: rotate-center4 5s infinite both;
		}

		.star5 {
			transform-origin: 146px 20px;
			animation: rotate-center5 5s infinite both;
		}

		.star6 {
			transform-origin: 368px 98px;
			animation: rotate-center6 5s infinite both;
		}

		.star7 {
			transform-origin: 409px 167px;
			animation: rotate-center7 5s infinite both;
		}

		@keyframes rotate-center1 {
			0% {
				transform: rotate(0deg);
			}

			20% {
				transform: rotate(359deg);
			}

			100% {
				transform: rotate(360deg);
			}
		}

		@keyframes rotate-center2 {
			0% {
				transform: rotate(0deg);
			}

			25% {
				transform: rotate(359deg);
			}

			100% {
				transform: rotate(360deg);
			}
		}

		@keyframes rotate-center3 {
			0% {
				transform: rotate(0deg);
			}

			30% {
				transform: rotate(359deg);
			}

			100% {
				transform: rotate(360deg);
			}
		}

		@keyframes rotate-center4 {
			0% {
				transform: rotate(0deg);
			}

			33% {
				transform: rotate(359deg);
			}

			100% {
				transform: rotate(360deg);
			}
		}

		@keyframes rotate-center5 {
			0% {
				transform: rotate(0deg);
			}

			37% {
				transform: rotate(359deg);
			}

			100% {
				transform: rotate(360deg);
			}
		}

		@keyframes rotate-center6 {
			0% {
				transform: rotate(0deg);
			}

			40% {
				transform: rotate(359deg);
			}

			100% {
				transform: rotate(360deg);
			}
		}

		@keyframes rotate-center7 {
			0% {
				transform: rotate(0deg);
			}

			50% {
				transform: rotate(359deg);
			}

			100% {
				transform: rotate(360deg);
			}
		}

		@keyframes scale-up-bottom {
			0% {
				-webkit-transform: scale(0.25);
				transform: scale(0.25);
				-webkit-transform-origin: 50% 100%;
				transform-origin: 50% 100%;
			}

			20% {
				-webkit-transform: scale(1);
				transform: scale(1);
				-webkit-transform-origin: 50% 100%;
				transform-origin: 50% 100%;
			}
		}
  </style>
    <svg preserveAspectRatio="xMidYMin" width="427" height="231" viewBox="0 0 427 231" fill="none">
        <g class="stargroup">
            <path class="star1" fill-rule="evenodd" clip-rule="evenodd"
                d="M50.4667 69C50.4667 69 50.481 78.5988 49.048 82.8136C47.615 87.0284 43 90.9613 43 90.9613C43 90.9613 51.3337 91.2497 55.224 92.9266C59.1144 94.6035 65.1263 100.499 65.1263 100.499C65.1263 100.499 63.4585 91.7956 64.5973 87.7448C65.7361 83.694 71.5459 77.6638 71.5459 77.6638C71.5459 77.6638 64.3336 77.892 60.8041 76.4413C57.2747 74.9907 50.4667 69 50.4667 69Z"
                fill="#00AC47" />
            <path class="star2" fill-rule="evenodd" clip-rule="evenodd"
                d="M415.604 112.684C415.604 112.684 409.834 117.374 406.586 118.55C403.338 119.727 398.68 118.814 398.68 118.814C398.68 118.814 402.643 124.066 403.565 127.27C404.487 130.474 403.924 137.036 403.924 137.036C403.924 137.036 408.334 131.769 411.337 130.492C414.341 129.216 420.854 129.839 420.854 129.839C420.854 129.839 417.137 125.526 416.257 122.654C415.378 119.781 415.604 112.684 415.604 112.684Z"
                fill="#E94232" />
            <path class="star3" fill-rule="evenodd" clip-rule="evenodd"
                d="M18.32 176.528C18.32 176.528 22.7576 182.849 23.7373 186.303C24.7171 189.757 23.4249 194.526 23.4249 194.526C23.4249 194.526 29.1674 190.786 32.5596 190.056C35.9518 189.327 42.7181 190.378 42.7181 190.378C42.7181 190.378 37.5806 185.428 36.4785 182.221C35.3764 179.014 36.5052 172.299 36.5052 172.299C36.5052 172.299 31.7558 175.85 28.7109 176.559C25.666 177.267 18.32 176.528 18.32 176.528Z"
                fill="#FBB900" />
            <path class="star4" fill-rule="evenodd" clip-rule="evenodd"
                d="M3.89737 118.757C3.89737 118.757 5.8517 123.829 5.95902 126.344C6.06634 128.859 4.45656 131.863 4.45656 131.863C4.45656 131.863 8.86237 130.346 11.2319 130.453C13.6014 130.56 17.9333 132.472 17.9333 132.472C17.9333 132.472 15.2981 128.205 15.0705 125.835C14.843 123.466 16.6506 119.114 16.6506 119.114C16.6506 119.114 12.9346 120.679 10.7992 120.62C8.66383 120.56 3.89737 118.757 3.89737 118.757Z"
                fill="#E94232" />
            <path class="star5" fill-rule="evenodd" clip-rule="evenodd"
                d="M139.921 8.22098C139.921 8.22098 141.876 13.2925 141.983 15.8078C142.09 18.3231 140.48 21.3268 140.48 21.3268C140.48 21.3268 144.886 19.8096 147.256 19.9166C149.625 20.0237 153.957 21.9358 153.957 21.9358C153.957 21.9358 151.322 17.6689 151.094 15.2993C150.867 12.9297 152.675 8.57783 152.675 8.57783C152.675 8.57783 148.959 10.1435 146.823 10.0837C144.688 10.024 139.921 8.22098 139.921 8.22098Z"
                fill="#FBB900" />
            <path class="star6" fill-rule="evenodd" clip-rule="evenodd"
                d="M368.961 91.4579C368.961 91.4579 366.844 96.4637 365.174 98.3476C363.504 100.231 360.259 101.274 360.259 101.274C360.259 101.274 364.482 103.243 366.112 104.966C367.743 106.689 369.53 111.074 369.53 111.074C369.53 111.074 370.599 106.174 372.081 104.311C373.564 102.449 377.887 100.574 377.887 100.574C377.887 100.574 374.126 99.1186 372.632 97.5923C371.137 96.066 368.961 91.4579 368.961 91.4579Z"
                fill="#FBB900" />
            <path class="star7" fill-rule="evenodd" clip-rule="evenodd"
                d="M402.502 177.958C402.502 177.958 407.425 175.654 409.926 175.372C412.428 175.089 415.537 176.486 415.537 176.486C415.537 176.486 413.716 172.197 413.657 169.825C413.599 167.454 415.204 162.999 415.204 162.999C415.204 162.999 411.132 165.926 408.784 166.318C406.436 166.71 401.968 165.211 401.968 165.211C401.968 165.211 403.789 168.809 403.879 170.943C403.968 173.077 402.502 177.958 402.502 177.958Z"
                fill="#00AC47" />
        </g>
    </svg>
    <defs>
    <path d="M107.6 72.79c9.908-13.471 17.452-22.28 22.633-26.428 19.084-15.276 37.205-18.87 49.736-18.556 26.452.662 61.912 24.815 73.668 48.64 7.838 15.885 10.445 28.567 7.823 38.048 12.853-.871 22.93 4.176 30.23 15.14 10.952 16.447 5.084 39.953 1.413 47.529-1.83 3.778-6.406 8.444-13.726 13.997a26 26 0 01-15.08 5.278c-124.27 3.026-193.78 4.002-208.528 2.928-22.593-1.646-28.325-12.284-34.374-19.757-4.916-6.074-11.41-30.815-.228-51.97 7.454-14.104 18.218-22.478 32.294-25.123 1.549-6.259 3.95-11.928 7.2-17.006 4.878-7.618 11.269-11.96 15.312-14.224 6.445-3.61 16.988-3.109 31.628 1.505z" id="b"/>
    <path d="M11.581 70.424s14-20.086 13.513-65.615c0 0-.853-4.505-4.809-4.748-3.956-.244-4.93 4.078-4.93 4.078s-1.522 32.442-11.809 50.46c-10.225 18.016 4.566 20.633 8.035 15.825z" id="c"/>
    <path d="M25.686 68.11S8.096 51.069 0 6.27c0 0 0-4.566 3.835-5.6 3.834-1.035 5.6 3.043 5.6 3.043s7.608 31.53 21.12 47.355c13.513 15.826-.547 21.06-4.869 17.043z" id="e"/>
    <path d="M35.181 15.521C33.234 8.278 29.4 3.043 26.721 0c-1.217 1.156-2.557 2.13-4.078 2.86 1.035 2.07 1.339 4.566.608 6.818-1.034 3.043-3.712 5.417-7 5.356-5.234-.06-8.277-6.208-7.243-11.017C7.67 3.53 6.391 2.8 5.418 1.765l-.062.122c0 .06-.06.06-.06.122-.061.06-.122.182-.183.243-.122.183-.244.365-.304.548-.122.183-.183.365-.305.548-.122.182-.182.365-.304.548-.122.182-.183.365-.304.547-.122.183-.183.366-.305.609-.06.183-.182.365-.243.609-.061.182-.183.365-.244.608-.06.183-.182.366-.243.609-.061.183-.183.365-.244.609-.06.182-.121.365-.243.608-.061.183-.122.366-.183.61-.06.182-.122.364-.182.608-.061.182-.122.365-.183.608-.06.183-.122.366-.183.61-.06.182-.121.364-.182.608a1.8 1.8 0 00-.122.608 1.8 1.8 0 00-.122.61c-.06.182-.06.364-.121.608-.061.182-.061.365-.122.548-.061.182-.061.365-.122.547-.06.183-.06.366-.122.548-.06.183-.06.365-.121.548-.061.183-.061.365-.061.548 0 .182-.061.365-.061.548 0 .182-.06.365-.06.547 0 .183-.062.366-.062.548 0 .183-.06.365-.06.548 0 .183-.062.365-.062.487 0 .183-.06.365-.06.487 0 .183 0 .304-.061.487 0 .183 0 .304-.061.487 0 .182 0 .304-.061.487v6.269l4.809 27.086 30.555-3.956-.183-34.208z" id="g"/>
    <filter x="-1.2%" y="-1.5%" width="102.5%" height="104.1%" filterUnits="objectBoundingBox" id="a">
      <feOffset dy="1" in="SourceAlpha" result="shadowOffsetOuter1"/>
      <feGaussianBlur stdDeviation="1" in="shadowOffsetOuter1" result="shadowBlurOuter1"/>
      <feColorMatrix values="0 0 0 0 0 0 0 0 0 0 0 0 0 0 0 0 0 0 0.08 0" in="shadowBlurOuter1"/>
    </filter>
  </defs>
  <g fill="none" fill-rule="evenodd">
    <path d="M100.78 72.977c10.783-14.725 18.994-24.354 24.632-28.887 20.77-16.697 40.492-20.625 54.13-20.282 28.789.724 67.381 27.123 80.176 53.165 8.53 17.362 11.368 31.224 8.514 41.587 13.989-.952 24.956 4.564 32.901 16.548 11.919 17.977 5.533 43.67 1.538 51.95-2.05 4.251-7.266 9.53-15.646 15.835a26 26 0 01-14.996 5.216c-135.693 3.321-211.579 4.393-227.659 3.217-24.589-1.798-30.827-13.426-37.41-21.594-5.35-6.639-12.417-33.682-.249-56.805 8.113-15.416 19.829-24.569 35.148-27.459 1.685-6.841 4.298-13.038 7.836-18.589 5.308-8.326 12.264-13.072 16.665-15.547 7.014-3.946 18.488-3.397 34.42 1.645z" fill="#F3F2F2"/>
    <g transform="translate(0 23)">
      <use fill="#000" filter="url(#a)" xlink:href="#b"/>
      <use fill="#FFF" xlink:href="#b"/>
    </g>
    <g>
      <g transform="translate(17)">
        <path d="M165.864 154.056s1.4-5.356 9.009-5.356c7.608 0 22.034 16.92 5.66 48.633l-.79 1.217s5.66-1.217 5.964 4.748c.244 5.965-6.087 5.356-6.878 5.356-.791 0-13.33-.913-8.887-27.025 0 0-2.434-15.643-2.617-16.069-.122-.365-1.46-11.504-1.46-11.504z" fill="#FFCCE9" fill-rule="nonzero"/>
        <path d="M159.656 190.698s-7.122 2.252-12.113 2.009l-3.348.791-.79 27.39h13.938c1.156-9.738 2.8-26.294 2.313-30.19z"/>
        <path d="M144.256 193.498l3.348-.791c4.991.243 12.113-2.009 12.113-2.009.487 3.835-1.218 20.391-2.252 30.13h5.6c1.034-5.54 2.738-14.73 5.356-29.095 5.174-27.877 0-37.677 0-37.677-9.374-13.513-23.313-3.043-23.313-3.043s-6.878 32.381-6.573 40.598c.182 5.722-.548 20.634-1.035 29.217h5.965l.791-27.33z" fill="#AF2DFD" fill-rule="nonzero"/>
        <path d="M156.612 228.071h5.052s.366-2.009 1.34-7.243h-5.6c-.426 4.26-.792 7.243-.792 7.243zM143.282 227.219l.183-6.33H137.5c-.183 3.773-.365 6.33-.365 6.33h6.147z" fill="#000" fill-rule="nonzero"/>
        <path d="M156.308 132.578c-1.278-5.124-6.513-5.124-6.513-5.124 5.052-2.927 4.078-8.895 4.078-8.895-.67-4.054-4.382-4.223-4.382-4.223 1.765-3.209-.609-5.855-.609-5.855-1.46-1.464-3.347-1.633-4.626-1.52.852-4.56-1.887-9.909-1.887-9.909-3.652-6.53-8.338-1.407-8.338-1.407-.67-4.11-5.174-6.306-5.174-6.306-7.06-1.351-6.27 5.292-6.27 5.292v2.928l-1.217.507-4.991-2.59c-5.843 1.35-2.374 6.53-2.374 6.53l-.183.958c-.973-.789-1.826-1.352-1.826-1.352-7.73 3.435-1.095 8.84-1.095 8.84s2.374.9 4.687-1.746l.243.45 12.843 2.647 11.322-2.252-2.313 5.01 4.139 28.601s3.956 7.6 8.4 5.686c4.443-1.914 1.338-5.686 1.338-5.686 6.878-2.815 4.748-10.584 4.748-10.584z" fill="#FFCCE9" fill-rule="nonzero"/>
        <text fill="#000" font-family="Helvetica" font-size="12" transform="translate(88.867 65.128)">
          <tspan x="28.608" y="66.618">#FBB</tspan> <tspan x="28.608" y="80.618">C04</tspan>
        </text>
        <path d="M113.396 110.414s-3.713-2.374-4.078-7.791c0 0-.487-2.07 0-3.226.487-1.157 2.252-1.704 3.287 0 .974 1.704 3.774 5.539 3.165 8.4-.608 2.921-2.374 2.617-2.374 2.617z" fill="#AF2DFD" fill-rule="nonzero"/>
        <g fill-rule="nonzero">
          <path d="M113.396 109.136v-.426h-11.93v10.469c5.905 0 11.93-3.409 11.93-10.043z" fill="#000"/>
          <path d="M95.501 108.71c0 6.634 2.983 10.651 8.887 10.651 0 0-2.86-.67-2.8-.67l-.06-9.738-6.027-.243z" fill="#99A0A7"/>
        </g>
        <path d="M144.317 107.857H96.414c-.426.183-.852.427-.913.792v-.122.974l48.877-.061c.974 0 .974-1.583-.06-1.583z" fill="#000" fill-rule="nonzero"/>
        <path d="M141.639 192.89s-10.53 1.582-17.652-4.2a4275.162 4275.162 0 013.409 34.816h13.817c.548-9.374 1.278-26.356.426-30.616zM117.11 123.257c.182-.609.243-.852.243-.852s-.122.304-.244.852z"/>
        <path d="M117.11 123.257c-.062.243-.122.548-.244.913.06.426.06.852.122 1.278-.061-.852 0-1.643.121-2.191z" fill="#3BB0E5" fill-rule="nonzero"/>
        <path d="M127.989 132.935h-3.875l-8.998 2.543c-.46 4.174-.919 9.326-1.116 15.457 14.908-11.609 13.989-18 13.989-18z" fill="#AF2DFD" fill-rule="nonzero"/>
        <path d="M140.909 229.714h5.721c.365-2.069.67-4.139.974-6.208h-6.391c-.183 3.713-.304 6.208-.304 6.208zM127.944 228.984s-.183-2.07-.548-5.478h-6.27l1.096 5.478h5.722z" fill="#000" fill-rule="nonzero"/>
        <g fill-rule="nonzero">
          <path d="M150.77 153.995c-.244-3.287-.549-6.574-.853-9.8-.609-5.904-1.34-11.747-2.617-17.53-1.279-5.721-2.983-11.564-6.635-16.251-.67-.852-1.46-2.009-2.313-2.983-2.617-3.043-6.513-3.47-10.286-3.286-1.705.06-3.53.182-5.296.547h-.06c-.123 0-.183.061-.305.061s-.183.061-.305.061c-.426.06-.852.183-1.278.304-.06 0-.121.061-.182.061-1.644.487-3.226 1.218-4.748 1.887-4.991 2.252-9.86 4.87-14.608 7.67-4.383 2.617-9.496 4.93-11.322 10.104-1.278 3.834-.67 7.79 1.644 11.077 3.165 4.505 7.73 5.052 13.208 4.748 2.496-.73 4.991-1.765 7.122-3.165 4.747-3.043 7.121-7.304 8.947-12.478.304-.974 1.887-.548 1.522.426-1.704 4.991-4.078 9.922-8.643 12.843-1.218.73-2.435 1.4-3.652 2.009 5.052-.487 12.295-3.47 16.616-5.478-.67 2.495-3.286 7.608-12.66 15.034-.487 16.495.73 40.781 7.121 73.772h6.33c-.73-7.791-2.19-22.4-3.408-34.817 7.122 5.783 17.652 4.2 17.652 4.2.852 4.261.121 21.243-.426 30.617h6.33c1.522-10.104 2.739-20.695 3.408-30.738.792-13.026.67-25.99-.304-38.895z" fill="#D083FF"/>
          <path d="M122.344 125.326c.365-.973-1.217-1.4-1.522-.426-1.826 5.174-4.2 9.496-8.947 12.478-2.192 1.4-4.626 2.435-7.122 3.165 1.644-.06 3.287-.243 5.052-.365h.183a35.053 35.053 0 003.652-2.008c4.687-2.922 7-7.852 8.704-12.844z" stroke="#000" stroke-width=".5" fill="#000"/>
        </g>
        <path d="M94.77 122.892h-1.338c-1.035 0-1.035 1.582 0 1.582h1.339c1.035 0 1.035-1.582 0-1.582zM103.597 122.892h-1.34c-1.034 0-1.034 1.582 0 1.582h1.34c.974 0 .974-1.582 0-1.582z" fill="#000" fill-rule="nonzero"/>
        <g fill-rule="nonzero">
          <path d="M120.153 83.389l-1.705-5.904a21.935 21.935 0 01-5.112 4.382l.547 7.974c2.557-1.522 4.748-3.835 6.27-6.452zM123.074 93.675l-2.313-8.156c-1.704 2.556-4.078 4.687-6.756 6.148l.609 9.312c3.47-1.704 6.27-4.26 8.46-7.304zM117.9 75.658l-1.825-6.33a24.477 24.477 0 01-3.409 2.678l.548 8.096c1.765-1.218 3.408-2.74 4.687-4.444zM125.144 100.98l-1.522-5.418c-2.313 2.983-5.234 5.478-8.886 7.122l.365 5.356c4.017-1.582 7.365-3.956 10.043-7.06zM115.588 67.685c-.366-.913-1.157-2.374-2.192-1.948-1.46.548-.913 3.287-.913 3.287l.061 1.217c1.096-.791 2.13-1.643 3.044-2.556zM116.075 109.318l5.295-.608c6.026-.183 4.87-3.774 4.87-3.774l-.61-2.13c-2.616 2.8-5.782 4.99-9.555 6.512z" fill="#E4594F"/>
          <path d="M115.831 68.415s-.122-.365-.304-.791a23.147 23.147 0 01-2.983 2.496l.122 1.826a24.477 24.477 0 003.409-2.679l-.244-.852zM118.448 77.545l-.547-1.887c-1.279 1.705-2.922 3.226-4.687 4.444l.122 1.826c1.886-1.218 3.652-2.678 5.112-4.383zM120.7 85.458l-.608-2.07a18.712 18.712 0 01-6.27 6.453l.122 1.765c2.678-1.461 5.052-3.591 6.757-6.148zM123.622 95.562l-.548-1.887c-2.19 3.044-4.93 5.6-8.46 7.304l.122 1.705c3.59-1.705 6.512-4.14 8.886-7.122zM115.04 107.98l.122 1.4.913-.123a26.185 26.185 0 009.556-6.512l-.548-1.826c-2.617 3.165-5.965 5.539-10.043 7.06z" fill="#FFF"/>
        </g>
        <g fill-rule="nonzero">
          <path d="M134.883 109.136v-.426h-9.009v10.59c5.904 0 9.009-3.53 9.009-10.164z" fill="#000"/>
          <path d="M116.927 108.71c0 6.634 3.104 10.651 8.947 10.651V108.71h-8.947z" fill="#99A0A7"/>
        </g>
        <path d="M144.317 107.857H96.232c-1.035 0-1.035 1.583 0 1.583h48.085c1.035 0 1.035-1.583 0-1.583z" fill="#000" fill-rule="nonzero"/>
        <path d="M136.1 110.414s4.383-8.582 5.843-10.226c1.461-1.704 4.018-5.234 3.226 2.009 0 0-1.095 8.034-5.295 11.504l-3.774-3.287z" fill="#AF2DFD" fill-rule="nonzero"/>
        <g fill-rule="nonzero">
          <path d="M228.132 155.152s-3.043 2.617-4.26 4.443c-1.218 1.826-3.349 8.521-3.835 11.687-.427 2.982.547 4.2 1.643 4.078l9.86-19.904-3.408-.304z" fill="#6D4C41"/>
          <path d="M223.689 173.23l8.4-16.861c.182-.365-.062-.852-.488-.852l-9.86 19.904c.06 0 .122 0 .243-.061.852-.305 1.705-2.13 1.705-2.13z" fill="#424242"/>
        </g>
        <g transform="translate(238.89 7.913)">
          <mask id="d" fill="#fff">
            <use xlink:href="#c"/>
          </mask>
          <use fill="#34A853" fill-rule="nonzero" xlink:href="#c"/>
          <g mask="url(#d)" fill-rule="nonzero">
            <path d="M11.885 21.973c.73-2.86 1.279-5.6 1.644-8.521.852-6.087 1.521-12.174 1.643-18.321 3.287.608 8.4 1.765 11.748 2.556.974 9.07.365 18.2.426 27.33l-.061.79-15.4-3.408s0-.06-.06-.182c.06-.122.06-.183.06-.244z" fill="#8D6E63"/>
            <path d="M12.738 18.382c3.225.426 6.39.791 9.617 1.157 1.704.182 3.347.426 5.052.608 0 1.644-.061 3.226-.061 4.87l-.061.79-15.4-3.408s0-.06-.06-.182c0-.061.06-.122.06-.183.305-1.278.609-2.435.853-3.652z" fill="#126B26"/>
          </g>
        </g>
        <g transform="translate(193.56 12.174)">
          <mask id="f" fill="#fff">
            <use xlink:href="#e"/>
          </mask>
          <use fill="#34A853" fill-rule="nonzero" xlink:href="#e"/>
          <g mask="url(#f)" fill-rule="nonzero">
            <path d="M16.19 20.573c-1.277-2.617-2.312-5.295-3.225-8.034C11.017 6.756 9.19.852 7.852-5.113 4.748-3.896-.061-1.826-3.165-.365c.791 9.07 3.043 17.956 4.748 26.903l.243.792 14.426-6.27s0-.06.06-.243c-.06-.122-.06-.183-.121-.244z" fill="#8D6E63"/>
            <path d="M14.73 17.226c-3.043 1.034-6.148 2.008-9.252 2.982-1.582.487-3.226 1.035-4.87 1.522.305 1.582.67 3.165.975 4.747l.243.792 14.426-6.27s0-.06.06-.243c0-.061-.06-.122-.06-.183a23.583 23.583 0 01-1.522-3.347z" fill="#126B26"/>
          </g>
        </g>
        <path d="M231.358 60.015c2.982.244 5.843-.852 8.217-2.678.365-.243.67-.547.974-.852-2.557-1.46-9.07-3.287-14.547 1.096 1.278 1.46 3.469 2.252 5.356 2.434z" fill="#34A853" fill-rule="nonzero"/>
        <path d="M220.402 49.12s-.548-.913-1.218-.365c-1.034.913.183 5.295 1.705 5.843 1.156.426 1.521-.365 1.765-.67.243-.425-2.252-4.808-2.252-4.808zM242.923 46.442s.791-.67 1.46 0c1.157 1.096.183 6.087-1.582 6.574-1.34.365-2.374-.122-2.617-.487-.183-.487 2.739-6.087 2.739-6.087z" fill="#6D4C41" fill-rule="nonzero"/>
        <g transform="translate(217.237 59.65)">
          <mask id="h" fill="#fff">
            <use xlink:href="#g"/>
          </mask>
          <use fill="#34A853" fill-rule="nonzero" xlink:href="#g"/>
          <path d="M2.678 49.546l33.964-3.59.183 4.99s-18.382 3.165-18.93 3.165c-.487 0-13.756.426-13.756.426l-1.46-4.99z" fill="#126B26" fill-rule="nonzero" mask="url(#h)"/>
        </g>
        <path d="M233.488 74.685c3.287 0 6.026-2.313 7-5.357.73-2.252.487-4.747-.609-6.817-1.339.67-2.8 1.217-4.321 1.522-2.983.67-6.513.73-9.374-.365-.974 4.808 2.009 11.017 7.304 11.017z" fill="#126B26" fill-rule="nonzero"/>
        <path d="M238.662 64.641c-.122-.852-.304-1.704-.487-2.617-.791-1.339-2.07-2.252-3.652-2.252-2.13.06-4.626.304-5.722 2.496-1.521 2.982 0 8.947 3.287 9.678 2.861.67 6.391-1.766 6.94-5.296-.183-.609-.244-1.339-.366-2.009z" fill="#8D6E63" fill-rule="nonzero"/>
        <path d="M221.254 37.008s-1.035.486-1.278 4.565c-.244 4.078.182 8.46.487 10.773.365 2.313.79 7 3.104 8.583 2.313 1.582 3.408 2.312 6.817 2.617 3.409.365 7.548-1.218 8.765-2.13 1.217-.914 4.504-4.322 4.017-9.983-.487-5.66-.548-10.043-1.521-12.478-1.035-2.434-3.896-3.59-6.94-4.017-3.043-.426-8.582-1.096-13.451 2.07z" fill="#8D6E63" fill-rule="nonzero"/>
        <path d="M220.28 48.877c-.548.487-1.278-2.8-1.34-3.105-.425-2.556-.303-5.356 0-7.912.062-.487.123-.974.305-1.4.244-.548.73-.913 1.157-1.279 1.887-1.4 4.078-2.86 6.33-3.53 3.956-1.156 7.974-.426 11.687.974 1.521.548 2.495 1.46 3.469 2.8 1.522 2.07 2.374 4.626 2.435 7.243 0 .487-.487 5.844-1.34 5.478-.121-.06-.182-.791-.182-.913-.122-.67-.243-1.339-.304-2.008a117.413 117.413 0 01-.67-4.87c-.122-1.035-1.278-1.704-2.13-2.252-1.157-.73-2.435-1.217-3.713-1.522-2.374-.608-4.87-.913-7.304-.486-2.374.486-4.626 1.339-6.452 2.982-.609.609-1.035 1.34-1.4 2.13-.365.792-.305 1.826-.305 2.74-.06.608-.182 4.93-.243 4.93z" fill="#000" fill-rule="nonzero"/>
        <path d="M223.567 43.703a.461.461 0 01-.244-.122c-.182-.122-.182-.365 0-.548.183-.182 1.644-1.826 2.922-1.704.426.061.73.244.974.609a.396.396 0 11-.67.426c-.121-.183-.243-.244-.426-.244-.67-.06-1.704.853-2.252 1.461-.122.122-.182.122-.304.122zM238.419 42.546a.335.335 0 01-.305-.182c-1.4-1.948-2.982-.974-3.104-.852a.396.396 0 11-.426-.67s2.252-1.522 4.2 1.035c.121.183.06.426-.061.548-.183.121-.244.121-.304.121zM223.871 47.538c-.06 0-.122 0-.243-.061a.396.396 0 01-.122-.548c.06-.06.974-1.4 2.313-1.522.67-.06 1.339.244 1.887.792.122.121.122.365 0 .547-.122.122-.365.122-.548 0-.426-.426-.852-.608-1.278-.608-.791.06-1.522.913-1.765 1.217 0 .122-.122.183-.244.183zM238.601 46.138c-.06 0-.122 0-.182-.061-2.313-1.461-3.105-.305-3.105-.305a.396.396 0 11-.67-.426s1.279-1.826 4.2.061a.396.396 0 01.122.548c-.121.122-.243.183-.365.183z" fill="#263238" fill-rule="nonzero"/>
        <path d="M230.627 50.46c-.121 0-.304-.062-.365-.183a.375.375 0 01.061-.426c.122-.183.487-1.522.791-2.618.061-.182.244-.304.487-.243.183.06.305.243.244.487-.304 1.156-.487 1.826-.67 2.252.487-.061 1.096-.122 1.34-.061.182.06.365.243.304.426a.458.458 0 01-.426.304c-.183-.121-1.035 0-1.766.061.061 0 0 0 0 0z" fill="#6D4C41" fill-rule="nonzero"/>
        <path d="M224.723 54.111c.061-.121.122-.182.244-.304.304-.243.67-.365 1.035-.487.608-.183 1.278-.243 1.886-.365 1.279-.183 2.557-.365 3.835-.426.73-.061 1.4-.061 2.13-.122 1.522-.122 3.105-.183 4.626-.304.122 0 .305 0 .426.121.061.061.061.183 0 .244-.121.73-.67 1.339-1.217 1.765-1.765 1.4-3.956 1.948-6.147 2.07-1.522.06-3.226.06-4.748-.427-.487-.182-.913-.365-1.34-.669-.364-.183-.973-.67-.73-1.096z" fill="#4E342E" fill-rule="nonzero"/>
        <path d="M233.732 52.894c-.67.06-1.278.06-1.948.122-1.157.06-2.313.182-3.53.304-.548.06-1.157.122-1.705.244-.121.06-.304.06-.426.121.365.609.67 1.218.913 1.826.061 0 .183.061.244.061 1.339.365 2.86.365 4.26.304 1.948-.121 3.957-.547 5.54-1.582 0-.365 0-.67.06-.913.061-.244.061-.487.122-.73-1.156.121-2.374.182-3.53.243z" fill="#FFF" fill-rule="nonzero"/>
        <path fill="#4E342E" fill-rule="nonzero" d="M226.245 54.903h1.583l.121.487-1.339.304zM237.566 53.26c-.06 0-2.07.608-2.07.608l.184.426 1.765-.183.121-.852z"/>
        <path fill="#34A853" fill-rule="nonzero" d="M222.593 61.415l-.06.122"/>
        <path fill="#8D6E63" fill-rule="nonzero" d="M234.584 61.172l3.287 4.078.121.426-3.469 3.896-6.026-2.618-.852-5.234z"/>
        <g fill-rule="nonzero">
          <path d="M242.436 218.576l2.374-8.217-8.035-4.505-1.582 7.852c2.313 1.765 4.747 3.348 7.243 4.87z" fill="#78909C"/>
          <path d="M234.219 218.697l7.365 2.983.913-3.104c-2.496-1.522-4.93-3.105-7.244-4.87l-1.034 4.991z" fill="#126B26"/>
        </g>
        <g fill-rule="nonzero">
          <path d="M246.21 223.567l-4.687-1.887-7.365-2.983-.548 2.557 15.886 6.513c-.243-1.887-1.521-3.47-3.286-4.2z" fill="#6D4C41"/>
          <path d="M249.618 228.436c0-.243-.06-.426-.06-.608l-15.887-6.513-.122.608 16.07 6.513z" fill="#424242"/>
        </g>
        <g fill-rule="nonzero">
          <path d="M252.54 109.257l-30.556 3.957s-25.077 36.825-25.138 36.886c-2.252 3.286-2.74 8.643-.06 11.747 3.955 4.565 11.016 3.043 16.129 1.948 2.13-.426 4.2-.913 6.33-1.4 3.774-4.322.67-7.122-.913-8.156l-8.947-.853 21.486-27.33 6.695.244 7.487 38.164-8.339 41.39 8.035 4.505 12.539-43.338-4.748-57.764z" fill="#012754"/>
          <path d="M219.306 162.395c.913-.183 1.765-.426 2.678-.609 1.34-1.46 2.252-3.287 1.948-5.295-.122-.67-.365-1.218-.67-1.765l-4.869-.427c1.583.974 4.687 3.774.913 8.096z" fill="#78909C"/>
          <path d="M228.132 155.152l-4.87-.426c.366.547.61 1.095.67 1.765.304 2.008-.67 3.834-1.948 5.295 1.035-.243 2.07-.487 3.105-.67 0 0 2.19-2.373 3.043-5.964z" fill="#126B26"/>
        </g>
        <path d="M254.122 14.486c-.06.792-.121 1.705-.243 2.8l10.104.792v-2.861l-9.86-.73z" fill="#FABB05" fill-rule="nonzero"/>
        <g fill-rule="nonzero">
          <path d="M202.933 16.008c1.765-1.156 4.321-4.2 4.2-5.052-.122-.852-1.766-5.052-2.313-5.478-.548-.487-1.218.061-1.218.061s-.548-1.522-1.948-1.278c-1.46.182-1.643 1.46-1.643 1.46s-.852-.912-1.826-.547c-.974.365-1.035 1.521-1.035 1.521s-.73-.79-1.582-.365c-.852.365-.913 1.278-.913 1.278s-1.035-.913-2.07.366c-1.339 1.704-.182 3.773-.122 4.808.061 1.035.61 3.957 1.096 5.6-.06.06 5.722 0 9.374-2.374z" fill="#8D6E63"/>
          <path d="M196.42 12.965a.335.335 0 01-.304-.183c-.427-.974-.792-1.948-.974-3.226-.061-.182.121-.365.304-.426.183-.06.365.122.365.304a14.3 14.3 0 00.974 3.105c.06.182 0 .365-.183.426h-.182zM199.22 11.443c-.122 0-.244-.06-.305-.243-.426-1.096-.79-2.13-1.034-3.53-.061-.183.121-.366.304-.366.183-.06.365.122.365.304.244 1.34.609 2.374 1.035 3.409.06.183 0 .365-.183.426h-.182z" fill="#6D4C41"/>
          <path d="M200.255 15.886a.335.335 0 01-.305-.182c-.06-.061-.852-1.826.122-3.652.487-.913 1.4-1.765 2.13-2.252-1.46-.183-2.434-1.035-2.921-1.826-.366-.609-.244-.852-.183-.913.06-.122.244-.366 3.104-1.522.183-.06.366 0 .426.183.061.182 0 .365-.182.426-1.096.426-2.313.974-2.74 1.217.183.487 1.279 1.887 3.47 1.704.183 0 .305.061.365.244.061.121 0 .304-.121.426 0 0-2.009 1.217-2.74 2.617-.79 1.461-.121 2.983-.06 3.044.06.182 0 .365-.183.426-.122.06-.182.06-.182.06z" fill="#6D4C41"/>
        </g>
        <g fill-rule="nonzero">
          <path d="M254.305 12.113c-1.948-.852-4.93-3.47-4.93-4.322 0-.852.974-5.235 1.4-5.782.426-.548 1.217-.122 1.217-.122s.304-1.583 1.704-1.583c1.461-.06 1.826 1.157 1.826 1.157s.67-1.035 1.705-.791c1.034.243 1.278 1.339 1.278 1.339s.609-.913 1.46-.609c.914.243 1.096 1.156 1.096 1.156s.913-1.095 2.13.061c1.583 1.461.792 3.713.914 4.748.121 1.035 0 4.017-.244 5.722.122-.061-5.539.79-9.556-.974z" fill="#8D6E63"/>
          <path d="M260.21 8.095h-.062c-.182-.06-.304-.243-.243-.426.243-1.034.426-1.947.426-3.165 0-.182.183-.304.365-.365.183 0 .365.183.365.365 0 1.278-.243 2.252-.487 3.348a.411.411 0 01-.365.243zM257.227 7.06h-.061c-.183-.06-.305-.243-.244-.425.244-1.096.426-2.192.487-3.53 0-.183.183-.366.365-.366.183 0 .366.183.366.365 0 1.461-.244 2.496-.487 3.652-.122.183-.244.305-.426.305z" fill="#6D4C41"/>
          <path d="M256.922 11.565h-.121c-.183-.061-.305-.244-.244-.426 0 0 .487-1.644-.548-2.983-.974-1.278-3.104-2.13-3.104-2.13-.122-.061-.243-.244-.183-.365 0-.183.183-.305.305-.305 2.191-.121 3.043-1.765 3.165-2.252-.365-.121-1.704-.487-2.86-.73-.183-.061-.305-.244-.244-.426.06-.183.243-.305.426-.244 3.043.67 3.226.913 3.347.974.061.061.244.244-.06.913-.366.852-1.218 1.826-2.618 2.252.792.426 1.826 1.096 2.435 1.887 1.217 1.644.67 3.53.67 3.591-.122.122-.244.244-.366.244z" fill="#6D4C41"/>
        </g>
        <g fill-rule="nonzero">
          <path d="M57.824 137.074l4.383 5.6c.67.852 1.704 1.217 2.739 1.095l-5.965-7.608-1.157.913z" fill="#FFAB91"/>
          <path d="M62.085 141.335c.365.426.304.913.06 1.278l.062.122c.67.852 1.704 1.217 2.739 1.095l-5.965-7.608-.609.487 3.713 4.626z" fill="#6D4C41"/>
        </g>
        <path d="M29.825 46.685l-2.07 10.105 23.435 4.747 2.19-10.043s0-9.495-9.738-11.626c-.06-.06-8.034-2.495-13.817 6.817z" fill="#000" fill-rule="nonzero"/>
        <path d="M51.068 57.58c-1.035-.243-2.07.488-2.313 1.522l-.304 1.461c-.244 1.035.487 2.07 1.521 2.313 1.035.244 2.07-.487 2.313-1.521l.305-1.461a2.032 2.032 0 00-1.522-2.313zM29.703 52.711c-1.034-.243-2.07.487-2.313 1.522l-.304 1.46c-.243 1.036.487 2.07 1.522 2.314 1.035.243 2.07-.487 2.313-1.522l.304-1.46a2.032 2.032 0 00-1.522-2.314z" fill="#FF7043" fill-rule="nonzero"/>
        <path d="M12.113 58.859a3.243 3.243 0 01-2.861-1.765c-3.044-6.27-5.417-13.574-6.33-19.6a3.17 3.17 0 012.678-3.59A3.17 3.17 0 019.19 36.58c.791 5.357 2.983 12.113 5.722 17.713.79 1.582.121 3.47-1.461 4.26-.365.244-.852.305-1.34.305z" fill="#FFAB91" fill-rule="nonzero"/>
        <path d="M25.32 95.501c.731 0 .792-1.156 0-1.156-.73-.061-.73 1.156 0 1.156z" fill="#4E342E" fill-rule="nonzero"/>
        <path d="M29.947 56.12s-.122-1.522.182-2.8c.305-1.278 0 0 0 0s.122-.913.974-.791c.853.122 0 0 0 0" fill="#8C6E63" fill-rule="nonzero"/>
        <path d="M44.981 75.78c2.557.791 3.652 1.887 3.652 1.887l-.06.122-3.592-2.009z" fill="#4285F4" fill-rule="nonzero"/>
        <g transform="translate(26.782 73.041)" fill-rule="nonzero">
          <path fill="#4FC2F6" d="M15.4 1.765L9.13 7.73 5.295.06l-.67.062-4.26 6.634L6.94 7.913 5.66 15.52l2.07.305 2.251.426 1.279-7.609 6.634 1.096-1.704-7.67z"/>
          <circle fill="#4285F4" cx="8.826" cy="10.104" r="1"/>
          <circle fill="#4285F4" cx="8.217" cy="13.573" r="1"/>
        </g>
        <g fill-rule="nonzero">
          <path d="M42.85 39.99c-5.842-.974-11.381 2.922-12.355 8.826l-1.4 8.217c-.974 5.843 2.921 11.382 8.826 12.356 5.843.974 11.382-2.922 12.356-8.826l1.4-8.217c.974-5.782-2.983-11.382-8.826-12.356z" fill="#FB8C00"/>
          <path d="M32.199 52.772s-1.217 2.009-2.313 3.348c0 0-.06 3.287 2.617 3.47l3.165.547s1.705.365 2.13-1.339c0 0 .549-1.339.549-2.191 0 0 .547-2.617-2.313-3.104l-3.835-.73z" fill="#FFA626"/>
        </g>
        <path d="M42.912 61.355s-1.644-.122-1.583-1.948c.061-1.826 0 0 0 0s0-1.583.244-2.252c.243-.67 0 0 0 0s.304-2.435 3.165-2.192c2.86.244 0 0 0 0l4.99.73s.792 0 .67 1.036c-.121 1.034 0 0 0 0s-.608 5.904-4.321 5.113c-3.713-.73 0 0 0 0l-3.165-.487" fill="#FFA626" fill-rule="nonzero"/>
        <path d="M29.947 56.12s-.183-1.583.182-2.8c.366-1.217 0 0 0 0s.122-.913.974-.791c.853.122 0 0 0 0l1.157.243c-.061 0-.67 1.461-2.313 3.348M49.729 55.694s.852.122.67 1.035c0 0-4.687-1.096-6.392-1.826 0 0 .426-.061.73 0l4.992.79z" fill="#5D4037" fill-rule="nonzero"/>
        <path d="M40.112 66.163a7.254 7.254 0 01-3.409-.852c-.182-.06-.243-.304-.122-.487.061-.183.305-.243.487-.122 2.192 1.218 5.052 1.035 7.061-.487.122-.121.365-.06.487.061.122.122.06.365-.06.487-1.34.913-2.862 1.4-4.444 1.4z" fill="#BF360C" fill-rule="nonzero"/>
        <path d="M39.32 62.937c-.73 0-1.46-.304-1.886-.609a.84.84 0 01-.183-.243c-.06-.122 0-.183.122-.243l1.765-1.766a.37.37 0 01.487 0 .37.37 0 010 .487l-1.4 1.461c.426.183.852.304 1.217.304.183 0 .365.122.365.305 0 .182-.121.365-.304.365-.122-.06-.122-.06-.183-.06z" fill="#EF6C00" fill-rule="nonzero"/>
        <g fill="#3E2723" fill-rule="nonzero">
          <path d="M36.703 57.216a.458.458 0 01-.426-.305c0-.06-.365-.913-1.704-1.095-1.34-.244-2.191.487-2.191.487a.465.465 0 01-.305.121c-.974 0-1.339-.791-1.4-1.156-.06-.244.122-.487.365-.487.244-.061.487.122.487.365 0 .122.061.304.366.365.365-.243 1.4-.852 2.8-.608 1.826.304 2.373 1.643 2.373 1.704.061.243 0 .487-.243.609h-.122z"/>
          <path d="M34.634 55.39c-.366-.061-.73.182-.792.547l-.182.974c-.061.365.182.73.548.792.365.06.73-.183.79-.548l.183-.974c.061-.365-.182-.73-.547-.791z"/>
        </g>
        <path d="M33.477 53.016h-.06c-.244-.061-.427-.305-.366-.548a1.752 1.752 0 011.948-1.4l1.217.183c.244.06.426.304.365.547-.06.244-.304.426-.547.366l-1.218-.183c-.426-.06-.852.243-.913.609 0 .304-.182.426-.426.426z" fill="#4E342E" fill-rule="nonzero"/>
        <g fill="#3E2723" fill-rule="nonzero">
          <path d="M48.025 59.163c-.183 0-.305 0-.487-.06a.84.84 0 01-.244-.183c0-.061-.609-.974-1.948-1.217-1.278-.244-1.947.486-1.947.486-.183.183-.426.183-.67.061-.183-.182-.243-.426-.06-.608.06-.061.973-1.096 2.8-.792 1.4.244 2.19 1.096 2.434 1.461.304.061.426-.122.487-.243.122-.244.426-.305.608-.183.244.122.305.365.183.609-.122.243-.487.67-1.156.67z"/>
          <path d="M45.407 57.216c.365.06.609.426.548.79l-.183.975c-.06.365-.426.608-.79.548-.366-.061-.61-.427-.549-.792l.183-.974c.122-.365.426-.608.791-.547z"/>
        </g>
        <path d="M47.781 55.45h-.06c-.244-.06-.427-.304-.366-.547.06-.426-.243-.853-.609-.913l-1.217-.183c-.243-.06-.426-.304-.365-.548.06-.243.304-.426.548-.365l1.217.183a1.752 1.752 0 011.4 1.947c-.122.244-.304.426-.548.426zM25.32 95.501c.731 0 .792-1.156 0-1.156-.73-.061-.73 1.156 0 1.156z" fill="#4E342E" fill-rule="nonzero"/>
        <path d="M29.947 56.12s-.122-1.522.182-2.8c.305-1.278 0 0 0 0s.122-.913.974-.791c.853.122 0 0 0 0" fill="#8C6E63" fill-rule="nonzero"/>
        <path d="M26.6 77.302c-.67 0-1.4-.244-2.01-.67-.365-.304-9.373-7.547-15.095-18.99-.79-1.583-.121-3.47 1.4-4.261 1.583-.791 3.47-.122 4.261 1.4 5.052 10.104 13.27 16.738 13.33 16.8a3.126 3.126 0 01.487 4.443c-.548.852-1.46 1.278-2.374 1.278z" fill="#FFAB91" fill-rule="nonzero"/>
        <path d="M26.6 77.302c-.67 0-1.4-.244-2.01-.67-.06-.06-2.008-1.582-4.625-4.321a3.18 3.18 0 01.121-4.504 3.18 3.18 0 014.505.121c2.312 2.374 3.956 3.713 3.956 3.713a3.126 3.126 0 01.487 4.444 3.084 3.084 0 01-2.435 1.217z" fill="#E4594F" fill-rule="nonzero"/>
        <g fill-rule="nonzero">
          <path d="M42.85 39.99c-5.842-.974-11.381 2.922-12.355 8.826l-1.4 8.217c-.974 5.843 2.921 11.382 8.826 12.356 5.843.974 11.382-2.922 12.356-8.826l1.4-8.217c.974-5.782-2.983-11.382-8.826-12.356z" fill="#FFAB91"/>
          <path d="M50.764 57.155c-.122 0-.244-.061-.366-.122-3.226-3.53-5.295-2.496-5.356-2.435-.243.122-.487.061-.609-.182-.121-.244-.06-.487.183-.609.122-.06 2.678-1.46 6.452 2.617a.478.478 0 010 .67c-.06 0-.183.06-.304.06z" fill="#263238"/>
        </g>
        <path d="M39.807 61.233c-.73 0-1.521-.426-1.947-.73a.461.461 0 01-.122-.244c0-.122.06-.183.122-.244l1.887-1.643a.37.37 0 01.487 0 .37.37 0 010 .487l-1.522 1.34c.426.243.852.364 1.217.364.183 0 .305.183.305.366-.061.121-.244.304-.427.304z" fill="#FF8A65" fill-rule="nonzero"/>
        <path d="M48.512 59.163c-.122 0-.305 0-.487-.06-.122 0-.183-.061-.244-.183 0-.061-.73-.913-1.948-.913-1.4 0-2.07.791-2.07.852-.182.183-.425.243-.669.06-.182-.182-.243-.425-.06-.608.06-.06.973-1.156 2.738-1.156 1.4 0 2.253.791 2.557 1.156.304.061.426-.122.487-.243.122-.244.365-.305.609-.183.243.122.304.365.182.609 0 .243-.426.67-1.095.67zM37.373 56.911c-.061 0-.061 0 0 0-.305 0-.487-.243-.426-.487 0-.06.06-1.095-.913-2.07-.853-.851-1.948-.669-2.009-.669-.122 0-.183 0-.304-.06-.852-.427-.913-1.279-.792-1.644.061-.244.305-.365.548-.304.244.06.365.304.305.547 0 .122-.061.305.182.487.426-.06 1.644 0 2.617.974 1.279 1.278 1.157 2.678 1.157 2.74a.395.395 0 01-.365.486z" fill="#263238" fill-rule="nonzero"/>
        <g fill-rule="nonzero">
          <path d="M42.06 74.259c2.252 1.034 9.921 3.59 8.643 6.878l-8.46 25.016-23.374-1.278 4.687-30.251c.974-2.74 2.556-2.618 7.182-2.435 0 0 1.278.243 6.574.73.06-.06 2.678.366 4.748 1.34z" fill="#E4594F"/>
          <path d="M34.695 79.98l-3.044-7.852 2.496.122.73-3.957 5.66 1.035-.608 3.957 2.191.73-6.025 6.209c-.061.06-.853.73-1.4-.244z" fill="#FFAB91"/>
        </g>
        <path d="M7.304 34.634c-.122 0-.182-.061-.243-.122-.73-.852-.67-1.704-.487-2.252-1.522-.244-2.07-1.644-2.192-2.374 0-.122 0-.183.061-.243.061-.061.122-.122.244-.122l4.017-.244c.183 0 .365.122.365.305 0 .182-.121.365-.304.365l-3.591.182c.182.548.67 1.461 1.948 1.461.121 0 .243.061.304.183.06.122.06.243-.061.365 0 .061-.67.852.183 1.887a.322.322 0 01-.061.487c-.061.122-.122.122-.183.122z" fill="#EF6C00" fill-rule="nonzero"/>
        <path d="M6.087 30.677c-.244 0-.365-.182-.305-.365l.244-2.556c0-.183.182-.305.365-.305s.304.183.304.366l-.243 2.556c-.06.183-.183.304-.365.304zM3.835 33.112c-.183 0-.305-.122-.305-.304l-.182-4.383c0-.182.121-.365.304-.365s.365.122.365.304l.183 4.383c0 .243-.183.365-.365.365zM2.252 33.477c-.183 0-.304-.122-.304-.304L1.4 29.399c0-.183.122-.365.304-.365.183 0 .365.122.365.304l.548 3.774c0 .183-.121.365-.365.365z" fill="#EF6C00" fill-rule="nonzero"/>
        <path d="M2.009 35.303l-1.4-5.843s-.183-.913.73-1.217c0 0 .73-.244 1.157.426 0 0-.122-1.035 1.217-1.34 0 0 1.156-.182 1.46.731 0 0-.182-1.035 1.035-1.34 0 0 1.035-.06 1.34.731 0 0-.122-.852 1.217-.791 0 0 .73-.06.974 1.157l.182 1.217s1.218-.061 1.279 1.035l.426 3.773s-1.461 1.279-2.435 2.313l.426 2.192-6.026 2.13" fill="#FFAB91" fill-rule="nonzero"/>
        <path d="M6.148 34.816c-.183 0-.305-.121-.305-.304-.121-.73 0-1.34.365-1.887.305-.426.73-.73 1.157-.913-.974-.609-1.217-1.704-1.096-2.313 0-.183.122-.304.305-.304l2.982-.183c.183 0 .365.122.365.304 0 .183-.121.366-.304.366l-2.739.243c.06.487.244 1.4 1.522 1.644.182 0 .304.182.304.304 0 .183-.122.304-.304.304 0 0-1.096.183-1.644.974a1.69 1.69 0 00-.243 1.34c.06.182-.061.364-.244.364-.06.061-.121.061-.121.061zM3.53 32.808c-.121 0-.304-.122-.304-.244l-.791-3.226c-.061-.182.06-.365.243-.426.183-.06.365.061.426.244l.73 3.165c.062.182-.06.365-.243.426l-.06.06z" fill="#FF8A65" fill-rule="nonzero"/>
        <path d="M5.965 32.138c-.183 0-.304-.122-.304-.243l-.67-3.105c-.06-.182.061-.365.244-.426.182-.06.365.061.426.244l.67 3.104c.06.183-.062.365-.244.426-.061-.06-.122 0-.122 0z" fill="#FF8A65" fill-rule="nonzero"/>
        <path d="M33.903 62.815s-.06-1.339.913-1.034c0 0 3.287 1.887 7.73 2.19 0 0 1.157 0 .61 1.036 0 0-.792 2.8-5.6 2.07-.062.06-3.835-.61-3.653-4.262z" fill="#FFF" fill-rule="nonzero"/>
        <g fill="#263238" fill-rule="nonzero">
          <path d="M42.973 65.433s-.67.365-2.74.243c0 0 .73.67 1.887.791 0 0 1.218-.608.853-1.034zM36.155 64.58s-1.095-.304-2.313-1.339l.061 1.035c0-.06 1.035.609 2.252.305z"/>
        </g>
        <circle fill="#000" fill-rule="nonzero" cx="51.616" cy="39.747" r="6.635"/>
        <path d="M43.52 39.564c-5.843-1.217-11.747 2.556-12.964 8.4l-.61 3.713c12.661 2.617 18.383-.974 18.383-.974-1.217 5.843 1.948 9.982 1.948 9.982l1.765-8.339c1.643-6.147-2.678-11.565-8.522-12.782z" fill="#000" fill-rule="nonzero"/>
        <path d="M31.651 72.189s-2.252-.548-5.356-2.617c-.061 0 2.07 4.139 5.356 2.617z" fill="#EFF0F2" fill-rule="nonzero"/>
        <path d="M16.739 68.598l4.808-4.2s3.287 3.835 3.47 3.835l-4.687 4.26c-.061.061-1.826-1.704-3.591-3.895z" fill="#90130E" fill-rule="nonzero"/>
        <path d="M70.12 81.684c-1.4 0-2.679-.913-3.105-2.373-.426-1.705.548-3.47 2.252-3.896 6.026-1.583 12.6-4.382 17.104-7.304 1.461-.974 3.47-.487 4.383.974.974 1.46.487 3.47-.974 4.382-5.113 3.287-12.174 6.33-18.93 8.096-.183.121-.426.121-.73.121z" fill="#FFAB91" fill-rule="nonzero"/>
        <path d="M55.633 83.51c-.791 0-1.522 0-2.252-.06-1.765-.061-3.104-1.522-3.043-3.287.06-1.765 1.521-3.105 3.286-3.044 3.713.122 9.374-.06 15.156-1.521 1.705-.426 3.47.608 3.896 2.313.426 1.704-.609 3.408-2.313 3.895-5.417 1.34-10.713 1.704-14.73 1.704z" fill="#FFAB91" fill-rule="nonzero"/>
        <path d="M54.05 83.51h-.121c-.426 0-.913-.06-1.34-.06-2.738-.122-5.051-.183-6.817-.73-1.643-.549-2.617-2.314-2.069-4.018.548-1.644 2.313-2.617 4.017-2.07.913.305 3.104.366 5.052.426.426 0 .913.061 1.4.061 1.765.061 3.104 1.583 3.044 3.348a3.158 3.158 0 01-3.166 3.043z" fill="#E4594F" fill-rule="nonzero"/>
        <path d="M58.25 83.45l.183-6.392s-2.983.061-4.565.061l-.244 6.391c-.06 0 1.826.122 4.626-.06z" fill="#90130E" fill-rule="nonzero"/>
        <path d="M93.067 67.928c-.67 0-1.34-.243-1.948-.913a.37.37 0 010-.487.37.37 0 01.487 0c.852.974 1.887.73 2.374.487l-2.192-2.86c-.121-.122-.06-.366.061-.487.122-.122.365-.061.487.06l2.435 3.166c.06.06.06.182.06.243 0 .122-.06.183-.121.243-.365.305-.974.548-1.643.548z" fill="#EF6C00" fill-rule="nonzero"/>
        <path d="M93.188 66.772a.461.461 0 01-.243-.122.37.37 0 010-.487l1.826-1.887a.37.37 0 01.487 0 .37.37 0 010 .487l-1.826 1.887c-.061.06-.122.122-.244.122zM92.823 70.059c-.122 0-.182-.061-.243-.122a.322.322 0 01.06-.487l3.41-2.74a.322.322 0 01.486.062.322.322 0 01-.06.487l-3.41 2.739c-.06.06-.121.06-.243.06z" fill="#EF6C00" fill-rule="nonzero"/>
        <path d="M92.154 72.737l5.356-2.8s.791-.487.426-1.4c0 0-.304-.73-1.096-.609 0 0 .853-.608.183-1.765 0 0-.609-1.035-1.522-.609 0 0 .913-.547.305-1.643 0 0-.67-.852-1.4-.487 0 0 .73-.487-.183-1.46 0 0-.426-.61-1.522.06l-1.034.67s-.73-.974-1.644-.244l-3.104 2.13s0 1.948-.183 3.348l-1.947 1.096 2.373 5.965" fill="#FFAB91" fill-rule="nonzero"/>
        <path d="M90.084 69.45a.335.335 0 01-.304-.183c-.122-.182-.061-.365.122-.487.486-.243.73-.608.852-1.095.243-.913-.366-1.887-.366-1.887-.121-.183-.06-.365.122-.487.183-.122.365-.06.487.122 0 .06.73 1.217.426 2.374-.182.608-.548 1.095-1.156 1.46-.061.122-.122.183-.183.183z" fill="#FF8A65" fill-rule="nonzero"/>
        <path d="M92.032 66.528c-.487 0-1.035-.182-1.583-.608-.121-.122-.182-.305-.06-.487.121-.122.304-.183.486-.061 1.34 1.035 2.313 0 2.435-.122a.37.37 0 01.487 0 .37.37 0 010 .487 2.305 2.305 0 01-1.765.791z" fill="#FF8A65" fill-rule="nonzero"/>
        <path d="M93.554 65.859c-.122 0-.183-.061-.244-.122l-1.826-2.374c-.122-.122-.06-.365.06-.487.123-.121.366-.06.488.061l1.826 2.374c.122.122.06.365-.061.487-.06.06-.122.06-.243.06zM93.31 70.12a.335.335 0 01-.304-.183c-.061-.183 0-.365.121-.426l2.861-1.522c.183-.06.365 0 .426.122.061.182 0 .365-.121.426l-2.861 1.522c0 .06-.061.06-.122.06zM92.214 67.807a.335.335 0 01-.304-.183c-.06-.183-.06-.365.122-.426l2.8-1.583c.182-.06.365-.06.426.122.06.183.06.365-.122.426l-2.8 1.583c0 .06-.06.06-.122.06z" fill="#FF8A65" fill-rule="nonzero"/>
        <path d="M56.79 167.873c-2.313 1.156-5.053 0-5.783-2.496-.548-1.947.426-4.078 2.313-4.869l7.426-3.165 2.252 7.365-6.208 3.165z" fill="#2C66BF" fill-rule="nonzero"/>
        <path fill="#FFAB91" fill-rule="nonzero" d="M86.189 152.656l-2.435-5.295-15.095 6.512 1.947 6.818z"/>
        <path fill="#6199F6" fill-rule="nonzero" d="M70.728 160.63l-2.07-6.757-7.912 3.409 2.252 7.365z"/>
        <path d="M29.825 166.595l14-11.687-4.018-5.965-14.79 9.86c-2.009 1.34-2.496 4.018-1.218 5.966 1.4 2.13 4.018 3.408 6.026 1.826z" fill="#2C66BF" fill-rule="nonzero"/>
        <path d="M31.042 115.04c-.121-3.47-3.165-6.209-6.878-6.087-3.165.122-6.452.913-7 4.504-.121.852-.182 3.287-.121 4.2l5.965 44.981c.243 2.252 2.313 3.957 4.748 3.896 2.556-.061 4.565-2.07 4.504-4.504l-1.218-46.99z" fill="#2C66BF" fill-rule="nonzero"/>
        <g fill-rule="nonzero">
          <path d="M83.632 147.421l3.165 6.392a2.918 2.918 0 002.496 1.643l-4.322-8.704-1.339.67z" fill="#FFAB91"/>
          <path d="M86.919 152.473c.243.487.122.913-.183 1.218l.061.122a2.918 2.918 0 002.496 1.643l-4.322-8.704-.67.365 2.618 5.356z" fill="#6D4C41"/>
        </g>
        <path d="M18.99 104.814s-.73 2.009-1.582 6.391c0 0-.365 2.191-.304 6.452l31.773 4.2s-1.157-6.878-6.574-15.765l-23.312-1.278z" fill="#2C66BF" fill-rule="nonzero"/>
        <path fill="#6199F6" fill-rule="nonzero" d="M42.546 155.943l-4.808-5.66-4.26 2.86 4.443 6.635z"/>
        <path fill="#FFC107" fill-rule="nonzero" d="M9.191 36.155l-6.574 1.279.852 2.982 6.209-1.522z"/>
        <path fill="#FFAB91" fill-rule="nonzero" d="M42.546 155.943l18.809-14.365-3.47-4.504-20.147 13.27z"/>
        <path d="M48.694 121.248c-.791-2.8-7.121-9.617-9.982-9.19-3.652.547-9.617.912-8.339 4.32l20.634 49c.67 1.825 2.557 2.921 4.504 2.617 2.435-.366 4.018-2.8 3.287-5.174l-10.104-41.573z" fill="#2C66BF" fill-rule="nonzero"/>
        <path d="M42.12 74.076s4.444 2.009 8.461 2.922c0 0-5.782-.061-8.948-2.435l.487-.487z" fill="#EFF0F2" fill-rule="nonzero"/>
      </g>
      <path d="M130.734 153.235c.985.535 1.583 2.18 2.068 3.345.507 1.215 1.216 2.589.944 3.902-.158.768-2.916 2.029-3.654 1.592-.961-.568-1.361-1.857-1.8-2.91-.424-1.017-1.258-2.686-1.092-3.927.166-1.242 2.549-2.536 3.534-2.002zM136.29 163.183c1.15.278 2.128 1.616 2.887 2.55.79.974 1.828 2.049 1.823 3.264-.003.71-2.634 2.371-3.502 2.13-1.131-.312-1.826-1.374-2.512-2.218-.662-.815-1.894-2.127-1.983-3.258-.09-1.13 2.138-2.746 3.288-2.468zM165.919 152.851c-1.028.447-1.767 2.034-2.352 3.152-.61 1.166-1.436 2.473-1.28 3.805.09.778 2.728 2.275 3.501 1.905 1.007-.483 1.518-1.732 2.047-2.743.511-.976 1.487-2.566 1.43-3.817-.057-1.251-2.318-2.748-3.346-2.302zM160.39 162.782c-1.125.17-2.203 1.438-3.027 2.316-.86.915-1.966 1.91-2.094 3.149-.075.724 2.25 2.674 3.103 2.514 1.111-.208 1.889-1.221 2.634-2.015.72-.766 2.036-1.982 2.246-3.126.209-1.144-1.737-3.01-2.862-2.838z" stroke="#FABB05" stroke-width="2.6"/>
      <path stroke="#EDA606" stroke-width="2.8" stroke-linecap="round" d="M131.738 160.016l3.265 5.034"/>
      <path d="M129.844 150.757c-.65.846-.912 1.73-.787 2.65.125.922.274 1.737.447 2.445" stroke="#EDA606" stroke-width="2.4" stroke-linecap="round" stroke-linejoin="round"/>
      <path stroke="#EDA606" stroke-width="2.4" stroke-linecap="round" d="M164.659 160.35l-3.608 4.794M168.171 149.949c.352 1.235.477 2.163.375 2.782-.103.62-.666 1.395-1.69 2.326"/>
      <g fill-rule="nonzero">
        <path d="M163.036 173.345l-6.615-11.22a2.815 2.815 0 00-2.431-1.414l-12.837.224a2.81 2.81 0 00-2.383 1.499l-6.22 11.414a2.872 2.872 0 00.05 2.831l6.616 11.284a2.87 2.87 0 002.432 1.467l12.837-.224a2.86 2.86 0 002.382-1.543l6.22-11.446a2.938 2.938 0 00-.05-2.872z" fill="#4285F4"/>
        <path d="M156.065 175.778l-8.966-5.012.757 3.255-3.384-3.238.736 4.947-2.705 6.936 7.223 6.881 4.824-.084a2.828 2.828 0 002.348-1.48l4.162-7.437-4.995-4.768z" fill="#000" opacity=".07"/>
        <g fill="#FFF">
          <path d="M146.204 175.725l-1.732-5.44-2.21-1.485 2.214 6.955-1.97 7.028 2.157-1.56z"/>
          <path d="M145.963 168.728l2.215 6.963-1.97 7.035 9.903-7.174-10.148-6.824zm2.91 5.95l-1.134-3.558 5.193 3.488-4.06.07z"/>
        </g>
      </g>
    </g>
  </g>
</svg>