<?xml version="1.0" encoding="utf-8"?>
<svg preserveAspectRatio="xMidYMin" width="427" height="231" viewBox="0 0 427 231" fill="none"
    xmlns="http://www.w3.org/2000/svg">
     <style type="text/css">
		.stargroup {
			animation: scale-up-bottom 5s cubic-bezier(0.390, 0.575, 0.565, 1.000) infinite both;
		}
		.star1 {
			transform-origin: 56px 79px;
			animation: rotate-center1 5s infinite both;
		}
		.star2 {
			transform-origin: 409px 121px;
			animation: rotate-center2 5s infinite both;
		}
		.star3 {
			transform-origin: 29px 181px;
			animation: rotate-center3 5s infinite both;
		}
		.star4 {
			transform-origin: 10px 122px;
			animation: rotate-center4 5s infinite both;
		}
		.star5 {
			transform-origin: 146px 20px;
			animation: rotate-center5 5s infinite both;
		}
		.star6 {
			transform-origin: 368px 98px;
			animation: rotate-center6 5s infinite both;
		}
		.star7 {
			transform-origin: 409px 167px;
			animation: rotate-center7 5s infinite both;
		}
		@keyframes rotate-center1 {
			0% {
				transform: rotate(0deg);
			}
			20% {
				transform: rotate(359deg);
			}
			100% {
				transform: rotate(360deg);
			}
		}
		@keyframes rotate-center2 {
			0% {
				transform: rotate(0deg);
			}
			25% {
				transform: rotate(359deg);
			}
			100% {
				transform: rotate(360deg);
			}
		}
		@keyframes rotate-center3 {
			0% {
				transform: rotate(0deg);
			}
			30% {
				transform: rotate(359deg);
			}
			100% {
				transform: rotate(360deg);
			}
		}
		@keyframes rotate-center4 {
			0% {
				transform: rotate(0deg);
			}
			33% {
				transform: rotate(359deg);
			}
			100% {
				transform: rotate(360deg);
			}
		}
		@keyframes rotate-center5 {
			0% {
				transform: rotate(0deg);
			}
			37% {
				transform: rotate(359deg);
			}
			100% {
				transform: rotate(360deg);
			}
		}
		@keyframes rotate-center6 {
			0% {
				transform: rotate(0deg);
			}
			40% {
				transform: rotate(359deg);
			}
			100% {
				transform: rotate(360deg);
			}
		}
		@keyframes rotate-center7 {
			0% {
				transform: rotate(0deg);
			}
			50% {
				transform: rotate(359deg);
			}
			100% {
				transform: rotate(360deg);
			}
		}
		@keyframes scale-up-bottom {
			0% {
				-webkit-transform: scale(0.25);
				transform: scale(0.25);
				-webkit-transform-origin: 50% 100%;
				transform-origin: 50% 100%;
			}
			20% {
				-webkit-transform: scale(1);
				transform: scale(1);
				-webkit-transform-origin: 50% 100%;
				transform-origin: 50% 100%;
			}
		}
    </style>

    <g class="cloud" transform="translate(65,20)">
        <path fill-rule="evenodd" clip-rule="evenodd" d="M100.781 49.9768C100.781 49.9768 116.954 27.8894 125.412 21.0897C146.182 4.39301 165.904 0.464935 179.542 0.80785C208.331 1.5317 246.923 27.931 259.718 53.9731C272.513 80.0152 268.232 95.5597 268.232 95.5597C268.232 95.5597 289.215 94.1315 301.133 112.108C313.052 130.085 306.666 155.777 302.671 164.058C300.265 169.044 292.055 175.915 286.209 180.385C282.224 183.432 277.448 184.977 272.433 185.097C234.515 186.006 66.169 189.921 44.37 188.326C19.7814 186.528 13.5429 174.9 6.96007 166.732C1.60992 160.093 -5.45729 133.05 6.71142 109.927C18.8801 86.8036 41.8587 82.468 41.8587 82.468C41.8587 82.468 44.3873 72.206 49.6953 63.8793C55.0032 55.5526 61.9589 50.8072 66.3595 48.3319C76.8811 42.4136 100.781 49.9768 100.781 49.9768Z" fill="#F3F2F2"/>
        <g filter="url(#filter0_d)">
        <path fill-rule="evenodd" clip-rule="evenodd" d="M107.601 72.7905C107.601 72.7905 122.461 52.5829 130.233 46.3619C149.317 31.0862 167.438 27.4924 179.969 27.8061C206.421 28.4684 241.881 52.6209 253.637 76.4467C265.394 100.272 261.46 114.494 261.46 114.494C261.46 114.494 280.74 113.187 291.691 129.634C302.642 146.081 296.774 169.587 293.103 177.163C290.958 181.59 283.789 187.642 278.458 191.733C274.491 194.777 269.689 196.307 264.691 196.426C228.658 197.285 75.6799 200.816 55.7686 199.366C33.1757 197.72 27.4436 187.082 21.3951 179.609C16.4792 173.535 9.98567 148.794 21.1667 127.638C32.3477 106.483 53.4611 102.516 53.4611 102.516C53.4611 102.516 55.7845 93.1278 60.6616 85.5098C65.5387 77.8917 71.9298 73.5502 75.9732 71.2856C85.6407 65.8709 107.601 72.7905 107.601 72.7905Z" fill="white"/>
        </g>
        <defs>
        <filter id="filter0_d" x="13" y="26.7877" width="287" height="175.923" filterUnits="userSpaceOnUse" color-interpolation-filters="sRGB">
        <feFlood flood-opacity="0" result="BackgroundImageFix"/>
        <feColorMatrix in="SourceAlpha" type="matrix" values="0 0 0 0 0 0 0 0 0 0 0 0 0 0 0 0 0 0 127 0"/>
        <feOffset dy="1"/>
        <feGaussianBlur stdDeviation="1"/>
        <feColorMatrix type="matrix" values="0 0 0 0 0 0 0 0 0 0 0 0 0 0 0 0 0 0 0.08 0"/>
        <feBlend mode="normal" in2="BackgroundImageFix" result="effect1_dropShadow"/>
        <feBlend mode="normal" in="SourceGraphic" in2="effect1_dropShadow" result="shape"/>
        </filter>
        </defs>
    </g>

        <g class="stargroup">
            <path class="star1" fill-rule="evenodd" clip-rule="evenodd"
                d="M50.4667 69C50.4667 69 50.481 78.5988 49.048 82.8136C47.615 87.0284 43 90.9613 43 90.9613C43 90.9613 51.3337 91.2497 55.224 92.9266C59.1144 94.6035 65.1263 100.499 65.1263 100.499C65.1263 100.499 63.4585 91.7956 64.5973 87.7448C65.7361 83.694 71.5459 77.6638 71.5459 77.6638C71.5459 77.6638 64.3336 77.892 60.8041 76.4413C57.2747 74.9907 50.4667 69 50.4667 69Z"
                fill="#00AC47" />
            <path class="star2" fill-rule="evenodd" clip-rule="evenodd"
                d="M415.604 112.684C415.604 112.684 409.834 117.374 406.586 118.55C403.338 119.727 398.68 118.814 398.68 118.814C398.68 118.814 402.643 124.066 403.565 127.27C404.487 130.474 403.924 137.036 403.924 137.036C403.924 137.036 408.334 131.769 411.337 130.492C414.341 129.216 420.854 129.839 420.854 129.839C420.854 129.839 417.137 125.526 416.257 122.654C415.378 119.781 415.604 112.684 415.604 112.684Z"
                fill="#E94232" />
            <path class="star3" fill-rule="evenodd" clip-rule="evenodd"
                d="M18.32 176.528C18.32 176.528 22.7576 182.849 23.7373 186.303C24.7171 189.757 23.4249 194.526 23.4249 194.526C23.4249 194.526 29.1674 190.786 32.5596 190.056C35.9518 189.327 42.7181 190.378 42.7181 190.378C42.7181 190.378 37.5806 185.428 36.4785 182.221C35.3764 179.014 36.5052 172.299 36.5052 172.299C36.5052 172.299 31.7558 175.85 28.7109 176.559C25.666 177.267 18.32 176.528 18.32 176.528Z"
                fill="#FBB900" />
            <path class="star4" fill-rule="evenodd" clip-rule="evenodd"
                d="M3.89737 118.757C3.89737 118.757 5.8517 123.829 5.95902 126.344C6.06634 128.859 4.45656 131.863 4.45656 131.863C4.45656 131.863 8.86237 130.346 11.2319 130.453C13.6014 130.56 17.9333 132.472 17.9333 132.472C17.9333 132.472 15.2981 128.205 15.0705 125.835C14.843 123.466 16.6506 119.114 16.6506 119.114C16.6506 119.114 12.9346 120.679 10.7992 120.62C8.66383 120.56 3.89737 118.757 3.89737 118.757Z"
                fill="#E94232" />
            <path class="star5" fill-rule="evenodd" clip-rule="evenodd"
                d="M139.921 8.22098C139.921 8.22098 141.876 13.2925 141.983 15.8078C142.09 18.3231 140.48 21.3268 140.48 21.3268C140.48 21.3268 144.886 19.8096 147.256 19.9166C149.625 20.0237 153.957 21.9358 153.957 21.9358C153.957 21.9358 151.322 17.6689 151.094 15.2993C150.867 12.9297 152.675 8.57783 152.675 8.57783C152.675 8.57783 148.959 10.1435 146.823 10.0837C144.688 10.024 139.921 8.22098 139.921 8.22098Z"
                fill="#FBB900" />
            <path class="star6" fill-rule="evenodd" clip-rule="evenodd"
                d="M368.961 91.4579C368.961 91.4579 366.844 96.4637 365.174 98.3476C363.504 100.231 360.259 101.274 360.259 101.274C360.259 101.274 364.482 103.243 366.112 104.966C367.743 106.689 369.53 111.074 369.53 111.074C369.53 111.074 370.599 106.174 372.081 104.311C373.564 102.449 377.887 100.574 377.887 100.574C377.887 100.574 374.126 99.1186 372.632 97.5923C371.137 96.066 368.961 91.4579 368.961 91.4579Z"
                fill="#FBB900" />
            <path class="star7" fill-rule="evenodd" clip-rule="evenodd"
                d="M402.502 177.958C402.502 177.958 407.425 175.654 409.926 175.372C412.428 175.089 415.537 176.486 415.537 176.486C415.537 176.486 413.716 172.197 413.657 169.825C413.599 167.454 415.204 162.999 415.204 162.999C415.204 162.999 411.132 165.926 408.784 166.318C406.436 166.71 401.968 165.211 401.968 165.211C401.968 165.211 403.789 168.809 403.879 170.943C403.968 173.077 402.502 177.958 402.502 177.958Z"
                fill="#00AC47" />
        </g>  

<g class="jump" transform="translate(65,0)">
<path d="M165.864 153.754C165.864 153.754 167.264 148.397 174.873 148.397C182.481 148.397 196.907 165.319 180.533 197.031L179.742 198.248C179.742 198.248 185.403 197.031 185.707 202.996C185.951 208.961 179.62 208.352 178.829 208.352C178.038 208.352 165.499 207.439 169.942 181.327C169.942 181.327 167.508 165.684 167.325 165.258C167.203 164.893 165.864 153.754 165.864 153.754Z" fill="#FFCCE9"/>
<path d="M144.256 193.196L147.604 192.405C152.595 192.648 159.717 190.396 159.717 190.396C160.204 194.231 158.499 210.787 157.465 220.526H163.064C164.099 214.987 165.803 205.796 168.421 191.431C173.595 163.554 168.421 153.754 168.421 153.754C159.047 140.241 145.108 150.71 145.108 150.71C145.108 150.71 138.23 183.092 138.535 191.309C138.717 197.031 137.987 211.943 137.5 220.526H143.465L144.256 193.196Z" fill="#AF2DFD"/>
<path d="M156.612 227.769H161.664C161.664 227.769 162.03 225.76 163.004 220.526H157.404C156.978 224.786 156.612 227.769 156.612 227.769Z" fill="#6D4C41"/>
<path d="M143.282 226.917L143.465 220.587H137.5C137.317 224.36 137.135 226.917 137.135 226.917H143.282Z" fill="#6D4C41"/>
<path d="M156.308 132.275C155.03 127.152 149.795 127.152 149.795 127.152C154.847 124.225 153.873 118.257 153.873 118.257C153.204 114.203 149.491 114.034 149.491 114.034C151.256 110.825 148.882 108.179 148.882 108.179C147.421 106.715 145.535 106.546 144.256 106.659C145.108 102.098 142.369 96.75 142.369 96.75C138.717 90.2191 134.031 95.3424 134.031 95.3424C133.361 91.2325 128.857 89.0368 128.857 89.0368C121.796 87.6856 122.587 94.329 122.587 94.329V97.2567L121.37 97.7634L116.379 95.1735C110.536 96.5248 114.005 101.704 114.005 101.704L113.823 102.661C112.849 101.873 111.996 101.31 111.996 101.31C104.266 104.745 110.901 110.149 110.901 110.149C110.901 110.149 113.275 111.05 115.588 108.404L115.831 108.855L128.674 111.501L139.996 109.249L137.683 114.259L141.822 142.86C141.822 142.86 145.778 150.461 150.221 148.546C154.665 146.632 151.56 142.86 151.56 142.86C158.438 140.045 156.308 132.275 156.308 132.275Z" fill="#FFCCE9"/>
<path d="M117.65 128.157H119.016L119.566 126.141H118.207L118.389 125.462H119.748L120.445 122.837H121.318L120.609 125.462H121.904L122.625 122.837H123.486L122.777 125.462H124.137L123.955 126.141H122.596L122.039 128.157H123.404L123.223 128.837H121.875L121.154 131.444H120.293L121.002 128.837H119.695L118.998 131.444H118.125L118.834 128.837H117.474L117.65 128.157ZM121.166 128.157L121.723 126.141H120.428L119.889 128.157H121.166ZM125.18 122.837H131.15V123.891H126.346V126.505H130.57V127.53H126.346V131.444H125.18V122.837ZM135.639 126.475C136.131 126.475 136.514 126.407 136.787 126.27C137.217 126.055 137.432 125.669 137.432 125.11C137.432 124.547 137.203 124.169 136.746 123.973C136.488 123.864 136.105 123.809 135.598 123.809H133.517V126.475H135.639ZM136.031 130.448C136.746 130.448 137.256 130.241 137.56 129.827C137.752 129.565 137.848 129.249 137.848 128.878C137.848 128.253 137.568 127.827 137.01 127.6C136.713 127.479 136.32 127.419 135.832 127.419H133.517V130.448H136.031ZM132.375 122.837H136.072C137.08 122.837 137.797 123.137 138.223 123.739C138.473 124.094 138.598 124.505 138.598 124.969C138.598 125.512 138.443 125.958 138.135 126.305C137.974 126.489 137.744 126.657 137.443 126.809C137.885 126.977 138.215 127.167 138.433 127.378C138.82 127.753 139.014 128.27 139.014 128.93C139.014 129.485 138.84 129.987 138.492 130.436C137.973 131.108 137.146 131.444 136.014 131.444H132.375V122.837ZM143.642 126.475C144.135 126.475 144.517 126.407 144.791 126.27C145.221 126.055 145.435 125.669 145.435 125.11C145.435 124.547 145.207 124.169 144.75 123.973C144.492 123.864 144.109 123.809 143.601 123.809H141.521V126.475H143.642ZM144.035 130.448C144.75 130.448 145.26 130.241 145.564 129.827C145.756 129.565 145.851 129.249 145.851 128.878C145.851 128.253 145.572 127.827 145.014 127.6C144.717 127.479 144.324 127.419 143.836 127.419H141.521V130.448H144.035ZM140.379 122.837H144.076C145.084 122.837 145.801 123.137 146.226 123.739C146.476 124.094 146.601 124.505 146.601 124.969C146.601 125.512 146.447 125.958 146.139 126.305C145.978 126.489 145.748 126.657 145.447 126.809C145.889 126.977 146.219 127.167 146.437 127.378C146.824 127.753 147.017 128.27 147.017 128.93C147.017 129.485 146.844 129.987 146.496 130.436C145.976 131.108 145.15 131.444 144.017 131.444H140.379V122.837ZM122.016 136.602C123.105 136.602 123.951 136.889 124.553 137.464C125.154 138.038 125.488 138.69 125.555 139.421H124.418C124.289 138.866 124.031 138.426 123.644 138.102C123.262 137.778 122.723 137.616 122.027 137.616C121.18 137.616 120.494 137.915 119.971 138.512C119.451 139.106 119.191 140.018 119.191 141.249C119.191 142.256 119.426 143.075 119.894 143.704C120.367 144.329 121.07 144.641 122.004 144.641C122.863 144.641 123.517 144.311 123.967 143.651C124.205 143.303 124.383 142.846 124.5 142.28H125.637C125.535 143.186 125.199 143.946 124.629 144.559C123.945 145.297 123.023 145.667 121.863 145.667C120.863 145.667 120.023 145.364 119.344 144.758C118.449 143.958 118.002 142.721 118.002 141.049C118.002 139.78 118.338 138.739 119.01 137.926C119.736 137.044 120.738 136.602 122.016 136.602ZM129.392 137.053C130.478 137.053 131.264 137.501 131.748 138.395C132.123 139.087 132.31 140.034 132.31 141.237C132.31 142.378 132.141 143.321 131.801 144.067C131.308 145.137 130.504 145.672 129.387 145.672C128.379 145.672 127.629 145.235 127.137 144.36C126.726 143.63 126.521 142.649 126.521 141.419C126.521 140.465 126.644 139.647 126.891 138.964C127.351 137.69 128.185 137.053 129.392 137.053ZM129.381 144.712C129.928 144.712 130.363 144.469 130.687 143.985C131.012 143.501 131.174 142.598 131.174 141.278C131.174 140.325 131.057 139.542 130.822 138.928C130.588 138.311 130.133 138.003 129.457 138.003C128.836 138.003 128.381 138.296 128.092 138.881C127.807 139.464 127.664 140.323 127.664 141.46C127.664 142.315 127.756 143.003 127.939 143.522C128.221 144.315 128.701 144.712 129.381 144.712ZM136.793 142.473V138.671L134.103 142.473H136.793ZM136.81 145.444V143.393H133.131V142.362L136.974 137.03H137.865V142.473H139.101V143.393H137.865V145.444H136.81Z" fill="black"/>
<path d="M113.396 110.112C113.396 110.112 109.683 107.738 109.318 102.321C109.318 102.321 108.831 100.251 109.318 99.0947C109.805 97.9382 111.57 97.3904 112.605 99.0947C113.579 100.799 116.379 104.634 115.77 107.494C115.162 110.416 113.396 110.112 113.396 110.112Z" fill="#AF2DFD"/>
<path d="M113.396 108.834C113.396 108.712 113.396 108.529 113.396 108.407H101.466V118.877C107.371 118.877 113.396 115.468 113.396 108.834Z" fill="black"/>
<path d="M95.5013 108.407C95.5013 115.042 98.4839 119.059 104.388 119.059C104.388 119.059 101.527 118.39 101.588 118.39L101.527 108.651L95.5013 108.407Z" fill="#99A0A7"/>
<path d="M144.317 107.555H96.4144C95.9883 107.738 95.5622 107.981 95.5013 108.347C95.5013 108.407 95.5013 108.164 95.5013 108.225C95.5013 108.468 95.5013 108.955 95.5013 109.199L144.378 109.138C145.352 109.138 145.352 107.555 144.317 107.555Z" fill="black"/>
<path d="M117.109 122.955C117.048 123.198 116.988 123.503 116.866 123.868C116.927 124.294 116.927 124.72 116.988 125.146C116.927 124.294 116.988 123.503 117.109 122.955Z" fill="#3BB0E5"/>
<path d="M127.989 132.633H124.114L115.116 135.176C114.657 139.35 114.197 144.502 114 150.633C128.908 139.024 127.989 132.633 127.989 132.633Z" fill="#AF2DFD"/>
<path d="M140.909 229.412H146.63C146.995 227.343 147.3 225.273 147.604 223.204H141.213C141.03 226.917 140.909 229.412 140.909 229.412Z" fill="#6D4C41"/>
<path d="M127.944 228.682C127.944 228.682 127.761 226.612 127.396 223.204H121.127C121.492 225.03 121.857 226.856 122.222 228.682H127.944Z" fill="#6D4C41"/>
<path d="M150.769 153.693C150.526 150.406 150.221 147.119 149.917 143.893C149.308 137.989 148.578 132.146 147.3 126.363C146.021 120.642 144.317 114.799 140.665 110.112C139.996 109.26 139.204 108.103 138.352 107.129C135.735 104.086 131.839 103.66 128.066 103.842C126.361 103.903 124.535 104.025 122.77 104.39H122.709C122.587 104.39 122.527 104.451 122.405 104.451C122.283 104.451 122.222 104.512 122.1 104.512C121.674 104.573 121.248 104.695 120.822 104.816C120.761 104.816 120.701 104.877 120.64 104.877C118.996 105.364 117.414 106.095 115.892 106.764C110.901 109.016 106.031 111.633 101.284 114.433C96.9013 117.051 91.7884 119.364 89.9624 124.537C88.6841 128.372 89.2928 132.328 91.6058 135.615C94.7709 140.12 99.336 140.667 104.814 140.363C107.31 139.633 109.805 138.598 111.936 137.198C116.683 134.155 119.057 129.894 120.883 124.72C121.187 123.746 122.77 124.172 122.405 125.146C120.701 130.137 118.327 135.068 113.762 137.989C112.544 138.72 111.327 139.389 110.11 139.998C115.162 139.511 122.405 136.528 126.726 134.52C126.057 137.015 123.44 142.128 114.066 149.554C113.579 166.049 114.796 190.335 121.187 223.326H127.518C126.787 215.535 125.326 200.926 124.109 188.509C131.231 194.292 141.761 192.709 141.761 192.709C142.613 196.97 141.882 213.952 141.335 223.326H147.665C149.187 213.222 150.404 202.631 151.073 192.587C151.865 179.562 151.743 166.597 150.769 153.693Z" fill="#D083FF"/>
<path d="M122.344 125.024C122.709 124.05 121.127 123.624 120.822 124.598C118.996 129.772 116.622 134.094 111.875 137.076C109.683 138.476 107.249 139.511 104.753 140.241C106.397 140.18 108.04 139.998 109.805 139.876C109.866 139.876 109.927 139.876 109.988 139.876C111.266 139.267 112.483 138.598 113.64 137.867C118.327 134.946 120.64 130.016 122.344 125.024Z" fill="black" stroke="black" stroke-width="0.5"/>
<path d="M94.7709 122.59H93.4318C92.3971 122.59 92.3971 124.172 93.4318 124.172H94.7709C95.8057 124.172 95.8057 122.59 94.7709 122.59Z" fill="black"/>
<path d="M103.597 122.59H102.258C101.223 122.59 101.223 124.172 102.258 124.172H103.597C104.571 124.172 104.571 122.59 103.597 122.59Z" fill="black"/>
<path d="M120.153 83.0865L118.448 77.1824C116.988 78.8867 115.222 80.4084 113.336 81.5648L113.883 89.5385C116.44 88.0168 118.631 85.7038 120.153 83.0865Z" fill="#E4594F"/>
<path d="M123.074 93.3732L120.761 85.2169C119.057 87.7734 116.683 89.9037 114.005 91.3646L114.614 100.677C118.083 98.973 120.883 96.4166 123.074 93.3732Z" fill="#E4594F"/>
<path d="M117.901 75.3564L116.075 69.0261C115.04 70 113.883 70.913 112.666 71.7043L113.214 79.7997C114.979 78.5823 116.622 77.0607 117.901 75.3564Z" fill="#E4594F"/>
<path d="M125.144 100.677L123.622 95.26C121.309 98.2425 118.388 100.738 114.735 102.382L115.101 107.738C119.118 106.155 122.466 103.781 125.144 100.677Z" fill="#E4594F"/>
<path d="M115.588 67.3826C115.222 66.4696 114.431 65.0088 113.396 65.4349C111.936 65.9827 112.483 68.7217 112.483 68.7217L112.544 69.9391C113.64 69.1478 114.675 68.2957 115.588 67.3826Z" fill="#E4594F"/>
<path d="M116.075 109.016L121.37 108.407C127.396 108.225 126.239 104.634 126.239 104.634L125.631 102.503C123.013 105.303 119.848 107.494 116.075 109.016Z" fill="#E4594F"/>
<path d="M115.831 68.1131C115.831 68.1131 115.709 67.7479 115.527 67.3218C114.614 68.2348 113.579 69.0869 112.544 69.8174L112.666 71.6434C113.883 70.8521 115.04 69.9391 116.075 68.9652L115.831 68.1131Z" fill="white"/>
<path d="M118.448 77.2432L117.901 75.3563C116.622 77.0606 114.979 78.5823 113.214 79.7997L113.336 81.6257C115.222 80.4083 116.988 78.9475 118.448 77.2432Z" fill="white"/>
<path d="M120.701 85.156L120.092 83.0865C118.57 85.7039 116.379 87.956 113.823 89.5385L113.944 91.3037C116.622 89.8429 118.996 87.7125 120.701 85.156Z" fill="white"/>
<path d="M123.622 95.2601L123.074 93.3732C120.883 96.4166 118.144 98.973 114.614 100.677L114.736 102.382C118.327 100.677 121.248 98.2426 123.622 95.2601Z" fill="white"/>
<path d="M115.04 107.677L115.162 109.077L116.075 108.955C119.788 107.494 123.014 105.242 125.631 102.442L125.083 100.616C122.466 103.781 119.118 106.155 115.04 107.677Z" fill="white"/>
<path d="M134.883 108.834C134.883 108.712 134.883 108.529 134.883 108.407H125.874V118.998C131.778 118.998 134.883 115.468 134.883 108.834Z" fill="black"/>
<path d="M116.927 108.407C116.927 115.042 120.031 119.059 125.874 119.059V119.059V108.407H116.927Z" fill="#99A0A7"/>
<path d="M144.317 107.555H96.2318C95.197 107.555 95.197 109.138 96.2318 109.138H144.317C145.352 109.138 145.352 107.555 144.317 107.555Z" fill="black"/>
<path d="M136.1 110.112C136.1 110.112 140.482 101.529 141.943 99.886C143.404 98.1817 145.961 94.6514 145.169 101.895C145.169 101.895 144.074 109.929 139.874 113.399L136.1 110.112Z" fill="#AF2DFD"/>
<path d="M228.132 154.849C228.132 154.849 225.088 157.467 223.871 159.293C222.654 161.119 220.523 167.814 220.036 170.979C219.61 173.962 220.584 175.179 221.68 175.058L231.54 155.154L228.132 154.849Z" fill="#6D4C41"/>
<path d="M223.688 172.927L232.088 156.067C232.271 155.702 232.027 155.215 231.601 155.215V155.215L221.741 175.118C221.802 175.118 221.862 175.118 221.984 175.058C222.836 174.753 223.688 172.927 223.688 172.927Z" fill="#424242"/>
<path d="M250.47 78.0345C250.47 78.0345 264.47 57.9482 263.983 12.4192C263.983 12.4192 263.131 7.91501 259.174 7.67154C255.218 7.42806 254.244 11.7497 254.244 11.7497C254.244 11.7497 252.722 44.1921 242.436 62.2089C232.21 80.2258 247.001 82.8431 250.47 78.0345Z" fill="#34A853"/>
<mask id="mask0" mask-type="alpha" maskUnits="userSpaceOnUse" x="238" y="7" width="26" height="74">
<path d="M250.47 78.0345C250.47 78.0345 264.47 57.9482 263.983 12.4192C263.983 12.4192 263.131 7.91501 259.174 7.67154C255.218 7.42806 254.244 11.7497 254.244 11.7497C254.244 11.7497 252.722 44.1921 242.436 62.2089C232.21 80.2258 247.001 82.8431 250.47 78.0345Z" fill="white"/>
</mask>
<g mask="url(#mask0)">
<path d="M250.775 29.5838C251.505 26.7231 252.053 23.984 252.418 21.0624C253.27 14.9756 253.94 8.88884 254.062 2.74121C257.348 3.34989 262.461 4.50637 265.809 5.29765C266.783 14.3669 266.174 23.4971 266.235 32.6272L266.174 33.4185L250.775 30.0099C250.775 30.0099 250.775 29.949 250.714 29.8273C250.775 29.7056 250.775 29.6447 250.775 29.5838Z" fill="#8D6E63"/>
<path d="M251.627 25.9927C254.853 26.4187 258.018 26.784 261.244 27.1492C262.948 27.3318 264.592 27.5752 266.296 27.7578C266.296 29.4013 266.235 30.9838 266.235 32.6272L266.174 33.4185L250.775 30.0099C250.775 30.0099 250.775 29.9491 250.714 29.8273C250.714 29.7665 250.775 29.7056 250.775 29.6447C251.079 28.3665 251.383 27.21 251.627 25.9927Z" fill="#126B26"/>
</g>
<path d="M219.245 79.9823C219.245 79.9823 201.654 62.9394 193.559 18.1408C193.559 18.1408 193.559 13.5757 197.394 12.541C201.228 11.5062 202.994 15.5844 202.994 15.5844C202.994 15.5844 210.602 47.1138 224.115 62.9394C237.627 78.765 223.567 83.9996 219.245 79.9823Z" fill="#34A853"/>
<mask id="mask1" mask-type="alpha" maskUnits="userSpaceOnUse" x="193" y="12" width="37" height="70">
<path d="M219.245 79.9823C219.245 79.9823 201.654 62.9394 193.559 18.1408C193.559 18.1408 193.559 13.5757 197.394 12.541C201.228 11.5062 202.994 15.5844 202.994 15.5844C202.994 15.5844 210.602 47.1138 224.115 62.9394C237.627 78.765 223.567 83.9996 219.245 79.9823Z" fill="white"/>
</mask>
<g mask="url(#mask1)">
<path d="M209.75 32.4447C208.472 29.8274 207.437 27.1492 206.524 24.4102C204.576 18.6277 202.75 12.7236 201.411 6.75854C198.307 7.9759 193.498 10.0454 190.394 11.5062C191.185 20.5755 193.437 29.4622 195.142 38.4097L195.385 39.201L209.811 32.9316C209.811 32.9316 209.811 32.8708 209.872 32.6882C209.811 32.5664 209.811 32.5056 209.75 32.4447Z" fill="#8D6E63"/>
<path d="M208.289 29.0969C205.246 30.1317 202.141 31.1056 199.037 32.0794C197.455 32.5664 195.811 33.1142 194.168 33.6011C194.472 35.1837 194.837 36.7662 195.142 38.3488L195.385 39.1401L209.811 32.8707C209.811 32.8707 209.811 32.8099 209.872 32.6272C209.872 32.5664 209.811 32.5055 209.811 32.4446C209.202 31.349 208.715 30.2534 208.289 29.0969Z" fill="#126B26"/>
</g>
<path d="M231.358 59.7134C234.34 59.9568 237.201 58.8612 239.575 57.0352C239.94 56.7917 240.245 56.4874 240.549 56.183C237.992 54.7222 231.48 52.8962 226.002 57.2787C227.28 58.7395 229.471 59.5308 231.358 59.7134Z" fill="#34A853"/>
<path d="M220.402 48.8181C220.402 48.8181 219.854 47.9051 219.184 48.4529C218.15 49.3659 219.367 53.7484 220.889 54.2962C222.045 54.7222 222.41 53.931 222.654 53.6266C222.897 53.2005 220.402 48.8181 220.402 48.8181Z" fill="#6D4C41"/>
<path d="M242.923 46.1399C242.923 46.1399 243.714 45.4703 244.384 46.1399C245.54 47.2355 244.566 52.2266 242.801 52.7136C241.462 53.0788 240.427 52.5918 240.184 52.2266C240.001 51.7397 242.923 46.1399 242.923 46.1399Z" fill="#6D4C41"/>
<path d="M252.418 74.8694C250.47 67.6261 246.636 62.3915 243.957 59.3481C242.74 60.5046 241.401 61.4785 239.879 62.2089C240.914 64.2784 241.218 66.774 240.488 69.0261C239.453 72.0695 236.775 74.4433 233.488 74.3825C228.254 74.3216 225.21 68.174 226.245 63.3654C224.906 62.8785 223.628 62.1481 222.654 61.1133L222.593 61.235C222.593 61.2959 222.532 61.2959 222.532 61.3568C222.471 61.4176 222.41 61.5394 222.349 61.6002C222.228 61.7829 222.106 61.9655 222.045 62.1481C221.923 62.3307 221.863 62.5133 221.741 62.6959C221.619 62.8785 221.558 63.0611 221.436 63.2437C221.315 63.4263 221.254 63.6089 221.132 63.7915C221.01 63.9741 220.949 64.1567 220.828 64.4002C220.767 64.5828 220.645 64.7654 220.584 65.0088C220.523 65.1914 220.402 65.374 220.341 65.6175C220.28 65.8001 220.158 65.9827 220.097 66.2262C220.036 66.4088 219.915 66.5914 219.854 66.8349C219.793 67.0175 219.732 67.2001 219.61 67.4435C219.55 67.6261 219.489 67.8087 219.428 68.0522C219.367 68.2348 219.306 68.4174 219.245 68.6609C219.184 68.8435 219.123 69.0261 219.063 69.2696C219.002 69.4522 218.941 69.6348 218.88 69.8782C218.819 70.0608 218.758 70.2435 218.697 70.4869C218.637 70.6695 218.576 70.8521 218.576 71.0956C218.515 71.2782 218.454 71.4608 218.454 71.7043C218.393 71.8869 218.393 72.0695 218.332 72.313C218.271 72.4956 218.271 72.6782 218.21 72.8608C218.15 73.0434 218.15 73.226 218.089 73.4086C218.028 73.5912 218.028 73.7738 217.967 73.9564C217.906 74.139 217.906 74.3216 217.845 74.5042C217.784 74.6868 217.784 74.8694 217.784 75.052C217.784 75.2346 217.724 75.4172 217.724 75.5998C217.724 75.7824 217.663 75.965 217.663 76.1476C217.663 76.3302 217.602 76.5128 217.602 76.6954C217.602 76.878 217.541 77.0606 217.541 77.2432C217.541 77.4258 217.48 77.6084 217.48 77.7302C217.48 77.9128 217.419 78.0954 217.419 78.2171C217.419 78.3997 217.419 78.5215 217.358 78.7041C217.358 78.8867 217.358 79.0084 217.297 79.191C217.297 79.3736 217.297 79.4953 217.237 79.6779C217.237 79.8605 217.237 79.9823 217.237 80.1649C217.237 80.2866 217.237 80.4692 217.237 80.591C217.237 80.7127 217.237 80.8953 217.237 81.017C217.237 81.1388 217.237 81.3214 217.237 81.4431C217.237 81.5648 217.237 81.6866 217.237 81.8692C217.237 81.9909 217.237 82.1126 217.237 82.2344C217.237 82.3561 217.237 82.4778 217.237 82.5996C217.237 82.7213 217.237 82.8431 217.237 82.9648C217.237 83.0865 217.237 83.2083 217.237 83.33C217.237 83.4517 217.237 83.5735 217.237 83.6343C217.237 83.7561 217.237 83.8169 217.237 83.9387C217.237 84.0604 217.237 84.1213 217.237 84.243C217.237 84.3039 217.237 84.4256 217.237 84.4865C217.237 84.5473 217.237 84.6691 217.237 84.7299C217.237 84.7908 217.237 84.8517 217.237 84.9734C217.237 85.0343 217.237 85.0952 217.237 85.156C217.237 85.2169 217.237 85.2778 217.237 85.3386C217.237 85.3995 217.237 85.4604 217.237 85.5212C217.237 85.5821 217.237 85.5821 217.237 85.643C217.237 85.7038 217.237 85.7038 217.237 85.7647V85.8256V85.8864C217.237 85.8864 217.237 85.8864 217.237 85.9473V85.9473L222.045 113.033L252.601 109.077L252.418 74.8694Z" fill="#34A853"/>
<mask id="mask2" mask-type="alpha" maskUnits="userSpaceOnUse" x="217" y="59" width="36" height="55">
<path d="M252.418 74.8694C250.47 67.6261 246.636 62.3915 243.957 59.3481C242.74 60.5046 241.401 61.4785 239.879 62.2089C240.914 64.2784 241.218 66.774 240.488 69.0261C239.453 72.0695 236.775 74.4433 233.488 74.3825C228.254 74.3216 225.21 68.174 226.245 63.3654C224.906 62.8785 223.628 62.1481 222.654 61.1133L222.593 61.235C222.593 61.2959 222.532 61.2959 222.532 61.3568C222.471 61.4176 222.41 61.5394 222.349 61.6002C222.228 61.7829 222.106 61.9655 222.045 62.1481C221.923 62.3307 221.863 62.5133 221.741 62.6959C221.619 62.8785 221.558 63.0611 221.436 63.2437C221.315 63.4263 221.254 63.6089 221.132 63.7915C221.01 63.9741 220.949 64.1567 220.828 64.4002C220.767 64.5828 220.645 64.7654 220.584 65.0088C220.523 65.1914 220.402 65.374 220.341 65.6175C220.28 65.8001 220.158 65.9827 220.097 66.2262C220.036 66.4088 219.915 66.5914 219.854 66.8349C219.793 67.0175 219.732 67.2001 219.61 67.4435C219.55 67.6261 219.489 67.8087 219.428 68.0522C219.367 68.2348 219.306 68.4174 219.245 68.6609C219.184 68.8435 219.123 69.0261 219.063 69.2696C219.002 69.4522 218.941 69.6348 218.88 69.8782C218.819 70.0608 218.758 70.2435 218.697 70.4869C218.637 70.6695 218.576 70.8521 218.576 71.0956C218.515 71.2782 218.454 71.4608 218.454 71.7043C218.393 71.8869 218.393 72.0695 218.332 72.313C218.271 72.4956 218.271 72.6782 218.21 72.8608C218.15 73.0434 218.15 73.226 218.089 73.4086C218.028 73.5912 218.028 73.7738 217.967 73.9564C217.906 74.139 217.906 74.3216 217.845 74.5042C217.784 74.6868 217.784 74.8694 217.784 75.052C217.784 75.2346 217.724 75.4172 217.724 75.5998C217.724 75.7824 217.663 75.965 217.663 76.1476C217.663 76.3302 217.602 76.5128 217.602 76.6954C217.602 76.878 217.541 77.0606 217.541 77.2432C217.541 77.4258 217.48 77.6084 217.48 77.7302C217.48 77.9128 217.419 78.0954 217.419 78.2171C217.419 78.3997 217.419 78.5215 217.358 78.7041C217.358 78.8867 217.358 79.0084 217.297 79.191C217.297 79.3736 217.297 79.4953 217.237 79.6779C217.237 79.8605 217.237 79.9823 217.237 80.1649C217.237 80.2866 217.237 80.4692 217.237 80.591C217.237 80.7127 217.237 80.8953 217.237 81.017C217.237 81.1388 217.237 81.3214 217.237 81.4431C217.237 81.5648 217.237 81.6866 217.237 81.8692C217.237 81.9909 217.237 82.1126 217.237 82.2344C217.237 82.3561 217.237 82.4778 217.237 82.5996C217.237 82.7213 217.237 82.8431 217.237 82.9648C217.237 83.0865 217.237 83.2083 217.237 83.33C217.237 83.4517 217.237 83.5735 217.237 83.6343C217.237 83.7561 217.237 83.8169 217.237 83.9387C217.237 84.0604 217.237 84.1213 217.237 84.243C217.237 84.3039 217.237 84.4256 217.237 84.4865C217.237 84.5473 217.237 84.6691 217.237 84.7299C217.237 84.7908 217.237 84.8517 217.237 84.9734C217.237 85.0343 217.237 85.0952 217.237 85.156C217.237 85.2169 217.237 85.2778 217.237 85.3386C217.237 85.3995 217.237 85.4604 217.237 85.5212C217.237 85.5821 217.237 85.5821 217.237 85.643C217.237 85.7038 217.237 85.7038 217.237 85.7647V85.8256V85.8864C217.237 85.8864 217.237 85.8864 217.237 85.9473V85.9473L222.045 113.033L252.601 109.077L252.418 74.8694Z" fill="white"/>
</mask>
<g mask="url(#mask2)">
<path d="M219.915 108.894L253.879 105.303L254.061 110.294C254.061 110.294 235.679 113.459 235.132 113.459C234.645 113.459 221.376 113.886 221.376 113.886L219.915 108.894Z" fill="#126B26"/>
</g>
<path d="M233.488 74.3825C236.775 74.3825 239.514 72.0695 240.488 69.0262C241.218 66.7741 240.975 64.2785 239.879 62.209C238.54 62.8785 237.079 63.4263 235.558 63.7307C232.575 64.4002 229.045 64.4611 226.184 63.3655C225.21 68.174 228.193 74.3825 233.488 74.3825Z" fill="#126B26"/>
<path d="M238.662 64.3393C238.54 63.4871 238.358 62.635 238.175 61.722C237.384 60.3829 236.106 59.4698 234.523 59.4698C232.393 59.5307 229.897 59.7742 228.801 61.9654C227.28 64.9479 228.801 70.913 232.088 71.6434C234.949 72.3129 238.479 69.8782 239.027 66.3479C238.845 65.7392 238.784 65.0088 238.662 64.3393Z" fill="#8D6E63"/>
<path d="M221.254 36.7054C221.254 36.7054 220.219 37.1923 219.976 41.2705C219.732 45.3486 220.158 49.7311 220.463 52.044C220.828 54.357 221.254 59.0438 223.567 60.6264C225.88 62.2089 226.975 62.9393 230.384 63.2437C233.793 63.6089 237.932 62.0263 239.149 61.1133C240.366 60.2003 243.653 56.7917 243.166 51.131C242.679 45.4703 242.618 41.0879 241.644 38.6532C240.61 36.2184 237.749 35.062 234.706 34.6359C231.662 34.2098 226.123 33.5403 221.254 36.7054Z" fill="#8D6E63"/>
<path d="M220.28 48.5746C219.732 49.0615 219.002 45.7747 218.941 45.4704C218.515 42.9139 218.637 40.114 218.941 37.5576C219.002 37.0706 219.063 36.5837 219.245 36.1576C219.489 35.6098 219.976 35.2446 220.402 34.8794C222.289 33.4794 224.48 32.0186 226.732 31.3491C230.688 30.1926 234.706 30.923 238.419 32.3229C239.94 32.8708 240.914 33.7838 241.888 35.1229C243.41 37.1924 244.262 39.7488 244.323 42.3661C244.323 42.8531 243.836 48.2094 242.984 47.8442C242.862 47.7833 242.801 47.0529 242.801 46.9312C242.679 46.2616 242.558 45.5921 242.497 44.9226C242.253 43.34 242.01 41.6966 241.827 40.0531C241.705 39.0184 240.549 38.3488 239.697 37.801C238.54 37.0706 237.262 36.5837 235.984 36.2793C233.61 35.6707 231.114 35.3663 228.68 35.7924C226.306 36.2793 224.054 37.1315 222.228 38.7749C221.619 39.3836 221.193 40.114 220.828 40.9053C220.463 41.6966 220.523 42.7313 220.523 43.6443C220.463 44.253 220.341 48.5746 220.28 48.5746Z" fill="#372E2E"/>
<path d="M223.567 43.4008C223.506 43.4008 223.384 43.3399 223.323 43.279C223.141 43.1573 223.141 42.9138 223.323 42.7312C223.506 42.5486 224.967 40.9052 226.245 41.0269C226.671 41.0878 226.975 41.2704 227.219 41.6356C227.341 41.8182 227.28 42.0617 227.097 42.1834C226.915 42.3052 226.671 42.2443 226.549 42.0617C226.428 41.8791 226.306 41.8182 226.123 41.8182C225.454 41.7574 224.419 42.6704 223.871 43.279C223.749 43.4008 223.689 43.4008 223.567 43.4008Z" fill="#263238"/>
<path d="M238.419 42.2443C238.297 42.2443 238.175 42.1835 238.114 42.0617C236.714 40.114 235.132 41.0878 235.01 41.2096C234.827 41.3313 234.584 41.2704 234.462 41.0878C234.34 40.9052 234.401 40.6618 234.584 40.54C234.584 40.54 236.836 39.0183 238.784 41.5748C238.905 41.7574 238.845 42.0009 238.723 42.1226C238.54 42.2443 238.479 42.2443 238.419 42.2443Z" fill="#263238"/>
<path d="M223.871 47.2355C223.81 47.2355 223.749 47.2355 223.628 47.1746C223.445 47.0529 223.384 46.8094 223.506 46.6268C223.567 46.5659 224.48 45.2268 225.819 45.1051C226.488 45.0442 227.158 45.3486 227.706 45.8964C227.828 46.0181 227.828 46.2616 227.706 46.4442C227.584 46.5659 227.341 46.5659 227.158 46.4442C226.732 46.0181 226.306 45.8355 225.88 45.8355C225.089 45.8964 224.358 46.7485 224.115 47.0529C224.115 47.1746 223.993 47.2355 223.871 47.2355Z" fill="#263238"/>
<path d="M238.601 45.8356C238.54 45.8356 238.479 45.8356 238.418 45.7747C236.106 44.3139 235.314 45.4704 235.314 45.4704C235.193 45.653 234.949 45.7139 234.766 45.5921C234.584 45.4704 234.523 45.2269 234.645 45.0443C234.645 45.0443 235.923 43.2183 238.845 45.1052C239.027 45.2269 239.088 45.4704 238.966 45.653C238.845 45.7747 238.723 45.8356 238.601 45.8356Z" fill="#263238"/>
<path d="M230.627 50.1572C230.506 50.1572 230.323 50.0963 230.262 49.9746C230.201 49.8528 230.201 49.6702 230.323 49.5485C230.445 49.3659 230.81 48.0268 231.114 46.9312C231.175 46.7486 231.358 46.6268 231.601 46.6877C231.784 46.7486 231.906 46.9312 231.845 47.1746C231.54 48.3311 231.358 49.0007 231.175 49.4268C231.662 49.3659 232.271 49.305 232.514 49.3659C232.697 49.4268 232.88 49.6094 232.819 49.792C232.758 49.9746 232.575 50.0963 232.393 50.0963C232.21 49.9746 231.358 50.0963 230.627 50.1572C230.688 50.1572 230.627 50.1572 230.627 50.1572Z" fill="#6D4C41"/>
<path d="M224.723 53.8092C224.784 53.6874 224.845 53.6266 224.967 53.5048C225.271 53.2614 225.636 53.1396 226.001 53.0179C226.61 52.8353 227.28 52.7744 227.888 52.6527C229.167 52.4701 230.445 52.2875 231.723 52.2266C232.453 52.1657 233.123 52.1657 233.853 52.1049C235.375 51.9831 236.958 51.9223 238.479 51.8005C238.601 51.8005 238.784 51.8005 238.905 51.9223C238.966 51.9831 238.966 52.1049 238.905 52.1657C238.784 52.8962 238.236 53.5048 237.688 53.9309C235.923 55.3309 233.732 55.8787 231.54 56.0004C230.019 56.0613 228.314 56.0613 226.793 55.5743C226.306 55.3917 225.88 55.2091 225.454 54.9048C225.088 54.7222 224.48 54.2352 224.723 53.8092Z" fill="#4E342E"/>
<path d="M233.732 52.5919C233.062 52.6527 232.453 52.6527 231.784 52.7136C230.627 52.7745 229.471 52.8962 228.254 53.0179C227.706 53.0788 227.097 53.1397 226.549 53.2614C226.428 53.3223 226.245 53.3223 226.123 53.3831C226.488 53.9918 226.793 54.6005 227.036 55.2092C227.097 55.2092 227.219 55.27 227.28 55.27C228.619 55.6352 230.14 55.6352 231.54 55.5744C233.488 55.4526 235.497 55.0266 237.079 53.9918C237.079 53.6266 237.079 53.3223 237.14 53.0788C237.201 52.8353 237.201 52.5919 237.262 52.3484C236.106 52.4701 234.888 52.531 233.732 52.5919Z" fill="white"/>
<path d="M226.245 54.6005H227.828L227.949 55.0874L226.61 55.3917L226.245 54.6005Z" fill="#4E342E"/>
<path d="M237.566 52.957C237.506 52.957 235.497 53.5657 235.497 53.5657L235.679 53.9918L237.445 53.8092L237.566 52.957Z" fill="#4E342E"/>
<path d="M222.593 61.1133L222.532 61.2351Z" fill="#34A853"/>
<path d="M234.584 60.8699L237.871 64.948L237.992 65.3741L234.523 69.2696L228.497 66.6523L227.645 61.4177L234.584 60.8699Z" fill="#8D6E63"/>
<path d="M242.436 218.274L244.81 210.056L236.775 205.552L235.193 213.404C237.505 215.169 239.94 216.752 242.436 218.274Z" fill="#78909C"/>
<path d="M234.219 218.395L241.584 221.378L242.497 218.274C240.001 216.752 237.566 215.169 235.253 213.404L234.219 218.395Z" fill="#126B26"/>
<path d="M246.21 223.265L241.523 221.378L234.158 218.395V218.395L233.61 220.952L249.496 227.465C249.253 225.578 247.975 223.995 246.21 223.265Z" fill="#6D4C41"/>
<path d="M249.618 228.134C249.618 227.891 249.557 227.708 249.557 227.525L233.671 221.013L233.549 221.621L249.618 228.134Z" fill="#424242"/>
<path d="M252.54 108.955L221.984 112.912C221.984 112.912 196.907 149.737 196.846 149.798C194.594 153.084 194.107 158.441 196.785 161.545C200.741 166.11 207.802 164.588 212.915 163.493C215.045 163.067 217.115 162.58 219.245 162.093C223.019 157.771 219.915 154.971 218.332 153.937L209.385 153.084L230.871 125.755L237.566 125.998L245.053 164.162L236.714 205.552L244.749 210.056L257.287 166.719L252.54 108.955Z" fill="#012754"/>
<path d="M219.306 162.093C220.219 161.91 221.071 161.667 221.984 161.484C223.323 160.023 224.236 158.197 223.932 156.189C223.81 155.519 223.567 154.971 223.262 154.424L218.393 153.997C219.976 154.971 223.08 157.771 219.306 162.093Z" fill="#78909C"/>
<path d="M228.132 154.85L223.262 154.423C223.628 154.971 223.871 155.519 223.932 156.189C224.236 158.197 223.262 160.023 221.984 161.484C223.019 161.241 224.054 160.997 225.089 160.815C225.089 160.815 227.28 158.441 228.132 154.85Z" fill="#126B26"/>
<path d="M254.122 14.1843C254.062 14.9756 254.001 15.8886 253.879 16.9842L263.983 17.7755C263.983 16.8625 263.983 15.8886 263.983 14.9147L254.122 14.1843Z" fill="#FABB05"/>
<path d="M202.933 15.7061C204.698 14.5496 207.254 11.5062 207.133 10.6541C207.011 9.80193 205.367 5.60206 204.82 5.17599C204.272 4.68905 203.602 5.23686 203.602 5.23686C203.602 5.23686 203.054 3.71516 201.654 3.95864C200.194 4.14124 200.011 5.41946 200.011 5.41946C200.011 5.41946 199.159 4.50644 198.185 4.87165C197.211 5.23686 197.15 6.39334 197.15 6.39334C197.15 6.39334 196.42 5.60206 195.568 6.02814C194.716 6.39334 194.655 7.30636 194.655 7.30636C194.655 7.30636 193.62 6.39334 192.585 7.67156C191.246 9.37586 192.403 11.4454 192.463 12.4801C192.524 13.5149 193.072 16.4365 193.559 18.0799C193.498 18.1408 199.281 18.0799 202.933 15.7061Z" fill="#8D6E63"/>
<path d="M196.42 12.6628C196.298 12.6628 196.176 12.6019 196.116 12.4802C195.689 11.5063 195.324 10.5324 195.142 9.25417C195.081 9.07157 195.263 8.88897 195.446 8.8281C195.629 8.76723 195.811 8.94984 195.811 9.13244C196.055 10.3498 196.359 11.2628 196.785 12.2367C196.846 12.4193 196.785 12.6019 196.602 12.6628C196.481 12.6628 196.42 12.6628 196.42 12.6628Z" fill="#6D4C41"/>
<path d="M199.22 11.1411C199.098 11.1411 198.976 11.0802 198.915 10.8976C198.489 9.80196 198.124 8.76721 197.881 7.36726C197.82 7.18465 198.002 7.00205 198.185 7.00205C198.368 6.94118 198.55 7.12379 198.55 7.30639C198.794 8.64548 199.159 9.68023 199.585 10.715C199.646 10.8976 199.585 11.0802 199.402 11.1411C199.281 11.1411 199.22 11.1411 199.22 11.1411Z" fill="#6D4C41"/>
<path d="M200.254 15.5843C200.133 15.5843 200.011 15.5234 199.95 15.4017C199.889 15.3408 199.098 13.5757 200.072 11.7497C200.559 10.8366 201.472 9.98449 202.202 9.49755C200.741 9.31495 199.768 8.4628 199.281 7.67152C198.915 7.06284 199.037 6.81937 199.098 6.75851C199.159 6.63677 199.341 6.3933 202.202 5.23681C202.385 5.17595 202.567 5.23681 202.628 5.41942C202.689 5.60202 202.628 5.78462 202.446 5.84549C201.35 6.27156 200.133 6.81937 199.707 7.06284C199.889 7.54978 200.985 8.94974 203.176 8.76714C203.359 8.76714 203.48 8.82801 203.541 9.01061C203.602 9.13234 203.541 9.31495 203.42 9.43668C203.42 9.43668 201.411 10.654 200.681 12.054C199.889 13.5148 200.559 15.0365 200.62 15.0974C200.681 15.28 200.62 15.4626 200.437 15.5234C200.315 15.5843 200.254 15.5843 200.254 15.5843Z" fill="#6D4C41"/>
<path d="M254.305 11.8105C252.357 10.9584 249.375 8.34108 249.375 7.48893C249.375 6.63678 250.349 2.25431 250.775 1.7065C251.201 1.15869 251.992 1.58477 251.992 1.58477C251.992 1.58477 252.296 0.00220876 253.696 0.00220876C255.157 -0.0586589 255.522 1.15869 255.522 1.15869C255.522 1.15869 256.192 0.123944 257.227 0.367415C258.261 0.610885 258.505 1.7065 258.505 1.7065C258.505 1.7065 259.114 0.793488 259.966 1.09783C260.879 1.3413 261.061 2.25431 261.061 2.25431C261.061 2.25431 261.974 1.15869 263.192 2.31518C264.774 3.776 263.983 6.02811 264.105 7.06286C264.226 8.09761 264.105 11.0801 263.861 12.7844C263.983 12.7235 258.322 13.5757 254.305 11.8105Z" fill="#8D6E63"/>
<path d="M260.209 7.79331H260.148C259.966 7.73244 259.844 7.54984 259.905 7.36724C260.148 6.33249 260.331 5.41947 260.331 4.20212C260.331 4.01952 260.513 3.89778 260.696 3.83691C260.879 3.83691 261.061 4.01952 261.061 4.20212C261.061 5.48034 260.818 6.45422 260.574 7.54984C260.513 7.67158 260.392 7.79331 260.209 7.79331Z" fill="#6D4C41"/>
<path d="M257.227 6.75849H257.166C256.983 6.69762 256.861 6.51502 256.922 6.33242C257.166 5.2368 257.348 4.14118 257.409 2.8021C257.409 2.61949 257.592 2.43689 257.774 2.43689V2.43689C257.957 2.43689 258.14 2.61949 258.14 2.8021C258.14 4.26292 257.896 5.29767 257.653 6.45415C257.531 6.63676 257.409 6.75849 257.227 6.75849Z" fill="#6D4C41"/>
<path d="M256.922 11.2627C256.861 11.2627 256.861 11.2627 256.801 11.2627C256.618 11.2019 256.496 11.0193 256.557 10.8367C256.557 10.8367 257.044 9.19324 256.009 7.85416C255.035 6.57594 252.905 5.72379 252.905 5.72379C252.783 5.66292 252.662 5.48032 252.722 5.35858C252.722 5.17598 252.905 5.05424 253.027 5.05424C255.218 4.93251 256.07 3.28908 256.192 2.80214C255.827 2.68041 254.488 2.3152 253.331 2.07173C253.149 2.01086 253.027 1.82826 253.088 1.64566C253.149 1.46305 253.331 1.34132 253.514 1.40219C256.557 2.07173 256.74 2.3152 256.861 2.37607C256.922 2.43694 257.105 2.61954 256.801 3.28908C256.435 4.14123 255.583 5.11511 254.183 5.54119C254.975 5.96726 256.009 6.6368 256.618 7.42808C257.835 9.07151 257.288 10.9584 257.288 11.0193C257.166 11.141 257.044 11.2627 256.922 11.2627Z" fill="#6D4C41"/>
<path d="M57.8242 136.772L62.2067 142.372C62.8762 143.224 63.911 143.589 64.9457 143.467V143.467V143.467L58.9807 135.859L57.8242 136.772Z" fill="#FFAB91"/>
<path d="M62.085 141.033C62.4502 141.459 62.3893 141.946 62.1459 142.311L62.2067 142.433C62.8763 143.285 63.911 143.65 64.9458 143.528V143.528L58.9807 135.92L58.3721 136.407L62.085 141.033Z" fill="#6D4C41"/>
<path d="M29.8251 46.3834L27.7556 56.4874L51.1897 61.2351L53.3809 51.1919C53.3809 51.1919 53.3809 41.6966 43.6421 39.5662C43.5812 39.5053 35.6075 37.0706 29.8251 46.3834Z" fill="#6E4420"/>
<path d="M51.0679 57.2786V57.2786C50.0332 57.0351 48.9984 57.7656 48.755 58.8003L48.4506 60.2611C48.2071 61.2959 48.9376 62.3306 49.9723 62.5741V62.5741C51.0071 62.8176 52.0418 62.0872 52.2853 61.0524L52.5896 59.5916C52.7722 58.5568 52.1027 57.5221 51.0679 57.2786Z" fill="#FF7043"/>
<path d="M29.7034 52.4092V52.4092C28.6687 52.1658 27.6339 52.8962 27.3905 53.9309L27.0861 55.3917C26.8426 56.4265 27.5731 57.4612 28.6078 57.7047V57.7047C29.6426 57.9482 30.6773 57.2178 30.9208 56.183L31.2251 54.7222C31.4077 53.6875 30.7382 52.6527 29.7034 52.4092Z" fill="#FF7043"/>
<path d="M12.1127 58.5568C10.9562 58.5568 9.79969 57.8873 9.25188 56.7917C6.2085 50.5223 3.83466 43.2182 2.92165 37.1923C2.67818 35.4271 3.89553 33.8446 5.59982 33.6011C7.36499 33.3576 8.94754 34.575 9.19101 36.2793C9.98229 41.6356 12.1735 48.3919 14.9126 53.9918C15.7039 55.5743 15.0343 57.4612 13.4517 58.2525C13.0865 58.496 12.5996 58.5568 12.1127 58.5568Z" fill="#FFAB91"/>
<path d="M25.3209 95.1992C26.0513 95.1992 26.1122 94.0427 25.3209 94.0427C24.5905 93.9819 24.5905 95.1992 25.3209 95.1992V95.1992Z" fill="#4E342E"/>
<path d="M29.9469 55.8178C29.9469 55.8178 29.8252 54.2961 30.1295 53.0179C30.4338 51.7397 30.1295 53.0179 30.1295 53.0179C30.1295 53.0179 30.2512 52.1049 31.1034 52.2266C31.9555 52.3484 31.1034 52.2266 31.1034 52.2266" fill="#8C6E63"/>
<path d="M44.9812 75.478C47.5376 76.2693 48.6333 77.3649 48.6333 77.3649L48.5724 77.4867L44.9812 75.478Z" fill="#4285F4"/>
<path d="M42.1813 74.5042L35.9119 80.4692L32.0773 72.7999L31.4077 72.8608L27.147 79.4954L33.7207 80.6519L32.4425 88.2603L34.512 88.5646L36.7641 88.9907L38.0423 81.3823L44.6769 82.4779L42.9726 74.8086L42.1813 74.5042Z" fill="#4FC2F6"/>
<path d="M35.6076 83.7561C36.1118 83.7561 36.5206 83.3473 36.5206 82.8431C36.5206 82.3388 36.1118 81.9301 35.6076 81.9301C35.1034 81.9301 34.6946 82.3388 34.6946 82.8431C34.6946 83.3473 35.1034 83.7561 35.6076 83.7561Z" fill="#4285F4"/>
<path d="M34.999 87.2256C35.5032 87.2256 35.912 86.8168 35.912 86.3126C35.912 85.8083 35.5032 85.3995 34.999 85.3995C34.4947 85.3995 34.0859 85.8083 34.0859 86.3126C34.0859 86.8168 34.4947 87.2256 34.999 87.2256Z" fill="#4285F4"/>
<path d="M42.8508 39.6879V39.6879C37.0075 38.714 31.4686 42.6095 30.4947 48.5137L29.0948 56.7308C28.1209 62.5741 32.0164 68.1131 37.9206 69.087V69.087C43.7639 70.0608 49.3028 66.1653 50.2767 60.2612L51.6767 52.044C52.6505 46.2616 48.6941 40.6618 42.8508 39.6879Z" fill="#FB8C00"/>
<path d="M32.1989 52.4701C32.1989 52.4701 30.9816 54.4787 29.886 55.8178C29.886 55.8178 29.8251 59.1047 32.5033 59.2873L35.6684 59.8351C35.6684 59.8351 37.3727 60.2003 37.7988 58.496C37.7988 58.496 38.3466 57.1569 38.3466 56.3048C38.3466 56.3048 38.8944 53.6874 36.0336 53.2005L32.1989 52.4701Z" fill="#FFA626"/>
<path d="M42.9117 61.0525C42.9117 61.0525 41.2683 60.9308 41.3292 59.1047C41.39 57.2787 41.3292 59.1047 41.3292 59.1047C41.3292 59.1047 41.3292 57.5222 41.5726 56.8526C41.8161 56.1831 41.5726 56.8526 41.5726 56.8526C41.5726 56.8526 41.877 54.4179 44.7378 54.6614C47.5985 54.9049 44.7378 54.6614 44.7378 54.6614L49.7289 55.3918C49.7289 55.3918 50.5202 55.3918 50.3984 56.4266C50.2767 57.4613 50.3984 56.4266 50.3984 56.4266C50.3984 56.4266 49.7898 62.3307 46.0768 61.5394C42.3639 60.809 46.0768 61.5394 46.0768 61.5394V61.5394L42.9117 61.0525" fill="#FFA626"/>
<path d="M29.9469 55.8178C29.9469 55.8178 29.7643 54.2353 30.1295 53.0179C30.4947 51.8006 30.1295 53.0179 30.1295 53.0179C30.1295 53.0179 30.2512 52.1049 31.1034 52.2266C31.9555 52.3484 31.1034 52.2266 31.1034 52.2266L32.2599 52.4701C32.199 52.4701 31.5903 53.9309 29.9469 55.8178" fill="#5D4037"/>
<path d="M49.7289 55.3918C49.7289 55.3918 50.581 55.5136 50.3984 56.4266C50.3984 56.4266 45.7116 55.331 44.0073 54.6005C44.0073 54.6005 44.4334 54.5397 44.7377 54.6005L49.7289 55.3918Z" fill="#5D4037"/>
<path d="M40.1117 65.861C38.8944 65.861 37.7379 65.5567 36.7031 65.0089C36.5205 64.948 36.4597 64.7046 36.5814 64.522C36.6423 64.3394 36.8857 64.2785 37.0683 64.4002C39.2596 65.6176 42.1204 65.435 44.129 63.9133C44.2507 63.7915 44.4942 63.8524 44.6159 63.9741C44.7377 64.0959 44.6768 64.3394 44.5551 64.4611C43.216 65.3741 41.6943 65.861 40.1117 65.861Z" fill="#BF360C"/>
<path d="M39.3204 62.6351C38.59 62.6351 37.8596 62.3307 37.4335 62.0264C37.3727 61.9655 37.3118 61.9047 37.2509 61.7829C37.1901 61.6612 37.2509 61.6003 37.3727 61.5394L39.1378 59.7743C39.2596 59.6525 39.503 59.6525 39.6248 59.7743C39.7465 59.896 39.7465 60.1395 39.6248 60.2612L38.2248 61.722C38.6509 61.9047 39.077 62.0264 39.4422 62.0264C39.6248 62.0264 39.8074 62.1481 39.8074 62.3307C39.8074 62.5133 39.6856 62.6959 39.503 62.6959C39.3813 62.6351 39.3813 62.6351 39.3204 62.6351Z" fill="#EF6C00"/>
<path d="M36.7032 56.9134C36.5206 56.9134 36.338 56.7917 36.2771 56.6091C36.2771 56.5482 35.9119 55.6961 34.5729 55.5135C33.2338 55.27 32.3816 56.0004 32.3816 56.0004C32.3208 56.0613 32.199 56.1221 32.0773 56.1221C31.1034 56.1221 30.7382 55.3309 30.6773 54.9657C30.6165 54.7222 30.7991 54.4787 31.0425 54.4787C31.286 54.4178 31.5295 54.6005 31.5295 54.8439C31.5295 54.9657 31.5903 55.1483 31.8947 55.2091C32.2599 54.9657 33.2946 54.357 34.6946 54.6005C36.5206 54.9048 37.0684 56.2439 37.0684 56.3047C37.1293 56.5482 37.0684 56.7917 36.825 56.9134C36.825 56.9134 36.7641 56.9134 36.7032 56.9134Z" fill="#3E2723"/>
<path d="M34.6337 55.0874V55.0874C34.2685 55.0266 33.9033 55.27 33.8424 55.6353L33.6598 56.6091C33.599 56.9743 33.8424 57.3395 34.2076 57.4004V57.4004C34.5728 57.4613 34.9381 57.2178 34.9989 56.8526L35.1815 55.8787C35.2424 55.5135 34.9989 55.1483 34.6337 55.0874Z" fill="#3E2723"/>
<path d="M33.4772 52.7136H33.4163C33.1728 52.6527 32.9902 52.4093 33.0511 52.1658C33.2337 51.2528 34.0859 50.6441 34.9989 50.7658L36.2162 50.9484C36.4597 51.0093 36.6423 51.2528 36.5814 51.4963C36.5206 51.7397 36.2771 51.9223 36.0336 51.8615L34.8163 51.6789C34.3902 51.618 33.9641 51.9223 33.9033 52.2875C33.9033 52.5919 33.7206 52.7136 33.4772 52.7136Z" fill="#4E342E"/>
<path d="M48.0246 58.8612C47.842 58.8612 47.7203 58.8612 47.5376 58.8003C47.4159 58.7394 47.355 58.6786 47.2942 58.6177C47.2942 58.5568 46.6855 57.6438 45.3464 57.4004C44.0682 57.1569 43.3986 57.8873 43.3986 57.8873C43.216 58.0699 42.9726 58.0699 42.7291 57.9482C42.5465 57.7656 42.4856 57.5221 42.6682 57.3395C42.7291 57.2786 43.6421 56.2439 45.4681 56.5482C46.8681 56.7917 47.6594 57.6438 47.9029 58.009C48.2072 58.0699 48.3289 57.8873 48.3898 57.7656C48.5115 57.5221 48.8159 57.4612 48.9985 57.583C49.2419 57.7047 49.3028 57.9482 49.1811 58.1916C49.0593 58.4351 48.6941 58.8612 48.0246 58.8612Z" fill="#3E2723"/>
<path d="M45.4073 56.9134V56.9134C45.7725 56.9742 46.016 57.3394 45.9551 57.7047L45.7725 58.6785C45.7116 59.0437 45.3464 59.2872 44.9812 59.2263V59.2263C44.616 59.1655 44.3725 58.8003 44.4334 58.4351L44.616 57.4612C44.7377 57.096 45.0421 56.8525 45.4073 56.9134Z" fill="#3E2723"/>
<path d="M47.7811 55.1483H47.7202C47.4767 55.0874 47.2941 54.844 47.355 54.6005C47.4159 54.1744 47.1115 53.7484 46.7463 53.6875L45.529 53.5049C45.2855 53.444 45.1029 53.2006 45.1638 52.9571C45.2246 52.7136 45.4681 52.531 45.7116 52.5919L46.9289 52.7745C47.842 52.9571 48.4506 53.8092 48.3289 54.7222C48.2072 54.9657 48.0246 55.1483 47.7811 55.1483Z" fill="#4E342E"/>
<path d="M25.3209 95.1992C26.0513 95.1992 26.1122 94.0427 25.3209 94.0427C24.5905 93.9819 24.5905 95.1992 25.3209 95.1992V95.1992Z" fill="#4E342E"/>
<path d="M29.9469 55.8178C29.9469 55.8178 29.8252 54.2961 30.1295 53.0179C30.4338 51.7397 30.1295 53.0179 30.1295 53.0179C30.1295 53.0179 30.2512 52.1049 31.1034 52.2266C31.9555 52.3484 31.1034 52.2266 31.1034 52.2266" fill="#8C6E63"/>
<path d="M26.5992 76.9998C25.9296 76.9998 25.1992 76.7564 24.5905 76.3303C24.2253 76.0259 15.2169 68.7827 9.49535 57.3396C8.70407 55.757 9.37362 53.8701 10.8953 53.0788C12.4779 52.2876 14.3648 52.9571 15.156 54.4788C20.2081 64.5828 28.4252 71.2174 28.4861 71.2783C29.886 72.3739 30.0686 74.3825 28.973 75.7216C28.4252 76.5738 27.5122 76.9998 26.5992 76.9998Z" fill="#FFAB91"/>
<path d="M26.5992 76.9998C25.9296 76.9998 25.1992 76.7563 24.5905 76.3302C24.5297 76.2693 22.5819 74.7476 19.9646 72.0086C18.7473 70.7304 18.8081 68.7218 20.0863 67.5044C21.3646 66.287 23.3732 66.3479 24.5905 67.6261C26.9035 70 28.5469 71.3391 28.5469 71.3391C29.9469 72.4347 30.1295 74.4433 29.0339 75.7824C28.4252 76.5737 27.5122 76.9998 26.5992 76.9998Z" fill="#E4594F"/>
<path d="M42.8508 39.6879V39.6879C37.0075 38.714 31.4686 42.6095 30.4947 48.5137L29.0948 56.7308C28.1209 62.5741 32.0164 68.1131 37.9206 69.087V69.087C43.7639 70.0608 49.3028 66.1653 50.2767 60.2612L51.6767 52.044C52.6505 46.2616 48.6941 40.6618 42.8508 39.6879Z" fill="#FFAB91"/>
<path d="M50.7637 56.8526C50.6419 56.8526 50.5202 56.7917 50.3985 56.7309C47.1725 53.2006 45.103 54.2353 45.0421 54.2962C44.7986 54.4179 44.5552 54.357 44.4334 54.1136C44.3117 53.8701 44.3726 53.6266 44.616 53.5049C44.7378 53.444 47.2942 52.0441 51.068 56.1222C51.2506 56.3048 51.2506 56.6091 51.068 56.7917C51.0071 56.7917 50.8854 56.8526 50.7637 56.8526Z" fill="#263238"/>
<path d="M39.8074 60.9307V60.9307C39.077 60.9307 38.2857 60.5046 37.8597 60.2003C37.7988 60.1394 37.7379 60.0177 37.7379 59.9568C37.7379 59.8351 37.7988 59.7742 37.8597 59.7134L39.7465 58.0699C39.8683 57.9482 40.1118 57.9482 40.2335 58.0699C40.3552 58.1917 40.3552 58.4351 40.2335 58.5569L38.7118 59.896C39.1379 60.1394 39.5639 60.2612 39.9292 60.2612C40.1118 60.2612 40.2335 60.4438 40.2335 60.6264C40.1726 60.7481 39.99 60.9307 39.8074 60.9307Z" fill="#FF8A65"/>
<path d="M48.5114 58.8612C48.3897 58.8612 48.2071 58.8612 48.0245 58.8003C47.9028 58.8003 47.8419 58.7394 47.781 58.6177C47.781 58.5568 47.0506 57.7047 45.8333 57.7047C44.4333 57.7047 43.7638 58.496 43.7638 58.5568C43.5812 58.7394 43.3377 58.8003 43.0942 58.6177C42.9116 58.4351 42.8507 58.1916 43.0334 58.009C43.0942 57.9482 44.0072 56.8525 45.7724 56.8525C47.1724 56.8525 48.0245 57.6438 48.3288 58.009C48.6332 58.0699 48.7549 57.8873 48.8158 57.7656C48.9375 57.5221 49.181 57.4612 49.4245 57.583C49.6679 57.7047 49.7288 57.9482 49.6071 58.1916C49.6071 58.4351 49.181 58.8612 48.5114 58.8612Z" fill="#263238"/>
<path d="M37.3727 56.6091C37.3119 56.6091 37.3119 56.6091 37.3727 56.6091C37.0684 56.6091 36.8858 56.3657 36.9467 56.1222C36.9467 56.0613 37.0075 55.0266 36.0336 54.0527C35.1815 53.2005 34.0859 53.3832 34.025 53.3832C33.9033 53.3832 33.8424 53.3832 33.7207 53.3223C32.8685 52.8962 32.8077 52.0441 32.9294 51.6789C32.9903 51.4354 33.2337 51.3137 33.4772 51.3745C33.7207 51.4354 33.8424 51.6789 33.7815 51.9223C33.7815 52.0441 33.7207 52.2267 33.9641 52.4093C34.3902 52.3484 35.6076 52.4093 36.5815 53.3832C37.8597 54.6614 37.7379 56.0613 37.7379 56.1222C37.7988 56.4265 37.5553 56.6091 37.3727 56.6091Z" fill="#263238"/>
<path d="M42.0595 73.9564C44.3116 74.9911 51.9809 77.5476 50.7027 80.8344L42.2421 105.851L18.8689 104.573L23.5557 74.3216C24.5296 71.5825 26.1121 71.7043 30.7381 71.8869C30.7381 71.8869 32.0163 72.1304 37.3118 72.6173C37.3727 72.5564 39.99 72.9825 42.0595 73.9564Z" fill="#E4594F"/>
<path d="M34.6945 79.6779L31.6511 71.826L34.1467 71.9477L34.8771 67.9913L40.5378 69.0261L39.9291 72.9825L42.1204 73.7129L36.0945 79.9214C36.0336 79.9823 35.2423 80.6518 34.6945 79.6779Z" fill="#FFAB91"/>
<path d="M7.30409 34.3316C7.18236 34.3316 7.12149 34.2707 7.06062 34.2098C6.33021 33.3577 6.39108 32.5055 6.57368 31.9577C5.05199 31.7143 4.50418 30.3143 4.38245 29.5839C4.38245 29.4622 4.38245 29.4013 4.44331 29.3404C4.50418 29.2796 4.56505 29.2187 4.68678 29.2187L8.70405 28.9752C8.88665 28.9752 9.06925 29.097 9.06925 29.2796C9.06925 29.4622 8.94752 29.6448 8.76492 29.6448L5.17373 29.8274C5.35633 30.3752 5.84327 31.2882 7.12149 31.2882C7.24323 31.2882 7.36496 31.3491 7.42583 31.4708C7.4867 31.5925 7.4867 31.7143 7.36496 31.836C7.36496 31.8969 6.69542 32.6881 7.54756 33.7229C7.6693 33.8446 7.6693 34.0881 7.4867 34.2098C7.42583 34.3316 7.36496 34.3316 7.30409 34.3316Z" fill="#EF6C00"/>
<path d="M6.0867 30.3752V30.3752C5.84322 30.3752 5.72149 30.1926 5.78236 30.0099L6.02583 27.4535C6.02583 27.2709 6.20843 27.1492 6.39103 27.1492C6.57364 27.1492 6.69537 27.3318 6.69537 27.5144L6.4519 30.0708C6.39103 30.2534 6.2693 30.3752 6.0867 30.3752Z" fill="#EF6C00"/>
<path d="M3.8346 32.8098C3.65199 32.8098 3.53026 32.6881 3.53026 32.5055L3.34766 28.123C3.34766 27.9404 3.46939 27.7578 3.65199 27.7578C3.8346 27.7578 4.0172 27.8795 4.0172 28.0622L4.1998 32.4446C4.1998 32.6881 4.0172 32.8098 3.8346 32.8098V32.8098Z" fill="#EF6C00"/>
<path d="M2.25205 33.175C2.06945 33.175 1.94771 33.0533 1.94771 32.8707L1.3999 29.0969C1.3999 28.9143 1.52164 28.7317 1.70424 28.7317C1.88684 28.7317 2.06945 28.8534 2.06945 29.036L2.61726 32.8098C2.61726 32.9924 2.49552 33.175 2.25205 33.175V33.175Z" fill="#EF6C00"/>
<path d="M2.00861 35.0011L0.608656 29.1578C0.608656 29.1578 0.426053 28.2447 1.33907 27.9404C1.33907 27.9404 2.06948 27.6969 2.49555 28.3665C2.49555 28.3665 2.37382 27.3317 3.71291 27.0274C3.71291 27.0274 4.86939 26.8448 5.17373 27.7578C5.17373 27.7578 4.99113 26.7231 6.20848 26.4187C6.20848 26.4187 7.24323 26.3578 7.54757 27.1491C7.54757 27.1491 7.42583 26.297 8.76492 26.3578C8.76492 26.3578 9.49533 26.297 9.7388 27.5143L9.92141 28.7317C9.92141 28.7317 11.1388 28.6708 11.1996 29.7664L11.6257 33.5402C11.6257 33.5402 10.1649 34.8185 9.19099 35.8532L9.61707 38.0444L3.59117 40.1748" fill="#FFAB91"/>
<path d="M6.1476 34.5141C5.96499 34.5141 5.84326 34.3924 5.84326 34.2098C5.72152 33.4794 5.84326 32.8707 6.20846 32.3229C6.5128 31.8968 6.93888 31.5925 7.36495 31.4099C6.39107 30.8012 6.1476 29.7056 6.26933 29.0969C6.26933 28.9143 6.39107 28.7926 6.57367 28.7926L9.55618 28.61C9.73879 28.61 9.92139 28.7317 9.92139 28.9143C9.92139 29.0969 9.79965 29.2795 9.61705 29.2795L6.87801 29.523C6.93888 30.0099 7.12148 30.923 8.3997 31.1664C8.5823 31.1664 8.70404 31.349 8.70404 31.4708C8.70404 31.6534 8.5823 31.7751 8.3997 31.7751C8.3997 31.7751 7.30408 31.9577 6.75627 32.749C6.5128 33.1142 6.39107 33.6011 6.5128 34.0881C6.57367 34.2707 6.45193 34.4533 6.26933 34.4533C6.20846 34.5141 6.1476 34.5141 6.1476 34.5141Z" fill="#FF8A65"/>
<path d="M3.53027 32.5055C3.40854 32.5055 3.22594 32.3837 3.22594 32.262L2.43466 29.036C2.37379 28.8534 2.49552 28.6708 2.67813 28.6099C2.86073 28.5491 3.04333 28.6708 3.1042 28.8534L3.83461 32.0185C3.89548 32.2011 3.77374 32.3837 3.59114 32.4446C3.53027 32.5055 3.53027 32.5055 3.53027 32.5055Z" fill="#FF8A65"/>
<path d="M5.96506 31.836C5.78245 31.836 5.66072 31.7143 5.66072 31.5925L4.99118 28.4883C4.93031 28.3057 5.05204 28.1231 5.23465 28.0622C5.41725 28.0014 5.59985 28.1231 5.66072 28.3057L6.33026 31.4099C6.39113 31.5925 6.2694 31.7751 6.08679 31.836C6.02593 31.7751 5.96506 31.836 5.96506 31.836Z" fill="#FF8A65"/>
<path d="M33.9033 62.5132C33.9033 62.5132 33.8424 61.1741 34.8163 61.4785C34.8163 61.4785 38.1031 63.3654 42.5465 63.6697C42.5465 63.6697 43.703 63.6697 43.1552 64.7045C43.1552 64.7045 42.3639 67.5044 37.5553 66.774C37.4945 66.8348 33.7207 66.1653 33.9033 62.5132Z" fill="white"/>
<path d="M42.9726 65.1306C42.9726 65.1306 42.303 65.4958 40.2335 65.3741C40.2335 65.3741 40.9639 66.0436 42.1204 66.1654C42.1204 66.1654 43.3378 65.5567 42.9726 65.1306Z" fill="#263238"/>
<path d="M36.1554 64.2784C36.1554 64.2784 35.0598 63.9741 33.8424 62.9393L33.9033 63.9741C33.9033 63.9132 34.938 64.5828 36.1554 64.2784Z" fill="#263238"/>
<path d="M51.6158 46.079C55.2799 46.079 58.2503 43.1086 58.2503 39.4444C58.2503 35.7802 55.2799 32.8098 51.6158 32.8098C47.9516 32.8098 44.9812 35.7802 44.9812 39.4444C44.9812 43.1086 47.9516 46.079 51.6158 46.079Z" fill="#6E4420"/>
<path d="M43.5204 39.2619V39.2619C37.6771 38.0445 31.7729 41.8183 30.5556 47.6616L29.9469 51.3745C42.6074 53.9918 48.3289 50.4006 48.3289 50.4006C47.1116 56.2439 50.2767 60.3829 50.2767 60.3829L52.0419 52.0441C53.6853 45.8964 49.3637 40.4792 43.5204 39.2619Z" fill="#6E4420"/>
<path d="M31.6512 71.8868C31.6512 71.8868 29.3991 71.339 26.2948 69.2695C26.234 69.2695 28.3643 73.4085 31.6512 71.8868Z" fill="#EFF0F2"/>
<path d="M16.7385 68.2957L21.5471 64.0958C21.5471 64.0958 24.8339 67.9305 25.0165 67.9305L20.3297 72.1912C20.2688 72.2521 18.5037 70.4869 16.7385 68.2957Z" fill="#90130E"/>
<path d="M70.1195 81.3823C68.7196 81.3823 67.4414 80.4693 67.0153 79.0084C66.5892 77.3041 67.5631 75.539 69.2674 75.1129C75.2933 73.5304 81.867 70.7304 86.3712 67.8088C87.832 66.8349 89.8406 67.3219 90.7537 68.7827C91.7275 70.2435 91.2406 72.2521 89.7798 73.1651C84.6669 76.452 77.6063 79.4954 70.8499 81.2605C70.6673 81.3823 70.4239 81.3823 70.1195 81.3823Z" fill="#FFAB91"/>
<path d="M55.6331 83.2083C54.8418 83.2083 54.1114 83.2083 53.3809 83.1474C51.6158 83.0866 50.2767 81.6258 50.3376 79.8606C50.3984 78.0954 51.8593 76.7563 53.6244 76.8172C57.3373 76.9389 62.998 76.7563 68.7805 75.2955C70.4848 74.8694 72.2499 75.9042 72.676 77.6085C73.1021 79.3128 72.0673 81.0171 70.363 81.504C64.9458 82.8431 59.6503 83.2083 55.6331 83.2083Z" fill="#FFAB91"/>
<path d="M54.0505 83.2082C53.9896 83.2082 53.9287 83.2082 53.9287 83.2082C53.5027 83.2082 53.0157 83.1474 52.5897 83.1474C49.8506 83.0256 47.5376 82.9647 45.7725 82.4169C44.1291 81.8691 43.1552 80.104 43.703 78.3997C44.2508 76.7563 46.0159 75.7824 47.7202 76.3302C48.6333 76.6345 50.8245 76.6954 52.7723 76.7563C53.1983 76.7563 53.6853 76.8171 54.1722 76.8171C55.9374 76.878 57.2765 78.3997 57.2156 80.1648C57.1547 81.8691 55.7548 83.2082 54.0505 83.2082Z" fill="#E4594F"/>
<path d="M58.2503 83.1474L58.4329 76.7563C58.4329 76.7563 55.4504 76.8172 53.8678 76.8172L53.6244 83.2083C53.5635 83.2083 55.4504 83.3301 58.2503 83.1474Z" fill="#90130E"/>
<path d="M93.0667 67.6262C92.3971 67.6262 91.7276 67.3827 91.1189 66.7131C90.9972 66.5914 90.9972 66.3479 91.1189 66.2262C91.2406 66.1045 91.4841 66.1045 91.6058 66.2262C92.458 67.2001 93.4927 66.9566 93.9797 66.7131L91.7884 63.8524C91.6667 63.7306 91.7276 63.4872 91.8493 63.3654C91.971 63.2437 92.2145 63.3046 92.3362 63.4263L94.7709 66.5914C94.8318 66.6523 94.8318 66.774 94.8318 66.8349C94.8318 66.9566 94.7709 67.0175 94.7101 67.0784C94.3449 67.3827 93.7362 67.6262 93.0667 67.6262Z" fill="#EF6C00"/>
<path d="M93.1883 66.4697C93.1274 66.4697 93.0057 66.4088 92.9448 66.348C92.8231 66.2262 92.8231 65.9827 92.9448 65.861L94.7708 63.9741C94.8926 63.8524 95.1361 63.8524 95.2578 63.9741C95.3795 64.0958 95.3795 64.3393 95.2578 64.4611L93.4318 66.348C93.3709 66.4088 93.31 66.4697 93.1883 66.4697Z" fill="#EF6C00"/>
<path d="M92.8232 69.7565C92.7015 69.7565 92.6406 69.6957 92.5797 69.6348C92.458 69.5131 92.458 69.2696 92.6406 69.1479L96.0492 66.4088C96.1709 66.2871 96.4144 66.2871 96.5361 66.4697C96.6578 66.5914 96.6578 66.8349 96.4752 66.9566L93.0667 69.6957C93.0058 69.7565 92.9449 69.7565 92.8232 69.7565Z" fill="#EF6C00"/>
<path d="M92.1536 72.4348L97.5099 69.6348C97.5099 69.6348 98.3012 69.1479 97.936 68.2349C97.936 68.2349 97.6316 67.5045 96.8404 67.6262C96.8404 67.6262 97.6925 67.0175 97.023 65.8611C97.023 65.8611 96.4143 64.8263 95.5013 65.2524C95.5013 65.2524 96.4143 64.7046 95.8056 63.609C95.8056 63.609 95.1361 62.7568 94.4057 63.122C94.4057 63.122 95.1361 62.6351 94.2231 61.6612C94.2231 61.6612 93.797 61.0525 92.7014 61.7221L91.6666 62.3916C91.6666 62.3916 90.9362 61.4177 90.0232 62.1481L86.9189 64.2785C86.9189 64.2785 86.9189 66.2263 86.7363 67.6262L84.7886 68.7218L87.1624 74.6869" fill="#FFAB91"/>
<path d="M90.0841 69.1479C89.9624 69.1479 89.8406 69.087 89.7798 68.9653C89.658 68.7827 89.7189 68.6001 89.9015 68.4783C90.3884 68.2349 90.6319 67.8697 90.7536 67.3827C90.9971 66.4697 90.3884 65.4958 90.3884 65.4958C90.2667 65.3132 90.3276 65.1306 90.5102 65.0089C90.6928 64.8872 90.8754 64.948 90.9971 65.1306C90.9971 65.1915 91.7275 66.348 91.4232 67.5045C91.2406 68.1131 90.8754 68.6001 90.2667 68.9653C90.2058 69.087 90.145 69.1479 90.0841 69.1479Z" fill="#FF8A65"/>
<path d="M92.0318 66.2262C91.5449 66.2262 90.9971 66.0436 90.4492 65.6175C90.3275 65.4958 90.2666 65.3132 90.3884 65.1306C90.5101 65.0089 90.6927 64.948 90.8753 65.0697C92.2144 66.1045 93.1883 65.0697 93.31 64.948C93.4318 64.8263 93.6752 64.8263 93.797 64.948C93.9187 65.0697 93.9187 65.3132 93.797 65.4349C93.4926 65.8001 92.884 66.2262 92.0318 66.2262Z" fill="#FF8A65"/>
<path d="M93.5536 65.5567C93.4318 65.5567 93.371 65.4958 93.3101 65.4349L91.4841 63.0611C91.3623 62.9394 91.4232 62.6959 91.5449 62.5742C91.6667 62.4524 91.9102 62.5133 92.0319 62.635L93.8579 65.0089C93.9797 65.1306 93.9188 65.3741 93.7971 65.4958C93.7362 65.5567 93.6753 65.5567 93.5536 65.5567Z" fill="#FF8A65"/>
<path d="M93.31 69.8173C93.1883 69.8173 93.0666 69.7565 93.0057 69.6347C92.9448 69.4521 93.0057 69.2695 93.1274 69.2087L95.9882 67.687C96.1708 67.6261 96.3534 67.687 96.4143 67.8087C96.4751 67.9913 96.4143 68.1739 96.2925 68.2348L93.4318 69.7565C93.4318 69.8173 93.3709 69.8173 93.31 69.8173Z" fill="#FF8A65"/>
<path d="M92.2144 67.5044C92.0927 67.5044 91.9709 67.4435 91.9101 67.3218C91.8492 67.1392 91.8492 66.9566 92.0318 66.8957L94.8317 65.3131C95.0143 65.2523 95.1969 65.2523 95.2578 65.4349C95.3186 65.6175 95.3186 65.8001 95.136 65.8609L92.3361 67.4435C92.3361 67.5044 92.2753 67.5044 92.2144 67.5044Z" fill="#FF8A65"/>
<path d="M56.7894 167.571C54.4765 168.727 51.7374 167.571 51.007 165.075V165.075C50.4592 163.128 51.4331 160.997 53.32 160.206L60.7458 157.041L62.9979 164.406L56.7894 167.571Z" fill="#2C66BF"/>
<path d="M86.1886 152.354L83.7539 147.058L68.6587 153.571L70.6065 160.388L86.1886 152.354Z" fill="#FFAB91"/>
<path d="M70.7281 160.328L68.6586 153.571L60.7458 156.98L62.998 164.345L70.7281 160.328Z" fill="#6199F6"/>
<path d="M29.8251 166.293L43.8247 154.606L39.8074 148.641L25.0166 158.502C23.008 159.841 22.521 162.519 23.7992 164.467V164.467C25.1992 166.597 27.8165 167.875 29.8251 166.293Z" fill="#2C66BF"/>
<path d="M31.0425 114.738C30.9207 111.268 27.8774 108.529 24.1644 108.651V108.651C20.9993 108.773 17.7125 109.564 17.1647 113.155C17.0429 114.007 16.9821 116.442 17.0429 117.355L23.008 162.336C23.2514 164.588 25.3209 166.293 27.7556 166.232V166.232C30.3121 166.171 32.3207 164.162 32.2598 161.728L31.0425 114.738Z" fill="#2C66BF"/>
<path d="M83.6321 147.119L86.7972 153.51C87.2841 154.484 88.1972 155.093 89.2928 155.154V155.154V155.154L84.9712 146.45L83.6321 147.119Z" fill="#FFAB91"/>
<path d="M86.9189 152.171C87.1624 152.658 87.0407 153.084 86.7363 153.389L86.7972 153.51C87.2842 154.484 88.1972 155.093 89.2928 155.154V155.154L84.9712 146.45L84.3016 146.815L86.9189 152.171Z" fill="#6D4C41"/>
<path d="M18.9907 104.512C18.9907 104.512 18.2603 106.521 17.4081 110.903C17.4081 110.903 17.0429 113.094 17.1038 117.355L48.8767 121.555C48.8767 121.555 47.7202 114.677 42.303 105.79L18.9907 104.512Z" fill="#2C66BF"/>
<path d="M42.5465 155.641L37.7379 149.98L33.4772 152.841L37.9205 159.475L42.5465 155.641Z" fill="#6199F6"/>
<path d="M9.19101 35.8533L2.61731 37.1315L3.46946 40.114L9.67796 38.5923L9.19101 35.8533Z" fill="#FFC107"/>
<path d="M42.5465 155.641L61.3546 141.276L57.8851 136.772L37.7379 150.041L42.5465 155.641Z" fill="#FFAB91"/>
<path d="M48.6941 120.946C47.9028 118.146 41.5726 111.329 38.7118 111.755C35.0597 112.303 29.0947 112.668 30.3729 116.077L51.0071 165.075C51.6766 166.901 53.5635 167.997 55.5113 167.693V167.693C57.946 167.327 59.5285 164.893 58.7981 162.519L48.6941 120.946Z" fill="#2C66BF"/>
<path d="M42.1204 73.7738C42.1204 73.7738 46.5637 75.7824 50.581 76.6955C50.581 76.6955 44.7985 76.6346 41.6334 74.2607L42.1204 73.7738Z" fill="#EFF0F2"/>
<path fill-rule="evenodd" clip-rule="evenodd" d="M113.734 152.933C114.719 153.468 115.317 155.114 115.802 156.278C116.309 157.493 117.018 158.866 116.746 160.18C116.588 160.948 113.83 162.209 113.092 161.772C112.131 161.204 111.731 159.915 111.292 158.862C110.868 157.845 110.034 156.176 110.2 154.934C110.366 153.693 112.749 152.399 113.734 152.933Z" stroke="#FABB05" stroke-width="2.6"/>
<path fill-rule="evenodd" clip-rule="evenodd" d="M119.291 162.881C120.44 163.159 121.418 164.496 122.177 165.43C122.968 166.405 124.005 167.48 124 168.695C123.997 169.405 121.366 171.066 120.498 170.825C119.367 170.512 118.672 169.451 117.986 168.607C117.324 167.792 116.092 166.48 116.003 165.349C115.913 164.218 118.141 162.603 119.291 162.881Z" stroke="#FABB05" stroke-width="2.6"/>
<path fill-rule="evenodd" clip-rule="evenodd" d="M148.919 152.549C147.891 152.996 147.152 154.583 146.567 155.701C145.956 156.867 145.131 158.174 145.286 159.506C145.377 160.284 148.015 161.781 148.788 161.411C149.795 160.928 150.306 159.679 150.835 158.668C151.346 157.692 152.322 156.102 152.265 154.851C152.207 153.6 149.947 152.103 148.919 152.549Z" stroke="#FABB05" stroke-width="2.6"/>
<path fill-rule="evenodd" clip-rule="evenodd" d="M143.39 162.48C142.265 162.65 141.187 163.918 140.363 164.796C139.502 165.711 138.397 166.705 138.269 167.945C138.194 168.669 140.518 170.619 141.372 170.459C142.483 170.251 143.261 169.238 144.006 168.444C144.726 167.678 146.042 166.462 146.252 165.318C146.461 164.174 144.515 162.309 143.39 162.48Z" stroke="#FABB05" stroke-width="2.6"/>
<path d="M114.738 159.714L118.003 164.748" stroke="#EDA606" stroke-width="2.8" stroke-linecap="round"/>
<path d="M112.844 150.455C112.844 150.455 111.869 151.723 112.057 153.105C112.244 154.488 112.504 155.55 112.504 155.55" stroke="#EDA606" stroke-width="2.4" stroke-linecap="round" stroke-linejoin="round"/>
<path d="M147.659 160.048L144.051 164.842" stroke="#EDA606" stroke-width="2.4" stroke-linecap="round"/>
<path d="M151.171 149.647C151.171 149.647 151.699 151.499 151.546 152.429C151.392 153.359 149.857 154.755 149.857 154.755" stroke="#EDA606" stroke-width="2.4" stroke-linecap="round"/>
<path d="M146.036 173.043L139.421 161.824C138.915 160.948 137.99 160.41 136.99 160.409L124.153 160.633C123.153 160.667 122.245 161.237 121.77 162.132L115.55 173.546C115.068 174.431 115.087 175.51 115.6 176.377L122.216 187.661C122.717 188.549 123.64 189.106 124.648 189.128L137.485 188.904C138.491 188.851 139.396 188.265 139.867 187.361L146.087 175.914C146.571 175.016 146.552 173.924 146.036 173.043Z" fill="#4285F4"/>
<path opacity="0.07" d="M139.065 175.476L130.099 170.464L130.856 173.719L127.472 170.481L128.208 175.428L125.503 182.364L132.726 189.245L137.55 189.161C138.542 189.109 139.434 188.547 139.898 187.68L144.06 180.244L139.065 175.476Z" fill="black"/>
<path d="M129.204 175.423L127.472 169.982L125.261 168.498L127.476 175.453L125.506 182.481L127.663 180.921L129.204 175.423V175.423Z" fill="white"/>
<path fill-rule="evenodd" clip-rule="evenodd" d="M131.178 175.389L128.964 168.426L139.111 175.25L129.208 182.424L131.178 175.389ZM130.739 170.818L131.873 174.376L135.932 174.306L130.739 170.818Z" fill="white"/>
</g>
</svg>  