<?xml version="1.0" encoding="UTF-8"?>
<svg width="1444px" height="679px" viewBox="0 0 1444 679" version="1.1" xmlns="http://www.w3.org/2000/svg" xmlns:xlink="http://www.w3.org/1999/xlink" jetway-hooks="{}">
    <!-- Generator: Sketch 62 (91390) - https://sketch.com -->
    <title>cloud</title>
    <desc>Created with Sketch.</desc>
    <defs>
        <path d="M1271.18501,568.200054 C1279.65664,556.764742 1286.10777,549.286871 1290.53839,545.766441 C1306.85742,532.799854 1322.35317,529.749326 1333.06892,530.015633 C1355.68853,530.577773 1386.01131,551.079346 1396.0644,571.303542 C1402.76646,584.786339 1404.99622,595.551676 1402.75368,603.599554 C1413.74472,602.860127 1422.36173,607.143979 1428.6047,616.451111 C1437.96915,630.411808 1432.95162,650.364152 1429.81285,656.794941 C1428.35281,659.786307 1424.85152,663.432563 1419.30899,667.733708 C1414.91851,671.140828 1409.55184,673.051514 1403.99605,673.185549 C1298.47229,675.731354 1239.42766,676.550057 1226.86218,675.64166 C1207.5425,674.244982 1202.64082,665.214933 1197.46863,658.871556 C1193.26493,653.715982 1187.71213,632.714306 1197.27326,614.756921 C1203.64735,602.785332 1212.85258,595.677213 1224.88897,593.432564 C1226.2135,588.119593 1228.26593,583.307614 1231.04628,578.996628 C1235.21681,572.530148 1240.682,568.844923 1244.13963,566.922592 C1249.65092,563.858504 1258.66604,564.284324 1271.18501,568.200054 Z" id="path-1"></path>
        <filter x="-1.4%" y="-1.7%" width="102.9%" height="104.8%" filterUnits="objectBoundingBox" id="filter-2">
            <feOffset dx="0" dy="1" in="SourceAlpha" result="shadowOffsetOuter1"></feOffset>
            <feGaussianBlur stdDeviation="1" in="shadowOffsetOuter1" result="shadowBlurOuter1"></feGaussianBlur>
            <feColorMatrix values="0 0 0 0 0   0 0 0 0 0   0 0 0 0 0  0 0 0 0.08 0" type="matrix" in="shadowBlurOuter1"></feColorMatrix>
        </filter>
        <path d="M217.280252,82.210997 C223.301417,74.0652955 227.886516,68.738593 231.03555,66.2308897 C242.634197,56.9944168 253.647711,54.821438 261.263862,55.0111358 C277.340605,55.4115641 298.892334,70.0154247 306.037505,84.4217009 C310.800952,94.0258851 312.385741,101.694345 310.791872,107.42708 C318.603688,106.900364 324.728172,109.951876 329.165324,116.581613 C335.821051,126.526219 332.254869,140.738848 330.024008,145.319684 C330.024008,145.319684 330.024008,145.319684 330.024008,145.319684 C326.624067,152.301102 319.614016,156.803168 311.850992,156.990942 C236.74021,158.807722 194.715906,159.392328 185.778079,158.744744 C172.046735,157.74985 168.562894,151.317487 164.886793,146.798917 C161.899044,143.126453 157.952421,128.166355 164.747936,115.374793 C169.278279,106.847086 175.820845,101.783768 184.375634,100.18484 C185.317031,96.4002579 186.775788,92.9725471 188.751905,89.9017073 C191.71608,85.2954477 195.600426,82.670356 198.057922,81.3010247 C201.975035,79.1183864 208.382478,79.4217105 217.280252,82.210997 Z" id="path-3"></path>
        <filter x="-2.0%" y="-2.4%" width="104.1%" height="106.7%" filterUnits="objectBoundingBox" id="filter-4">
            <feOffset dx="0" dy="1" in="SourceAlpha" result="shadowOffsetOuter1"></feOffset>
            <feGaussianBlur stdDeviation="1" in="shadowOffsetOuter1" result="shadowBlurOuter1"></feGaussianBlur>
            <feColorMatrix values="0 0 0 0 0   0 0 0 0 0   0 0 0 0 0  0 0 0 0.08 0" type="matrix" in="shadowBlurOuter1"></feColorMatrix>
        </filter>
    </defs>
    <g jetway-hook-id="DD02DE45-2693-4544-83F0-035D85D9B187" id="Page-1" stroke="none" stroke-width="1" fill="none" fill-rule="evenodd">
        <g jetway-hook-id="0B2618B3-DEF7-42E4-999B-D6152B357433" id="cloud">
            <path d="M1241.49044,497.880889 C1252.02748,483.547587 1260.0514,474.17464 1265.56221,469.762046 C1285.85984,453.509406 1305.13349,449.6858 1318.46176,450.019595 C1346.59606,450.724195 1384.31159,476.421372 1396.81563,501.770878 C1405.15167,518.670548 1407.92505,532.164087 1405.13578,542.251496 C1418.80645,541.32468 1429.5243,546.694166 1437.28932,558.359954 C1448.93684,575.858636 1442.69602,600.867397 1438.79201,608.927905 C1436.8017,613.037255 1431.76169,618.132603 1423.67198,624.21395 L1423.67198,624.213949 C1419.34041,627.470151 1414.09968,629.291561 1408.68231,629.423585 C1276.17675,632.652808 1202.06986,633.695229 1186.36164,632.550848 C1162.33179,630.800217 1156.23506,619.481731 1149.80189,611.530786 C1144.57333,605.068662 1137.66674,578.744643 1149.55889,556.236415 C1157.48699,541.23093 1168.93648,532.321438 1183.90736,529.507939 C1185.5548,522.848531 1188.10763,516.817078 1191.56583,511.413581 C1196.75314,503.308336 1203.55075,498.689184 1207.85136,496.279688 C1214.70631,492.439084 1225.91934,492.972818 1241.49044,497.880889 Z" jetway-hook-id="BBC9CDB9-E9B1-4BD2-982F-A6286AE17CB0" id="Path-3-Copy-8" fill="#F3F2F2"></path>
            <g jetway-hook-id="E29DADB7-D90A-4DA1-8C9F-7445E50E4FAC" id="Path-3-Copy-5">
                <use fill="black" fill-opacity="1" filter="url(#filter-2)" xlink:href="#path-1"></use>
                <use fill="#FFFFFF" fill-rule="evenodd" xlink:href="#path-1"></use>
            </g>
            <path d="M185.695893,34.0137463 C193.152336,23.8316193 198.830395,17.1732412 202.730071,14.0386121 C217.093511,2.49302099 230.73234,-0.22320248 240.163968,0.0139197398 C260.072959,0.51445516 286.762019,18.7692809 295.610399,36.7771261 C301.509319,48.7823563 303.471877,58.3679309 301.498073,65.5338498 C311.172009,64.8754556 318.756399,68.6898444 324.251244,76.9770163 C332.493511,89.4077742 328.07725,107.17356 325.314615,112.899605 C325.314615,112.899605 325.314615,112.899605 325.314615,112.899605 C321.106588,121.621475 312.371793,127.255253 302.690746,127.491571 C209.750207,129.760275 157.748119,130.490065 146.684482,129.68093 C129.679968,128.437312 125.365677,120.396858 120.813295,114.748646 C117.113351,110.158066 112.225964,91.4579433 120.641339,75.4684916 C126.251589,64.8088571 134.353721,58.4797098 144.947733,56.4810498 C146.113532,51.7503224 147.920016,47.4656838 150.367184,43.6271341 C154.037936,37.8693096 158.848203,34.5879449 161.891497,32.8762809 C166.74234,30.147983 174.677139,30.5271382 185.695893,34.0137463 Z" jetway-hook-id="C279CA13-D7BC-4725-A98B-8A1F2B304A35" id="Path-3-Copy-10" fill="#F3F2F2" transform="translate(222.500000, 65.000000) scale(-1, 1) translate(-222.500000, -65.000000) "></path>
            <g jetway-hook-id="07686FDF-272D-4B58-94B1-328E24EC964F" id="Path-3-Copy-9" transform="translate(247.000000, 107.000000) scale(-1, 1) translate(-247.000000, -107.000000) ">
                <use fill="black" fill-opacity="1" filter="url(#filter-4)" xlink:href="#path-3"></use>
                <use fill="#FFFFFF" fill-rule="evenodd" xlink:href="#path-3"></use>
            </g>
            <path d="M1158.81292,316.605499 C1161.78849,312.532648 1164.05438,309.869296 1165.61059,308.615445 C1171.34248,303.997208 1176.78521,302.910719 1180.549,303.005568 C1188.4939,303.205782 1199.14447,310.507712 1202.67551,317.71085 C1205.02954,322.512943 1205.81272,326.347172 1205.02505,329.21354 C1208.88554,328.950182 1211.91218,330.475938 1214.10496,333.790807 C1217.39412,338.76311 1215.63177,345.869424 1214.52931,348.159842 C1214.52931,348.159842 1214.52931,348.159842 1214.52931,348.159842 C1212.85029,351.648089 1209.35915,353.902218 1205.48901,353.996907 C1168.40758,354.904173 1147.65957,355.195991 1143.24498,354.872372 C1136.45914,354.374925 1134.73748,351.158743 1132.9208,348.899458 C1131.4443,347.063226 1129.49393,339.583177 1132.85218,333.187397 C1135.09101,328.923543 1138.32425,326.391884 1142.55191,325.59242 C1143.01714,323.700129 1143.73803,321.986274 1144.7146,320.450854 C1146.17946,318.147724 1148.09905,316.835178 1149.31351,316.150512 C1151.24929,315.059193 1154.41576,315.210855 1158.81292,316.605499 Z" jetway-hook-id="5C0BEE5C-34BE-419E-86A2-010F9F6DD971" id="Path-3-Copy-6" fill="#F3F2F2"></path>
            <path d="M1222.95304,97.210997 C1228.9392,89.0652955 1233.49764,83.738593 1236.62837,81.2308897 C1248.15958,71.9944168 1259.10906,69.821438 1266.68093,70.0111358 C1282.66421,70.4115641 1304.09063,85.0154247 1311.19426,99.4217009 C1315.93002,109.025885 1317.50559,116.694345 1315.92099,122.42708 C1323.68739,121.900364 1329.77626,124.951876 1334.18762,131.581613 C1340.80465,141.526219 1337.2592,155.738848 1335.04131,160.319684 C1335.04131,160.319684 1335.04131,160.319684 1335.04131,160.319684 C1331.66232,167.298656 1324.66616,171.803816 1316.91451,171.992387 C1242.27769,173.808032 1200.51753,174.392156 1191.63402,173.744744 C1177.98251,172.74985 1174.51892,166.317487 1170.86419,161.798917 C1167.89382,158.126453 1163.97014,143.166355 1170.72615,130.374793 C1175.23015,121.847086 1181.73468,116.783768 1190.23973,115.18484 C1191.17565,111.400258 1192.62593,107.972547 1194.59056,104.901707 C1197.5375,100.295448 1201.39926,97.670356 1203.84247,96.3010247 C1207.73681,94.1183864 1214.107,94.4217105 1222.95304,97.210997 Z" jetway-hook-id="E7E865B0-6F61-43B6-98CA-D9B3960DB1CE" id="Path-3-Copy-7" fill="#F3F2F2"></path>
            <path d="M89.9829607,477.694582 C99.6098235,464.614465 106.940651,456.06101 111.975444,452.034217 C130.519792,437.202573 148.128608,433.713271 160.305593,434.017882 C186.009689,434.660877 220.467395,458.111307 231.89136,481.244462 C239.507337,496.666565 242.041156,508.980342 239.492818,518.185792 C251.98264,517.340008 261.774693,522.240031 268.868977,532.885859 C279.510402,548.854602 273.808656,571.676805 270.241874,579.032569 C268.482364,582.661201 264.114105,587.132295 257.137098,592.445851 L257.137098,592.445851 C252.78142,595.763054 247.489729,597.620603 242.016334,597.753714 C121.405879,600.686914 53.9391395,601.632382 39.6161154,600.590118 C17.6619304,598.992547 12.091836,588.663656 6.21434865,581.407876 C1.43742534,575.510746 -4.87258218,551.488281 5.99233914,530.947985 C13.23562,517.254455 23.6961181,509.123935 37.3738334,506.556425 C38.8789735,500.47926 41.2112882,494.975148 44.3707776,490.044088 C49.1100117,482.647498 55.3204493,478.432206 59.2495852,476.233376 C65.5124106,472.728563 75.7568691,473.215631 89.9829607,477.694582 Z" jetway-hook-id="00997FF3-E4CF-428F-8661-590C224CA813" id="Path-3-Copy-11" fill="#F3F2F2"></path>
            <path d="M268.959857,240.680835 C271.09527,237.782845 272.721381,235.887769 273.838189,234.995605 C277.951663,231.709552 281.857618,230.936473 284.558695,231.003962 C290.260331,231.146422 297.903677,236.342026 300.43772,241.467336 C302.127082,244.884209 302.689129,247.612411 302.123861,249.651942 C304.894331,249.464553 307.066387,250.550186 308.640028,252.908843 C311.000489,256.446828 309.735738,261.503244 308.944561,263.132964 C308.944561,263.132964 308.944561,263.132964 308.944561,263.132964 C307.738996,265.616269 305.247706,267.21856 302.48805,267.285517 C275.85709,267.931653 260.956932,268.139545 257.787575,267.909188 C252.917737,267.555235 251.682189,265.266798 250.378456,263.65923 C249.318847,262.35268 247.919173,257.030338 250.32921,252.479494 C251.935901,249.445598 254.25623,247.644225 257.290196,247.075376 C257.624063,245.728938 258.141413,244.509464 258.842245,243.416954 C259.893494,241.778188 261.271081,240.844261 262.142635,240.357095 C263.531844,239.58058 265.804251,239.688493 268.959857,240.680835 Z" jetway-hook-id="505165E3-107A-48A1-B678-FA22D46C9EF2" id="Path-3" fill="#F3F2F2"></path>
        </g>
    </g>
</svg>