<?xml version="1.0" encoding="UTF-8"?>
<svg width="1207px" height="648px" viewBox="0 0 1207 648" version="1.1" xmlns="http://www.w3.org/2000/svg" xmlns:xlink="http://www.w3.org/1999/xlink" jetway-hooks="{}">
    <!-- Generator: Sketch 62 (91390) - https://sketch.com -->
    <title>dark_bg</title>
    <desc>Created with Sketch.</desc>
    <g jetway-hook-id="DD02DE45-2693-4544-83F0-035D85D9B187" id="Page-1" stroke="none" stroke-width="1" fill="none" fill-rule="evenodd">
        <g jetway-hook-id="2FC357F5-3628-4136-840D-D1C3A14C992D" id="dark_bg">
            <polygon jetway-hook-id="C600671D-8AA5-4162-BF1F-BB68A57C050E" id="" fill="#6C6D6E" fill-rule="nonzero" points="50.48 560.82 49.12 554.96 53.64 551.02 47.66 550.5 45.32 545 42.98 550.5 37 551.02 41.54 554.96 40.16 560.82 45.32 557.7"></polygon>
            <polygon jetway-hook-id="A44AEFB4-AD57-4110-95B2-24A4D6D0109E" id="-copy" fill="#6C6D6E" fill-rule="nonzero" points="256.48 195.82 255.12 189.96 259.64 186.02 253.66 185.5 251.32 180 248.98 185.5 243 186.02 247.54 189.96 246.16 195.82 251.32 192.7"></polygon>
            <polygon jetway-hook-id="2F287038-C471-4893-9830-5C888364396C" id="-copy-3" fill="#6C6D6E" fill-rule="nonzero" points="217.48 15.82 216.12 9.96 220.64 6.02 214.66 5.5 212.32 0 209.98 5.5 204 6.02 208.54 9.96 207.16 15.82 212.32 12.7"></polygon>
            <polygon jetway-hook-id="34680675-EA13-4DB6-ADFA-F5D62E33477F" id="-copy-2" fill="#6C6D6E" fill-rule="nonzero" points="192.48 643.82 191.12 637.96 195.64 634.02 189.66 633.5 187.32 628 184.98 633.5 179 634.02 183.54 637.96 182.16 643.82 187.32 640.7"></polygon>
            <polygon jetway-hook-id="1D80C818-DF60-4C2C-8540-2CA3A0390D55" id="-copy-7" fill="#6C6D6E" fill-rule="nonzero" points="13.48 366.82 12.12 360.96 16.64 357.02 10.66 356.5 8.32 351 5.98 356.5 0 357.02 4.54 360.96 3.16 366.82 8.32 363.7"></polygon>
            <polygon jetway-hook-id="BA3EE271-5680-4FCE-837A-11FE19B1D7BE" id="-copy-6" fill="#6C6D6E" fill-rule="nonzero" points="92.48 168.82 91.12 162.96 95.64 159.02 89.66 158.5 87.32 153 84.98 158.5 79 159.02 83.54 162.96 82.16 168.82 87.32 165.7"></polygon>
            <polygon jetway-hook-id="E4AB1258-EA5C-42EA-AFC4-B746AA61D242" id="-copy-5" fill="#6C6D6E" fill-rule="nonzero" points="28.48 57.82 27.12 51.96 31.64 48.02 25.66 47.5 23.32 42 20.98 47.5 15 48.02 19.54 51.96 18.16 57.82 23.32 54.7"></polygon>
            <polygon jetway-hook-id="B556AAC0-1A22-4D0D-A79A-28A0D270DA32" id="-copy-4" fill="#6C6D6E" fill-rule="nonzero" points="184.48 440.82 183.12 434.96 187.64 431.02 181.66 430.5 179.32 425 176.98 430.5 171 431.02 175.54 434.96 174.16 440.82 179.32 437.7"></polygon>
            <polygon jetway-hook-id="E503F39C-4B7E-4194-832F-C32BCD334A44" id="-copy-15" fill="#6C6D6E" fill-rule="nonzero" points="888.48 647.82 887.12 641.96 891.64 638.02 885.66 637.5 883.32 632 880.98 637.5 875 638.02 879.54 641.96 878.16 647.82 883.32 644.7"></polygon>
            <polygon jetway-hook-id="832CDA4F-5B72-4AAE-ACE6-24E49F43A797" id="-copy-16" fill="#6C6D6E" fill-rule="nonzero" points="618.48 588.82 617.12 582.96 621.64 579.02 615.66 578.5 613.32 573 610.98 578.5 605 579.02 609.54 582.96 608.16 588.82 613.32 585.7"></polygon>
            <polygon jetway-hook-id="C416BF7C-3096-47A8-B7C0-8AE403353ECE" id="-copy-14" fill="#6C6D6E" fill-rule="nonzero" points="1178.48 346.82 1177.12 340.96 1181.64 337.02 1175.66 336.5 1173.32 331 1170.98 336.5 1165 337.02 1169.54 340.96 1168.16 346.82 1173.32 343.7"></polygon>
            <polygon jetway-hook-id="8D45EBFE-B3F7-4E0B-A8C3-5273EF635B2F" id="-copy-13" fill="#6C6D6E" fill-rule="nonzero" points="946.48 174.82 945.12 168.96 949.64 165.02 943.66 164.5 941.32 159 938.98 164.5 933 165.02 937.54 168.96 936.16 174.82 941.32 171.7"></polygon>
            <polygon jetway-hook-id="F3009511-66A8-46EF-984F-FE2064D3DCA2" id="-copy-12" fill="#6C6D6E" fill-rule="nonzero" points="1203.48 630.82 1202.12 624.96 1206.64 621.02 1200.66 620.5 1198.32 615 1195.98 620.5 1190 621.02 1194.54 624.96 1193.16 630.82 1198.32 627.7"></polygon>
            <polygon jetway-hook-id="8445992A-14FF-4AAA-AED8-4C3BC74F172B" id="-copy-11" fill="#6C6D6E" fill-rule="nonzero" points="1028.48 318.82 1027.12 312.96 1031.64 309.02 1025.66 308.5 1023.32 303 1020.98 308.5 1015 309.02 1019.54 312.96 1018.16 318.82 1023.32 315.7"></polygon>
            <polygon jetway-hook-id="3A131F05-69A5-42AF-A0B9-3369575E7DDE" id="-copy-10" fill="#6C6D6E" fill-rule="nonzero" points="1184.48 75.82 1183.12 69.96 1187.64 66.02 1181.66 65.5 1179.32 60 1176.98 65.5 1171 66.02 1175.54 69.96 1174.16 75.82 1179.32 72.7"></polygon>
            <polygon jetway-hook-id="066B3D34-EA1D-4CE0-BB9F-67B964847199" id="-copy-9" fill="#6C6D6E" fill-rule="nonzero" points="987.48 32.82 986.12 26.96 990.64 23.02 984.66 22.5 982.32 17 979.98 22.5 974 23.02 978.54 26.96 977.16 32.82 982.32 29.7"></polygon>
            <polygon jetway-hook-id="008FF037-7B78-46C4-894A-F0FD4C57A180" id="-copy-8" fill="#6C6D6E" fill-rule="nonzero" points="1112.48 462.82 1111.12 456.96 1115.64 453.02 1109.66 452.5 1107.32 447 1104.98 452.5 1099 453.02 1103.54 456.96 1102.16 462.82 1107.32 459.7"></polygon>
            <g jetway-hook-id="78E41B36-3BD3-4B34-8799-B5448C6833C4" id="Group" transform="translate(92.000000, 281.000000)" fill="#6C6D6E" fill-rule="nonzero">
                <path d="M9.77634285,35.1692441 C9.77634285,35.1692441 9.34103809,32.28535 9.77634285,30 C8.79690713,30.1088262 7.87188451,30.544131 7.16451427,31.3059143 C5.36888213,33.1015464 6.18507856,38.8149214 6.18507856,38.8149214 C6.18507856,38.8149214 11.8984536,39.6311179 13.6940857,37.8354857 C14.455869,37.0737024 14.8367607,36.1486798 15,35.2236572 C12.6602369,35.6045488 9.77634285,35.1692441 9.77634285,35.1692441 Z" jetway-hook-id="60B623EB-14AC-4EE5-B904-4FE97D502F40" id="Path"></path>
                <path d="M30.2190785,33.1851817 C30.7105481,32.0931614 30.6013327,30.8919391 30.1098631,29.8545197 C47.0928684,14.2386292 44.9085591,0.0969660805 44.9085591,0.0969660805 C44.9085591,0.0969660805 30.7651559,-2.14167557 15.1473438,14.8938414 C14.1097969,14.4024322 12.9084267,14.3478312 11.8162721,14.7846394 C9.74117815,15.6582556 -0.525075914,22.7563877 0.02100143,24.1760141 C0.348647836,24.9404283 4.77187432,24.5036202 8.75823893,23.793807 C8.15755385,25.8686456 10.2326478,28.8171004 13.1814654,31.8201563 C16.1302831,34.7686112 19.0791007,36.8434498 21.2088024,36.2428386 C20.4989018,40.2287128 20.0620399,44.6513951 20.8265482,44.9790012 C22.2463493,45.5250113 29.3453548,35.2600203 30.2190785,33.1851817 Z M29.8914321,15.1122455 C28.5262388,13.7472201 28.5262388,11.6177804 29.8914321,10.252755 C31.2566255,8.88772964 33.3863271,8.88772964 34.7515205,10.252755 C36.1167138,11.6177804 36.1167138,13.7472201 34.7515205,15.1122455 C33.3863271,16.4226698 31.2020178,16.4772709 29.8914321,15.1122455 Z" jetway-hook-id="2DEC765C-99E3-4F65-8D22-79FE5A9C2038" id="Shape"></path>
            </g>
            <g jetway-hook-id="AF8F46FA-A44F-4CE0-8188-245ACAE6E5C1" id="Group" transform="translate(1062.500000, 601.500000) rotate(18.000000) translate(-1062.500000, -601.500000) translate(1047.000000, 586.000000)"></g>
            <path d="M1066.14278,608.212626 C1063.56532,610.791622 1060.83771,613.145268 1058.2102,615.048216 C1060.28718,615.473876 1062.48929,615.37372 1064.64135,614.647596 C1070.69714,612.619453 1074.17546,606.409833 1072.97431,600.300368 C1071.07249,602.929441 1068.74527,605.63363 1066.14278,608.212626 Z" jetway-hook-id="90D3E622-DDA1-41EA-941C-430F65F4B4B7" id="Path" fill="#6C6D6E" fill-rule="nonzero" transform="translate(1065.710198, 607.800368) rotate(18.000000) translate(-1065.710198, -607.800368) "></path>
            <path d="M1074.06898,597.221502 C1077.48953,592.275422 1078.91682,588.165993 1077.3911,586.615729 C1076.03765,585.237716 1072.59248,586.246618 1068.35986,588.904213 C1068.40908,588.928821 1068.4829,588.953428 1068.53212,588.978036 C1068.87663,589.150287 1069.19654,589.322539 1069.51645,589.519397 C1071.06677,588.854999 1072.22336,588.731962 1072.76474,589.273324 C1073.25691,589.765471 1073.20769,590.749766 1072.71553,592.029348 L1072.76474,592.053956 L1072.24797,593.087465 C1072.24797,593.112072 1072.22336,593.112072 1072.22336,593.13668 C1072.14954,593.284324 1072.07571,593.407361 1072.00189,593.555005 C1072.00189,593.555005 1072.00189,593.579612 1071.97728,593.579612 C1071.92806,593.653434 1071.87884,593.751864 1071.82963,593.825686 C1071.78041,593.924115 1071.73119,593.997938 1071.68198,594.096367 C1071.60815,594.219404 1071.53433,594.342441 1071.4605,594.465477 C1071.43589,594.514692 1071.38668,594.563907 1071.36207,594.637729 C1071.26364,594.785373 1071.1652,594.933017 1071.06677,595.105269 C1071.04216,595.129876 1071.04216,595.154484 1071.01755,595.179091 C1070.91912,595.351342 1070.79608,595.523594 1070.67304,595.695846 C1070.64843,595.720453 1070.64843,595.74506 1070.62382,595.74506 C1070.50078,595.917312 1070.37774,596.114171 1070.2547,596.286422 C1070.2547,596.31103 1070.23009,596.31103 1070.23009,596.335637 C1070.10705,596.507889 1069.98401,596.704747 1069.83636,596.876999 C1069.81175,596.901606 1069.81175,596.901606 1069.78714,596.926214 C1069.6641,597.098465 1069.51645,597.295324 1069.39341,597.467576 C1069.3688,597.492183 1069.3688,597.51679 1069.34419,597.541398 C1069.22115,597.713649 1069.0735,597.885901 1068.95046,598.058152 C1068.92585,598.08276 1068.90124,598.131974 1068.87663,598.156582 C1068.75359,598.304226 1068.63055,598.476478 1068.4829,598.648729 C1068.43368,598.697944 1068.40908,598.747159 1068.35986,598.796373 C1068.23682,598.944017 1068.11378,599.091662 1067.99073,599.239306 C1067.94152,599.313128 1067.8923,599.362343 1067.81848,599.436165 C1067.69543,599.583809 1067.57239,599.706846 1067.47396,599.85449 C1067.40014,599.928312 1067.35092,600.002134 1067.27709,600.075956 C1067.15405,600.198993 1067.05562,600.346637 1066.93258,600.469674 C1066.85875,600.543496 1066.78493,600.641925 1066.7111,600.715748 C1066.58806,600.838784 1066.48963,600.961821 1066.36659,601.084858 C1066.29276,601.183287 1066.19433,601.25711 1066.1205,601.355539 C1065.99746,601.503183 1065.87442,601.62622 1065.75138,601.773864 C1065.67756,601.847686 1065.60373,601.921508 1065.52991,602.019938 C1065.38226,602.192189 1065.21,602.339834 1065.06235,602.512085 C1065.01313,602.5613 1064.96391,602.610515 1064.9147,602.684337 C1064.69322,602.905803 1064.49636,603.127269 1064.27488,603.324128 C1064.05341,603.545594 1063.83193,603.742453 1063.63507,603.963919 C1063.56124,604.037742 1063.46281,604.111564 1063.38898,604.209993 C1063.26594,604.33303 1063.11829,604.456067 1062.99525,604.579104 C1062.89682,604.677533 1062.77378,604.775962 1062.67534,604.874392 C1062.57691,604.972821 1062.45387,605.071251 1062.35544,605.194288 C1062.257,605.292717 1062.13396,605.391147 1062.03553,605.489576 C1061.93709,605.588005 1061.81405,605.686435 1061.71562,605.784864 C1061.61719,605.883294 1061.51875,605.957116 1061.42032,606.055545 C1061.29728,606.153975 1061.19885,606.252404 1061.0758,606.350834 C1060.97737,606.424656 1060.90355,606.498478 1060.80511,606.5723 C1060.68207,606.670729 1060.55903,606.793766 1060.43599,606.892196 C1060.36216,606.94141 1060.28834,607.015232 1060.21451,607.064447 C1060.06686,607.187484 1059.91922,607.310521 1059.79617,607.40895 C1059.74696,607.458165 1059.69774,607.482772 1059.64852,607.531987 C1059.50087,607.655024 1059.32862,607.778061 1059.18097,607.901098 C1059.15636,607.925705 1059.10714,607.950312 1059.08253,607.97492 C1058.91028,608.097956 1058.73802,608.245601 1058.56576,608.368637 C1058.54115,608.393245 1058.51654,608.393245 1058.51654,608.417852 C1058.31968,608.565496 1058.14742,608.688533 1057.97516,608.836177 C1057.97516,608.836177 1057.95055,608.836177 1057.95055,608.860785 C1057.55682,609.156073 1057.16309,609.426754 1056.79396,609.672828 C1056.79396,609.672828 1056.79396,609.672828 1056.79396,609.672828 C1056.5971,609.795864 1056.42484,609.918901 1056.22797,610.041938 C1056.22797,610.041938 1056.20336,610.066545 1056.20336,610.066545 C1056.03111,610.164975 1055.85885,610.288012 1055.68659,610.386441 C1055.66198,610.411049 1055.61276,610.435656 1055.58816,610.435656 C1055.44051,610.534085 1055.29286,610.607907 1055.14521,610.68173 C1055.04677,610.730944 1054.94834,610.804766 1054.84991,610.853981 C1054.77608,610.903196 1054.70226,610.927803 1054.62843,610.977018 C1054.62843,610.977018 1054.60382,610.977018 1054.60382,610.977018 C1054.45617,611.05084 1054.30853,611.124662 1054.18548,611.198484 C1054.16088,611.198484 1054.16088,611.223092 1054.13627,611.223092 L1053.10272,611.739846 L1053.0535,611.690631 C1051.74926,612.182779 1050.78954,612.231993 1050.29737,611.739846 C1049.75599,611.198484 1049.87903,610.017331 1050.54346,608.491674 C1050.34659,608.171779 1050.17433,607.827275 1050.00207,607.482772 C1049.97747,607.433558 1049.95286,607.359736 1049.92825,607.310521 C1047.24595,611.567595 1046.23701,615.012625 1047.61507,616.390638 C1049.14078,617.916294 1053.27498,616.489067 1058.19663,613.093251 C1060.90355,611.223092 1063.88115,608.737748 1066.78493,605.809472 C1069.71331,602.905803 1072.19875,599.928312 1074.06898,597.221502 Z" jetway-hook-id="EF662B59-F965-4238-A6CB-8B85BDC779F4" id="Path" fill="#6C6D6E" fill-rule="nonzero" transform="translate(1062.500000, 601.500000) rotate(18.000000) translate(-1062.500000, -601.500000) "></path>
            <path d="M1051.3754,604.962158 C1051.42532,605.086956 1051.47524,605.211754 1051.50019,605.336552 C1051.62498,605.710947 1051.77473,606.060382 1051.94943,606.409817 C1052.22397,606.958929 1052.52346,607.508041 1052.84791,608.007234 C1053.19732,608.531387 1053.59664,609.030579 1054.02092,609.479853 C1054.17067,609.404974 1054.32041,609.330095 1054.47016,609.255216 C1057.19055,607.782597 1060.63471,605.061996 1063.97904,601.742364 C1067.29841,598.422732 1070.04376,594.953342 1071.4913,592.2577 C1071.56617,592.107942 1071.66601,591.933225 1071.71592,591.808427 C1071.24172,591.384113 1070.76753,590.984759 1070.24342,590.635324 C1069.74426,590.285889 1069.22015,589.986373 1068.67108,589.711817 C1068.32168,589.537099 1067.97227,589.387341 1067.62286,589.262543 C1066.99892,589.037907 1066.35002,588.838229 1065.67616,588.713431 C1063.60467,588.314077 1061.43335,588.413915 1059.28699,589.112785 C1053.22227,591.134516 1049.75315,597.299548 1050.95112,603.3897 C1051.05095,603.913853 1051.2007,604.438005 1051.3754,604.962158 Z" jetway-hook-id="D94FFB6D-C44E-43F0-860E-AEEA6C544899" id="Path" fill="#6C6D6E" fill-rule="nonzero" transform="translate(1061.215921, 598.979853) rotate(18.000000) translate(-1061.215921, -598.979853) "></path>
            <path d="M1117.50173,195 C1111.03891,195.005703 1105.48495,199.582808 1104.25022,205.92078 C1103.01549,212.258751 1106.44572,218.582909 1112.4346,221.009952 C1112.86999,221.194636 1113.31773,221.34876 1113.77458,221.471202 C1114.98511,221.825331 1116.24038,222.003409 1117.50173,222 C1118.10259,222.001518 1118.70279,221.960162 1119.29774,221.876201 C1119.70691,221.82591 1120.11292,221.75267 1120.51385,221.656826 C1127.20965,220.119107 1131.68456,213.806333 1130.91383,206.985534 C1130.1431,200.164735 1124.37214,195.007591 1117.50173,195 Z M1123.43255,212.883035 C1123.47847,213.010587 1123.51865,213.13814 1123.55309,213.271238 C1123.77695,214.141921 1123.48421,215.068062 1123.17425,216.044114 L1123.06518,216.399042 C1122.90208,216.881745 1122.80746,217.383585 1122.78392,217.89085 C1121.73748,218.427621 1120.61011,218.801918 1119.4432,219 C1119.24803,218.572977 1119.04139,218.134863 1118.79457,217.713385 C1118.26933,216.713138 1117.39215,215.926609 1116.32059,215.495084 C1115.65191,215.298442 1114.95092,215.225072 1114.25417,215.2788 C1113.49992,215.254092 1112.76057,215.485656 1112.16478,215.933199 C1111.71577,216.349513 1111.45223,216.918413 1111.43005,217.519284 C1108.69921,215.889283 1106.80233,213.226279 1106.20201,210.179708 C1105.60169,207.133138 1106.3531,203.983027 1108.273,201.497605 C1108.35321,201.629769 1108.40951,201.77418 1108.43947,201.924628 C1108.43941,202.389264 1108.29983,202.843905 1108.03766,203.233426 C1107.8837,203.513867 1107.75132,203.804882 1107.6416,204.104109 C1107.3324,205.130373 1107.42013,206.230259 1107.88842,207.198639 C1108.32037,208.073366 1108.86001,208.894529 1109.49564,209.644316 C1110.12089,210.5424 1110.89689,211.333368 1111.79167,211.984623 C1112.66299,212.535538 1113.68357,212.824981 1114.72485,212.816486 C1116.13539,212.827575 1117.49468,212.306244 1118.5133,211.363499 C1120.24738,209.605553 1120.52183,206.933431 1119.17915,204.880514 C1118.7241,204.268374 1118.19623,203.709975 1117.60637,203.216789 C1117.35955,202.989413 1117.10698,202.762037 1116.87164,202.523569 C1116.03933,201.680615 1115.64326,200.859844 1115.72363,200.149987 C1115.89171,199.356559 1116.28987,198.625672 1116.87164,198.042601 C1117.14181,197.709851 1117.391,197.361687 1117.61785,197 C1120.67674,197.040882 1123.5914,198.263138 1125.71136,200.394001 C1125.14507,201.215803 1124.8398,202.179629 1124.83313,203.166877 C1124.89489,204.037549 1125.10634,204.892199 1125.4588,205.69574 C1125.57934,206.017393 1125.69988,206.339047 1125.79746,206.660701 C1125.93522,207.104361 1126.30833,208.601714 1125.47028,209.383665 C1125.23966,209.579747 1124.9875,209.750837 1124.71833,209.893874 C1124.02263,210.183696 1123.48803,210.746602 1123.24887,211.441139 C1123.16992,211.928919 1123.23354,212.428307 1123.43255,212.883035 Z" jetway-hook-id="E2AE3855-8D57-4B7B-8F7D-3E0F0ACF76B3" id="Shape" fill="#6C6D6E" fill-rule="nonzero"></path>
        </g>
    </g>
</svg>