<svg width="1320" height="765" fill="none" xmlns="http://www.w3.org/2000/svg">
  <g clip-path="url(#clip0)">
    <path fill="#fff" d="M0 0h1320v765H0z"/>
    <path fill-rule="evenodd" clip-rule="evenodd" d="M1171.49 488.881s15.81-21.5 24.07-28.119c20.3-16.253 39.57-20.076 52.9-19.742 28.14.704 65.85 26.401 78.36 51.751 12.5 25.349 8.32 40.48 8.32 40.48s20.5-1.39 32.15 16.109c11.65 17.499 5.41 42.507 1.5 50.568-2.33 4.818-10.26 11.444-15.96 15.797-3.98 3.033-8.74 4.567-13.74 4.686-37.36.892-201.45 4.69-222.73 3.14-24.03-1.751-30.12-13.069-36.56-21.02-5.23-6.462-12.13-32.786-.24-55.295 11.89-22.508 34.35-26.728 34.35-26.728s2.47-9.989 7.66-18.094c5.18-8.106 11.98-12.725 16.28-15.134 10.28-5.761 33.64 1.601 33.64 1.601z" fill="#F3F2F2"/>
    <g filter="url(#filter0_d)">
      <path fill-rule="evenodd" clip-rule="evenodd" d="M1201.19 559.2s12.7-17.153 19.35-22.434c16.32-12.966 31.81-16.017 42.53-15.75 22.62.562 52.94 21.063 62.99 41.288 10.06 20.224 6.69 32.296 6.69 32.296s16.49-1.11 25.85 12.851c9.37 13.961 4.35 33.913 1.21 40.344-1.72 3.527-7.22 8.268-11.66 11.708-3.93 3.046-8.75 4.552-13.72 4.669-32.68.771-160.73 3.687-177.57 2.47-19.32-1.397-24.22-10.427-29.39-16.77-4.21-5.156-9.76-26.158-.2-44.115s27.62-21.324 27.62-21.324 1.99-7.97 6.16-14.436c4.17-6.467 9.63-10.152 13.09-12.074 8.27-4.597 27.05 1.277 27.05 1.277z" fill="#EAE8E8"/>
    </g>
    <path fill-rule="evenodd" clip-rule="evenodd" d="M189.304 105.014s-11.185-15.273-17.034-19.975c-14.364-11.546-28.002-14.262-37.434-14.025-19.909.5-46.598 18.755-55.446 36.763-8.849 18.008-5.888 28.757-5.888 28.757s-14.511-.988-22.753 11.443-3.826 30.197-1.064 35.923c1.42 2.941 5.761 6.832 9.516 9.83 3.92 3.13 8.753 4.655 13.767 4.774 30.197.719 140.688 3.249 155.348 2.177 17.004-1.244 21.318-9.284 25.871-14.932 3.7-4.591 8.587-23.291.172-39.281-8.416-15.989-24.307-18.987-24.307-18.987s-1.748-7.096-5.419-12.854c-3.671-5.758-8.481-9.039-11.524-10.751-7.277-4.092-23.805 1.138-23.805 1.138z" fill="#F3F2F2"/>
    <g filter="url(#filter1_d)">
      <path fill-rule="evenodd" clip-rule="evenodd" d="M206.72 153.211s-9.032-12.219-13.756-15.98c-11.598-9.237-22.612-11.41-30.228-11.22-16.077.401-37.628 15.004-44.774 29.411-7.145 14.406-4.754 23.005-4.754 23.005s-11.718-.79-18.373 9.155c-6.656 9.944-3.09 24.157-.859 28.738 1.007 2.067 3.834 4.719 6.562 6.96 3.848 3.16 8.729 4.641 13.707 4.758 26.299.617 112.365 2.548 123.977 1.707 13.731-.995 17.215-7.428 20.891-11.946 2.988-3.673 6.935-18.633.139-31.424-6.795-12.792-19.628-15.19-19.628-15.19s-1.412-5.677-4.376-10.283c-2.964-4.607-6.848-7.232-9.306-8.601-5.876-3.274-19.222.91-19.222.91z" fill="#EAE8E8"/>
    </g>
    <path fill-rule="evenodd" clip-rule="evenodd" d="M1070.05 129.222s5.3-7.284 8.08-9.527c6.81-5.506 13.27-6.801 17.75-6.688 9.44.238 22.09 8.945 26.29 17.533 4.19 8.588 2.79 13.715 2.79 13.715s6.88-.471 10.79 5.457c3.91 5.929 1.81 14.402.5 17.132-.28.598-.82 1.278-1.48 1.971-3.48 3.649-8.6 4.974-13.64 5.091-18.26.427-63.18 1.413-69.58.942-8.06-.593-10.11-4.428-12.27-7.122-1.75-2.189-4.07-11.108-.08-18.733 3.99-7.626 11.53-9.056 11.53-9.056s.83-3.384 2.57-6.13c1.74-2.746 4.02-4.311 5.46-5.128 3.45-1.951 11.29.543 11.29.543z" fill="#EAE8E8"/>
    <path fill-rule="evenodd" clip-rule="evenodd" d="M1132.95 148.211s8.98-12.219 13.68-15.98c11.53-9.237 22.48-11.41 30.05-11.22 15.98.401 37.41 15.004 44.51 29.411 7.11 14.406 4.73 23.005 4.73 23.005s11.65-.79 18.27 9.155c6.61 9.944 3.07 24.157.85 28.738-.99 2.054-3.78 4.687-6.47 6.919-3.86 3.189-8.77 4.683-13.77 4.801-26.25.619-111.63 2.545-123.17 1.705-13.65-.995-17.11-7.428-20.77-11.946-2.97-3.673-6.89-18.633-.13-31.424 6.75-12.792 19.51-15.19 19.51-15.19s1.4-5.677 4.35-10.283c2.95-4.607 6.81-7.232 9.25-8.601 5.84-3.274 19.11.91 19.11.91z" fill="#F3F2F2"/>
    <path fill-rule="evenodd" clip-rule="evenodd" d="M166.427 537.548s7.772-10.574 11.836-13.829c9.98-7.993 19.457-9.874 26.011-9.709 13.833.346 32.378 12.984 38.526 25.451 6.148 12.467 4.091 19.909 4.091 19.909s10.082-.684 15.809 7.922c5.727 8.606 2.659 20.905.739 24.869-.764 1.578-2.747 3.55-4.815 5.324-3.796 3.256-8.691 4.725-13.691 4.842-23.797.559-95.773 2.169-105.612 1.452-11.816-.861-14.813-6.427-17.977-10.338-2.57-3.178-5.966-16.124-.119-27.194 5.847-11.069 16.889-13.145 16.889-13.145s1.215-4.912 3.766-8.899c2.55-3.986 5.892-6.257 8.007-7.442 5.056-2.834 16.54.787 16.54.787z" fill="#EAE8E8"/>
    <path fill-rule="evenodd" clip-rule="evenodd" d="M19.983 548.695s14.44-19.621 21.992-25.661c18.545-14.831 36.154-18.321 48.33-18.016 25.705.643 60.162 24.093 71.586 47.226 11.424 23.134 7.602 36.942 7.602 36.942s18.735-1.269 29.376 14.7c10.641 15.969 4.94 38.791 1.373 46.147-2.062 4.251-8.899 10.045-14.061 14.015-3.96 3.046-8.783 4.575-13.778 4.693-35.428.843-183.48 4.254-202.787 2.849-21.954-1.597-27.524-11.926-33.402-19.182-4.777-5.897-11.087-29.92-.222-50.46s31.382-24.392 31.382-24.392 2.257-9.115 6.997-16.512c4.739-7.397 10.95-11.612 14.879-13.811 9.394-5.257 30.733 1.462 30.733 1.462z" fill="#F3F2F2"/>
  </g>
  <defs>
    <filter id="filter0_d" x="1120" y="520" width="246" height="149.935" filterUnits="userSpaceOnUse" color-interpolation-filters="sRGB">
      <feFlood flood-opacity="0" result="BackgroundImageFix"/>
      <feColorMatrix in="SourceAlpha" values="0 0 0 0 0 0 0 0 0 0 0 0 0 0 0 0 0 0 127 0"/>
      <feOffset dy="1"/>
      <feGaussianBlur stdDeviation="1"/>
      <feColorMatrix values="0 0 0 0 0 0 0 0 0 0 0 0 0 0 0 0 0 0 0.08 0"/>
      <feBlend in2="BackgroundImageFix" result="effect1_dropShadow"/>
      <feBlend in="SourceGraphic" in2="effect1_dropShadow" result="shape"/>
    </filter>
    <filter id="filter1_d" x="89" y="125" width="176" height="107.954" filterUnits="userSpaceOnUse" color-interpolation-filters="sRGB">
      <feFlood flood-opacity="0" result="BackgroundImageFix"/>
      <feColorMatrix in="SourceAlpha" values="0 0 0 0 0 0 0 0 0 0 0 0 0 0 0 0 0 0 127 0"/>
      <feOffset dy="1"/>
      <feGaussianBlur stdDeviation="1"/>
      <feColorMatrix values="0 0 0 0 0 0 0 0 0 0 0 0 0 0 0 0 0 0 0.08 0"/>
      <feBlend in2="BackgroundImageFix" result="effect1_dropShadow"/>
      <feBlend in="SourceGraphic" in2="effect1_dropShadow" result="shape"/>
    </filter>
    <clipPath id="clip0">
      <path fill="#fff" d="M0 0h1320v765H0z"/>
    </clipPath>
  </defs>
</svg>
